<svg width="99" height="40" viewBox="0 0 99 40" fill="none" xmlns="http://www.w3.org/2000/svg">
<path d="M71.1273 7.2971C71.2501 7.29654 71.2501 7.29654 71.3754 7.29597C71.5503 7.2954 71.7253 7.29514 71.9002 7.29516C72.1607 7.29492 72.4212 7.29291 72.6818 7.29077C73.8437 7.28654 74.9715 7.37735 76.1218 7.53957C76.1218 7.61339 76.1218 7.6872 76.1218 7.76326C76.2021 7.75778 76.2823 7.7523 76.365 7.74665C76.7241 7.76566 76.927 7.85946 77.2425 8.02888C77.3823 8.10284 77.3823 8.10284 77.5249 8.17829C77.6132 8.22587 77.7015 8.27345 77.7924 8.32247C77.875 8.36082 77.9576 8.39917 78.0426 8.43868C78.2379 8.54615 78.2379 8.54615 78.3493 8.76984C78.4734 8.82289 78.5974 8.87595 78.7252 8.93061C79.2569 9.16073 79.2569 9.16073 79.4631 9.44089C79.4631 9.5147 79.4631 9.58852 79.4631 9.66457C79.5301 9.67715 79.597 9.68973 79.6661 9.70269C80.0575 9.82169 80.2946 10.1296 80.5699 10.4195C80.6269 10.4783 80.684 10.5372 80.7428 10.5978C80.8562 10.7147 80.9692 10.832 81.0817 10.9497C81.2363 11.1094 81.3955 11.2647 81.5548 11.4195C81.802 11.6777 81.802 11.6777 81.976 12.0342C82.1464 12.369 82.2352 12.4525 82.5816 12.5725C82.5816 12.6832 82.5816 12.7939 82.5816 12.908C82.6918 12.908 82.8021 12.908 82.9157 12.908C83.087 13.1946 83.1437 13.3961 83.1872 13.7328C83.2293 14.1415 83.2293 14.1415 83.4239 14.4878C83.5889 14.8191 83.6159 15.0048 83.584 15.3685C83.6942 15.4054 83.8045 15.4423 83.9181 15.4804C84.5405 17.5985 84.5303 20.408 83.7841 22.4841C83.6086 23.0102 83.4893 23.5529 83.3612 24.0922C83.2877 24.0922 83.2142 24.0922 83.1385 24.0922C83.1385 24.2768 83.1385 24.4613 83.1385 24.6514C83.065 24.6514 82.9914 24.6514 82.9157 24.6514C82.9157 24.7991 82.9157 24.9467 82.9157 25.0988C82.8054 25.0988 82.6952 25.0988 82.5816 25.0988C82.5816 25.2095 82.5816 25.3203 82.5816 25.4343C82.4713 25.4343 82.3611 25.4343 82.2475 25.4343C82.174 25.6189 82.1004 25.8034 82.0247 25.9935C81.9512 25.9935 81.8777 25.9935 81.802 25.9935C81.802 26.1412 81.802 26.2888 81.802 26.4409C81.6182 26.4409 81.4344 26.4409 81.2451 26.4409C81.2451 26.3671 81.2451 26.2933 81.2451 26.2172C81.1348 26.2172 81.0246 26.2172 80.911 26.2172C80.911 26.1065 80.911 25.9958 80.911 25.8817C80.8469 25.8537 80.7828 25.8256 80.7168 25.7967C80.4315 25.6393 80.2382 25.4587 80.0078 25.2281C79.9238 25.1441 79.8398 25.06 79.7533 24.9734C79.6667 24.8856 79.5801 24.7978 79.4909 24.7074C79.4026 24.6196 79.3143 24.5318 79.2234 24.4413C79.1399 24.3572 79.0565 24.2732 78.9706 24.1866C78.8941 24.1095 78.8176 24.0325 78.7388 23.9531C78.5721 23.7567 78.5721 23.7567 78.5721 23.533C78.2964 23.6437 78.2964 23.6437 78.0152 23.7567C77.9869 24.0816 77.9757 24.2584 78.1633 24.5316C78.265 24.6316 78.265 24.6316 78.3689 24.7336C78.4428 24.807 78.5166 24.8803 78.5927 24.9559C78.6709 25.0308 78.7491 25.1056 78.8296 25.1827C78.9065 25.2592 78.9834 25.3358 79.0626 25.4147C79.4869 25.8445 79.4869 25.8445 80.02 26.1054C80.1332 26.2907 80.2442 26.4773 80.3541 26.6646C80.5414 26.8731 80.7348 27.0761 80.9323 27.2749C80.9885 27.3316 81.0447 27.3883 81.1026 27.4466C81.2215 27.5662 81.3407 27.6855 81.4601 27.8045C81.6394 27.9833 81.8174 28.1632 81.9953 28.3433C82.6112 28.9622 83.2286 29.5351 83.935 30.0521C84.1683 30.2691 84.1906 30.3864 84.2522 30.6909C82.5376 30.6935 80.823 30.6955 79.1084 30.6967C78.3123 30.6973 77.5161 30.6981 76.7199 30.6994C76.0258 30.7005 75.3317 30.7012 74.6376 30.7014C74.2702 30.7016 73.9029 30.702 73.5355 30.7027C73.1249 30.7036 72.7143 30.7037 72.3037 30.7036C72.122 30.7042 72.122 30.7042 71.9367 30.7048C70.342 30.7027 70.342 30.7027 70.1076 30.4672C69.9077 30.4499 69.9077 30.4499 69.7038 30.4323C69.3507 30.3936 69.1092 30.3171 68.8059 30.1317C68.4741 29.9305 68.2585 29.8422 67.88 29.7962C67.88 29.7224 67.88 29.6485 67.88 29.5725C67.7997 29.5794 67.7193 29.5863 67.6364 29.5935C67.2606 29.5683 67.0663 29.4608 66.7663 29.237C66.7663 29.1632 66.7663 29.0893 66.7663 29.0133C66.7015 28.9997 66.6368 28.9862 66.5701 28.9722C65.8587 28.7703 65.3157 28.2638 64.822 27.7328C64.6367 27.5343 64.6367 27.5343 64.316 27.3356C64.316 27.2249 64.316 27.1142 64.316 27.0001C64.2425 27.0001 64.169 27.0001 64.0933 27.0001C63.9625 26.8765 63.8329 26.7512 63.7096 26.62C63.585 26.4911 63.4548 26.3676 63.3215 26.2478C62.7102 25.6849 62.3627 25.1023 62.0885 24.3159C62.0885 24.2421 62.0885 24.1683 62.0885 24.0922C62.015 24.0922 61.9415 24.0922 61.8658 24.0922C61.7192 23.6874 61.643 23.4105 61.643 22.9738C61.5695 22.9738 61.496 22.9738 61.4203 22.9738C60.8314 20.9077 60.7981 18.9494 60.8634 16.8225C60.9369 16.8225 61.0104 16.8225 61.0862 16.8225C61.1068 16.6045 61.1068 16.6045 61.1279 16.3821C61.1862 15.8474 61.2937 15.3315 61.4203 14.8093C61.4938 14.8093 61.5673 14.8093 61.643 14.8093C61.643 14.5879 61.643 14.3664 61.643 14.1383C61.7533 14.0829 61.7533 14.0829 61.8658 14.0264C62.081 13.7022 62.2494 13.3638 62.4157 13.0129C62.5935 12.6475 62.7929 12.4037 63.0909 12.1251C63.1277 12.0144 63.1644 11.9037 63.2023 11.7896C63.2758 11.7896 63.3493 11.7896 63.425 11.7896C63.5448 11.4929 63.6583 11.1986 63.7592 10.8948C64.1952 10.4867 64.7125 10.1834 65.2279 9.88826C65.5687 9.6896 65.8171 9.52326 66.0493 9.20322C66.5648 8.59266 67.3425 8.42223 68.0824 8.1866C68.326 8.09861 68.5431 7.99095 68.7711 7.86811C69.1768 7.65331 69.5705 7.55472 70.0201 7.47185C70.8052 7.29761 70.8052 7.29761 71.1273 7.2971Z" fill="#191919"/>
<path d="M8.96281 8.21055C14.9904 8.21055 21.0181 8.21055 27.2284 8.21055C27.2284 10.6465 27.2284 13.0824 27.2284 15.5921C25.7214 15.5921 24.2145 15.5921 22.662 15.5921C22.662 15.9243 22.662 16.2565 22.662 16.5987C24.1689 16.5987 25.6758 16.5987 27.2284 16.5987C27.2284 18.9608 27.2284 21.3229 27.2284 23.7566C25.6112 23.7566 23.994 23.7566 22.3278 23.7566C22.3278 25.9342 22.3278 28.1118 22.3278 30.3553C19.0201 30.3598 19.0201 30.3598 17.392 30.3609C16.5097 30.3616 15.6274 30.3623 14.7452 30.3637C14.0469 30.3649 13.3486 30.3656 12.6503 30.3658C12.2804 30.366 11.9104 30.3664 11.5405 30.3671C11.1281 30.3679 10.7158 30.3681 10.3035 30.368C10.1182 30.3686 10.1182 30.3686 9.92914 30.3692C9.81747 30.3691 9.7058 30.3689 9.59074 30.3688C9.49311 30.3689 9.39547 30.369 9.29488 30.3691C9.07419 30.3553 9.07419 30.3553 8.96281 30.2435C8.95192 29.9592 8.94834 29.6779 8.94942 29.3936C8.94932 29.3035 8.94923 29.2134 8.94913 29.1206C8.94895 28.8165 8.94956 28.5124 8.95017 28.2082C8.9502 27.9911 8.95018 27.774 8.95012 27.557C8.95009 26.9657 8.95074 26.3743 8.95152 25.783C8.95221 25.1658 8.95228 24.5486 8.95241 23.9314C8.95276 22.7617 8.95367 21.592 8.95479 20.4223C8.95627 18.8424 8.95687 17.2624 8.95752 15.6824C8.95857 13.1918 8.96079 10.7012 8.96281 8.21055Z" fill="#191919"/>
<path d="M29.1208 8.21055C32.7227 8.21055 36.3246 8.21055 40.0356 8.21055C40.0724 11.8644 40.1091 15.5183 40.147 19.2829C42.1685 19.3198 44.1899 19.3567 46.2726 19.3948C46.2726 23.0118 46.2726 26.6287 46.2726 30.3553C40.6125 30.3553 34.9525 30.3553 29.1208 30.3553C29.1208 23.0475 29.1208 15.7398 29.1208 8.21055Z" fill="#191919"/>
<path d="M48.0544 8.21055C51.8768 8.21055 55.6992 8.21055 59.6375 8.21055C59.6375 15.5183 59.6375 22.8261 59.6375 30.3553C55.8151 30.3553 51.9927 30.3553 48.0544 30.3553C48.0544 23.0475 48.0544 15.7398 48.0544 8.21055Z" fill="#191919"/>
<path d="M90.1538 31.4738C91.5505 31.4738 92.9471 31.4738 94.3861 31.4738C94.3861 32.9132 94.3861 34.3527 94.3861 35.8357C92.9894 35.8357 91.5928 35.8357 90.1538 35.8357C90.1538 34.3963 90.1538 32.9569 90.1538 31.4738Z" fill="#191919"/>
<path d="M29.6317 8.08354C29.7902 8.08388 29.7902 8.08388 29.9518 8.08422C30.0625 8.08403 30.1731 8.08383 30.2871 8.08363C30.6548 8.08313 31.0225 8.08346 31.3902 8.08384C31.6444 8.08377 31.8987 8.08366 32.153 8.08352C32.6867 8.08335 33.2204 8.08359 33.754 8.08411C34.4398 8.08475 35.1256 8.08438 35.8114 8.08371C36.3367 8.08331 36.862 8.08344 37.3873 8.08373C37.6403 8.0838 37.8932 8.08371 38.1462 8.08345C38.499 8.08317 38.8518 8.0836 39.2047 8.08422C39.3103 8.084 39.416 8.08377 39.5248 8.08354C40.2457 8.08592 40.2457 8.08592 40.3698 8.21054C40.3804 8.54757 40.3838 8.88204 40.3824 9.21911C40.3824 9.32494 40.3825 9.43077 40.3825 9.53981C40.3824 9.89141 40.3815 10.243 40.3807 10.5946C40.3805 10.8377 40.3803 11.0808 40.3802 11.3238C40.3798 11.965 40.3787 12.6061 40.3774 13.2473C40.3761 14.0158 40.3756 14.7843 40.3749 15.5528C40.3738 16.7216 40.3717 17.8904 40.3698 19.0592C42.3545 19.0592 44.3392 19.0592 46.384 19.0592C46.3885 21.8739 46.3885 21.8739 46.3895 23.0692C46.3902 23.8863 46.3909 24.7035 46.3924 25.5207C46.3937 26.1791 46.3943 26.8376 46.3946 27.496C46.3948 27.7478 46.3952 27.9997 46.3958 28.2515C46.3966 28.6029 46.3967 28.9543 46.3967 29.3057C46.3971 29.4109 46.3975 29.5161 46.3979 29.6245C46.3967 30.3425 46.3967 30.3425 46.2727 30.4671C46.05 30.478 45.8269 30.4808 45.6039 30.4806C45.3858 30.4808 45.3858 30.4808 45.1633 30.4811C45.0006 30.4807 44.838 30.4803 44.6753 30.4798C44.5052 30.4798 44.3351 30.4798 44.165 30.4799C43.7018 30.4799 43.2386 30.4793 42.7754 30.4785C42.2919 30.4778 41.8084 30.4777 41.3248 30.4776C40.4085 30.4772 39.4922 30.4763 38.5759 30.4752C37.533 30.4739 36.4901 30.4733 35.4472 30.4728C33.3013 30.4716 31.1554 30.4696 29.0095 30.4671C28.7355 30.0457 28.7559 29.6242 28.7592 29.1388C28.759 29.0494 28.7587 28.96 28.7584 28.868C28.7578 28.5682 28.7587 28.2685 28.7597 27.9687C28.7596 27.754 28.7594 27.5392 28.7591 27.3245C28.7585 26.741 28.7594 26.1576 28.7605 25.5742C28.7615 24.9645 28.7613 24.3548 28.7612 23.7451C28.7613 22.7215 28.7623 21.6979 28.7638 20.6743C28.7656 19.4891 28.7662 18.304 28.7661 17.1189C28.766 15.9805 28.7666 14.8421 28.7675 13.7036C28.7679 13.2183 28.7681 12.733 28.7682 12.2477C28.7683 11.677 28.769 11.1062 28.7701 10.5355C28.7704 10.3255 28.7705 10.1154 28.7705 9.90535C28.7704 9.61987 28.7711 9.33441 28.7719 9.04894C28.7717 8.96471 28.7715 8.88048 28.7713 8.7937C28.775 8.02993 28.8862 8.086 29.6317 8.08354ZM29.1209 8.21054C29.1209 15.5183 29.1209 22.8261 29.1209 30.3553C34.781 30.3553 40.4411 30.3553 46.2727 30.3553C46.2727 26.7383 46.2727 23.1213 46.2727 19.3948C44.2512 19.3579 42.2297 19.3209 40.147 19.2829C40.1103 15.629 40.0735 11.9751 40.0357 8.21054C36.4338 8.21054 32.8319 8.21054 29.1209 8.21054Z" fill="#191919"/>
<path d="M8.96281 8.21055C14.9904 8.21055 21.0181 8.21055 27.2284 8.21055C27.2284 10.6465 27.2284 13.0824 27.2284 15.5921C25.7214 15.5921 24.2145 15.5921 22.662 15.5921C22.662 15.9243 22.662 16.2565 22.662 16.5987C24.1689 16.5987 25.6758 16.5987 27.2284 16.5987C27.2284 18.9608 27.2284 21.3229 27.2284 23.7566C25.6112 23.7566 23.994 23.7566 22.3278 23.7566C22.3278 25.9342 22.3278 28.1118 22.3278 30.3553C19.0201 30.3598 19.0201 30.3598 17.392 30.3609C16.5097 30.3616 15.6274 30.3623 14.7452 30.3637C14.0469 30.3649 13.3486 30.3656 12.6503 30.3658C12.2804 30.366 11.9104 30.3664 11.5405 30.3671C11.1281 30.3679 10.7158 30.3681 10.3035 30.368C10.1182 30.3686 10.1182 30.3686 9.92914 30.3692C9.81747 30.3691 9.7058 30.3689 9.59074 30.3688C9.49311 30.3689 9.39547 30.369 9.29488 30.3691C9.07419 30.3553 9.07419 30.3553 8.96281 30.2435C8.95192 29.9592 8.94834 29.6779 8.94942 29.3936C8.94932 29.3035 8.94923 29.2134 8.94913 29.1206C8.94895 28.8165 8.94956 28.5124 8.95017 28.2082C8.9502 27.9911 8.95018 27.774 8.95012 27.557C8.95009 26.9657 8.95074 26.3743 8.95152 25.783C8.95221 25.1658 8.95228 24.5486 8.95241 23.9314C8.95276 22.7617 8.95367 21.592 8.95479 20.4223C8.95627 18.8424 8.95687 17.2624 8.95752 15.6824C8.95857 13.1918 8.96079 10.7012 8.96281 8.21055ZM9.18556 8.32239C9.18556 15.5563 9.18556 22.7903 9.18556 30.2435C13.449 30.2435 17.7125 30.2435 22.1051 30.2435C22.1418 28.1766 22.1786 26.1098 22.2165 23.9803C22.4392 23.6448 22.4392 23.6448 22.6436 23.6002C22.7262 23.5989 22.8088 23.5977 22.8939 23.5964C22.9889 23.5942 23.0838 23.592 23.1816 23.5897C23.3314 23.5886 23.3314 23.5886 23.4842 23.5875C23.576 23.5857 23.6677 23.5838 23.7622 23.5819C24.1054 23.5754 24.4487 23.5718 24.792 23.5679C25.9429 23.5506 25.9429 23.5506 27.117 23.5329C27.117 21.3185 27.117 19.104 27.117 16.8224C25.6101 16.8224 24.1032 16.8224 22.5506 16.8224C22.5506 16.3795 22.5506 15.9366 22.5506 15.4803C22.6816 15.4809 22.8126 15.4815 22.9476 15.4821C23.4318 15.4841 23.916 15.4854 24.4003 15.4864C24.6102 15.487 24.8201 15.4878 25.03 15.4887C25.3311 15.4901 25.6321 15.4907 25.9332 15.4912C26.0748 15.4921 26.0748 15.4921 26.2194 15.493C26.4443 15.493 26.6693 15.4872 26.8942 15.4803C27.0911 15.2826 27.0198 14.999 27.02 14.7313C27.0205 14.5269 27.0205 14.5269 27.0211 14.3185C27.0209 14.1687 27.0206 14.0189 27.0204 13.8691C27.0205 13.7165 27.0206 13.564 27.0207 13.4115C27.0209 13.0914 27.0206 12.7714 27.0201 12.4513C27.0195 12.0402 27.0199 11.6291 27.0205 11.218C27.0209 10.903 27.0208 10.5879 27.0205 10.2728C27.0204 10.1212 27.0205 9.96958 27.0208 9.81796C27.0211 9.6064 27.0206 9.39483 27.02 9.18327C27.0199 9.06266 27.0198 8.94204 27.0197 8.81778C27.0362 8.55181 27.0362 8.55181 26.8942 8.43423C26.6659 8.42203 26.4372 8.4178 26.2085 8.41654C26.1363 8.41599 26.0641 8.41543 25.9897 8.41487C25.7451 8.41314 25.5005 8.41221 25.256 8.41127C25.0787 8.41018 24.9013 8.40905 24.724 8.40787C24.2475 8.40483 23.771 8.40247 23.2945 8.40024C22.848 8.39805 22.4015 8.39526 21.955 8.39252C20.6477 8.38485 19.3403 8.37815 18.0329 8.37132C15.1133 8.35517 12.1937 8.33903 9.18556 8.32239Z" fill="#191919"/>
<path d="M8.7382 8.09883C14.8761 8.09883 21.014 8.09883 27.3379 8.09883C27.3379 10.6086 27.3379 13.1183 27.3379 15.7041C27.2265 15.8159 27.2265 15.8159 26.8253 15.8286C26.6468 15.8286 26.4683 15.828 26.2898 15.8269C26.196 15.8267 26.1022 15.8265 26.0056 15.8264C25.7049 15.8258 25.4041 15.8244 25.1034 15.8229C24.9 15.8224 24.6966 15.8219 24.4932 15.8214C23.9936 15.8202 23.4939 15.8182 22.9942 15.8159C22.9942 16.0005 22.9942 16.185 22.9942 16.3752C23.6088 16.3779 24.2233 16.3799 24.8378 16.3813C25.047 16.3819 25.2561 16.3826 25.4653 16.3836C25.7655 16.3849 26.0657 16.3856 26.3659 16.3861C26.4598 16.3867 26.5537 16.3872 26.6504 16.3878C27.1204 16.4013 27.1204 16.4013 27.5606 16.2633C27.5487 17.2365 27.5361 18.2096 27.5228 19.1828C27.5167 19.6346 27.5107 20.0865 27.5052 20.5383C27.4999 20.9742 27.4941 21.41 27.4879 21.8458C27.4856 22.0123 27.4835 22.1788 27.4816 22.3453C27.479 22.5781 27.4756 22.8108 27.4721 23.0435C27.4704 23.1761 27.4686 23.3087 27.4669 23.4454C27.4492 23.7567 27.4492 23.7567 27.3379 23.9804C25.7207 23.9804 24.1035 23.9804 22.4374 23.9804C22.4387 24.4393 22.4399 24.8982 22.4413 25.371C22.442 25.736 22.4426 26.101 22.4431 26.4659C22.4437 26.8517 22.4445 27.2375 22.4458 27.6233C22.4472 28.0655 22.4477 28.5077 22.4482 28.95C22.4488 29.0888 22.4494 29.2277 22.45 29.3708C22.45 29.4984 22.45 29.626 22.45 29.7575C22.4502 29.8705 22.4505 29.9835 22.4508 30.1C22.4374 30.3554 22.4374 30.3554 22.326 30.4673C22.1515 30.4782 21.9765 30.4814 21.8017 30.4815C21.6316 30.482 21.6316 30.482 21.4581 30.4824C21.27 30.4821 21.27 30.4821 21.078 30.4817C20.9467 30.4819 20.8155 30.4821 20.6802 30.4823C20.3192 30.4827 19.9581 30.4827 19.5971 30.4823C19.22 30.482 18.843 30.4823 18.4659 30.4825C17.8326 30.4827 17.1993 30.4824 16.566 30.4819C15.8328 30.4812 15.0996 30.4814 14.3664 30.4821C13.738 30.4826 13.1096 30.4826 12.4811 30.4823C12.1053 30.4822 11.7295 30.4821 11.3537 30.4825C10.935 30.4828 10.5163 30.4824 10.0975 30.4817C9.97211 30.482 9.84667 30.4822 9.71743 30.4824C9.60404 30.4821 9.49066 30.4818 9.37384 30.4815C9.27471 30.4814 9.17557 30.4814 9.07344 30.4813C8.84958 30.4673 8.84958 30.4673 8.7382 30.3554C8.72731 30.0683 8.72373 29.7842 8.72481 29.497C8.72471 29.4061 8.72462 29.3151 8.72452 29.2213C8.72434 28.9141 8.72495 28.6069 8.72556 28.2996C8.72559 28.0804 8.72557 27.8611 8.72551 27.6418C8.72548 27.0445 8.72613 26.4472 8.72691 25.8498C8.7276 25.2263 8.72767 24.6029 8.7278 23.9794C8.72815 22.7978 8.72907 21.6162 8.73018 20.4347C8.73166 18.8387 8.73226 17.2426 8.73291 15.6466C8.73396 13.1307 8.73618 10.6148 8.7382 8.09883ZM8.96095 8.21067C8.95771 12.1239 8.95771 12.1239 8.95551 16.0372C8.95485 17.632 8.95407 19.2269 8.95255 20.8217C8.95144 21.9829 8.95072 23.1442 8.95047 24.3055C8.95033 24.9208 8.94998 25.5361 8.94918 26.1514C8.94842 26.7298 8.94819 27.3082 8.94836 27.8866C8.94832 28.0996 8.9481 28.3125 8.94768 28.5255C8.94713 28.8149 8.94725 29.1043 8.94756 29.3937C8.94724 29.4791 8.94691 29.5645 8.94658 29.6525C8.91324 30.0362 8.91324 30.0362 9.07233 30.3554C9.24424 30.3662 9.41664 30.3691 9.58888 30.3689C9.70055 30.369 9.81222 30.3692 9.92728 30.3693C10.0508 30.3689 10.1743 30.3685 10.3016 30.3681C10.4955 30.3682 10.4955 30.3682 10.6934 30.3682C11.1231 30.3681 11.5528 30.3672 11.9824 30.3664C12.2794 30.3661 12.5764 30.366 12.8734 30.3659C13.5767 30.3655 14.28 30.3646 14.9833 30.3635C15.8623 30.3621 16.7412 30.3615 17.6202 30.3609C19.1888 30.3598 20.7574 30.3576 22.326 30.3554C22.326 28.1779 22.326 26.0003 22.326 23.7567C23.9432 23.7567 25.5603 23.7567 27.2265 23.7567C27.2265 21.3946 27.2265 19.0325 27.2265 16.5988C25.7196 16.5988 24.2127 16.5988 22.6601 16.5988C22.6601 16.2667 22.6601 15.9345 22.6601 15.5923C24.167 15.5923 25.6739 15.5923 27.2265 15.5923C27.2265 13.1563 27.2265 10.7204 27.2265 8.21067C21.1989 8.21067 15.1712 8.21067 8.96095 8.21067Z" fill="#191919"/>
<path d="M29.1208 8.09872C30.5711 8.09613 32.0213 8.09414 33.4715 8.09292C34.1449 8.09234 34.8182 8.09154 35.4915 8.09028C36.1407 8.08907 36.7899 8.0884 37.4391 8.0881C37.6874 8.0879 37.9357 8.08749 38.184 8.08689C38.5304 8.08608 38.8769 8.08597 39.2233 8.08602C39.3271 8.08562 39.4308 8.08522 39.5377 8.0848C40.2457 8.08596 40.2457 8.08596 40.3697 8.21056C40.3804 8.5476 40.3837 8.88206 40.3824 9.21913C40.3824 9.32496 40.3824 9.43079 40.3824 9.53983C40.3824 9.89143 40.3815 10.243 40.3806 10.5946C40.3804 10.8377 40.3803 11.0808 40.3801 11.3238C40.3797 11.965 40.3786 12.6061 40.3774 13.2473C40.3761 14.0158 40.3755 14.7843 40.3749 15.5529C40.3738 16.7217 40.3717 17.8905 40.3697 19.0593C42.3545 19.0593 44.3392 19.0593 46.384 19.0593C46.384 22.787 46.384 26.5147 46.384 30.3553C46.3473 30.3553 46.3105 30.3553 46.2726 30.3553C46.2726 26.7383 46.2726 23.1214 46.2726 19.3948C44.2617 19.3992 44.2617 19.3992 42.2508 19.4049C41.9998 19.4052 41.7488 19.4055 41.4979 19.4057C41.3003 19.4066 41.3003 19.4066 41.0988 19.4074C40.9744 19.4075 40.8501 19.4075 40.722 19.4075C40.6134 19.4077 40.5048 19.408 40.3929 19.4082C40.147 19.3948 40.147 19.3948 40.0356 19.2829C40.025 18.9391 40.0216 18.5977 40.023 18.2538C40.023 18.1458 40.0229 18.0378 40.0229 17.9265C40.023 17.5677 40.0239 17.2088 40.0247 16.8499C40.025 16.6018 40.0251 16.3538 40.0252 16.1057C40.0257 15.4513 40.0267 14.7969 40.028 14.1425C40.0293 13.3581 40.0298 12.5737 40.0305 11.7894C40.0316 10.5964 40.0337 9.40349 40.0356 8.21056C36.4337 8.21056 32.8319 8.21056 29.1208 8.21056C29.1208 8.17365 29.1208 8.13674 29.1208 8.09872Z" fill="#191919"/>
<path d="M66.0961 28.7895C66.3166 28.8633 66.5371 28.9371 66.7643 29.0131C66.7643 29.087 66.7643 29.1608 66.7643 29.2368C67.1319 29.3475 67.4994 29.4583 67.8781 29.5723C67.8781 29.6462 67.8781 29.72 67.8781 29.796C67.9918 29.7822 67.9918 29.7822 68.1078 29.7681C68.4805 29.7999 68.6893 29.9409 69.0018 30.1368C69.3577 30.3151 69.7123 30.3212 70.1056 30.3552C70.1607 30.4106 70.1607 30.4106 70.217 30.4671C70.9092 30.6021 71.5985 30.5982 72.3017 30.6019C72.4311 30.603 72.5605 30.6041 72.6938 30.6052C73.1199 30.6088 73.5459 30.6115 73.972 30.6143C74.268 30.6166 74.564 30.619 74.8601 30.6214C75.5586 30.6269 76.2571 30.632 76.9557 30.6368C77.7513 30.6423 78.547 30.6485 79.3426 30.6547C80.9785 30.6674 82.6144 30.6793 84.2502 30.6908C84.2135 30.5431 84.1767 30.3955 84.1389 30.2434C84.2491 30.2803 84.3594 30.3172 84.473 30.3552C84.3755 30.9005 84.3755 30.9005 84.2502 31.0263C84.0811 31.037 83.9116 31.0399 83.7421 31.0397C83.5774 31.04 83.5774 31.04 83.4094 31.0402C83.288 31.0398 83.1665 31.0394 83.0414 31.039C82.8507 31.039 82.8507 31.039 82.6562 31.039C82.2337 31.039 81.8113 31.0381 81.3888 31.0372C81.0969 31.037 80.8049 31.0369 80.5129 31.0367C79.8214 31.0364 79.1299 31.0355 78.4385 31.0344C77.6515 31.0331 76.8644 31.0325 76.0774 31.0319C74.458 31.0308 72.8387 31.0288 71.2193 31.0263C71.2193 30.9894 71.2193 30.9525 71.2193 30.9145C71.1402 30.8996 71.0611 30.8848 70.9796 30.8695C70.8772 30.8497 70.7749 30.83 70.6694 30.8096C70.5673 30.7901 70.4653 30.7707 70.3601 30.7506C70.1056 30.6908 70.1056 30.6908 69.9942 30.5789C69.8069 30.5529 69.6187 30.5328 69.4304 30.516C69.328 30.5066 69.2256 30.4973 69.1202 30.4876C69.0411 30.4808 68.962 30.4741 68.8805 30.4671C68.8805 30.3933 68.8805 30.3195 68.8805 30.2434C68.7633 30.2572 68.7633 30.2572 68.6438 30.2714C68.2175 30.2341 68.0092 30.0352 67.6553 29.796C67.3262 29.6665 66.9921 29.5604 66.6529 29.4605C66.6529 29.3498 66.6529 29.2391 66.6529 29.125C66.5817 29.1111 66.5105 29.0973 66.4372 29.083C66.3614 29.06 66.2855 29.0369 66.2074 29.0131C66.1707 28.9393 66.1339 28.8655 66.0961 28.7895Z" fill="#191919"/>
<path d="M58.5239 8.21055C58.8547 8.21055 59.1855 8.21055 59.5263 8.21055C59.5263 15.4814 59.5263 22.7523 59.5263 30.2435C59.4528 30.2435 59.3793 30.2435 59.3036 30.2435C59.169 29.838 59.1792 29.4699 59.183 29.0481C59.1834 28.9597 59.1837 28.8713 59.1841 28.7801C59.1854 28.4829 59.1876 28.1856 59.1898 27.8884C59.1909 27.6757 59.192 27.4629 59.193 27.2502C59.196 26.6719 59.1996 26.0935 59.2034 25.5152C59.2072 24.9111 59.2104 24.307 59.2136 23.7029C59.2199 22.5586 59.2267 21.4143 59.2338 20.2699C59.2417 18.9674 59.2491 17.6648 59.2564 16.3621C59.2714 13.6822 59.2872 11.0023 59.3036 8.32239C59.0463 8.3593 58.789 8.39621 58.5239 8.43423C58.5239 8.36042 58.5239 8.2866 58.5239 8.21055Z" fill="#191919"/>
<path d="M40.258 8.21055C40.2948 8.21055 40.3315 8.21055 40.3694 8.21055C40.3694 11.7906 40.3694 15.3707 40.3694 19.0592C42.3541 19.0592 44.3388 19.0592 46.3837 19.0592C46.3837 22.7869 46.3837 26.5147 46.3837 30.3553C46.3469 30.3553 46.3102 30.3553 46.2723 30.3553C46.2172 24.9298 46.2172 24.9298 46.1609 19.3948C44.26 19.3624 44.26 19.3624 42.359 19.3312C42.1217 19.327 41.8844 19.3227 41.6472 19.3183C41.5227 19.3165 41.3982 19.3146 41.27 19.3127C41.1524 19.3105 41.0348 19.3082 40.9137 19.3059C40.8111 19.3042 40.7084 19.3024 40.6027 19.3006C40.3694 19.2829 40.3694 19.2829 40.258 19.1711C40.2474 18.8306 40.2441 18.4927 40.2454 18.1522C40.2454 18.0453 40.2454 17.9384 40.2453 17.8282C40.2454 17.473 40.2463 17.1178 40.2472 16.7625C40.2474 16.517 40.2475 16.2714 40.2476 16.0258C40.2481 15.378 40.2492 14.7303 40.2504 14.0825C40.2515 13.4221 40.252 12.7617 40.2526 12.1012C40.2538 10.8043 40.2557 9.50744 40.258 8.21055Z" fill="#191919"/>
<path d="M78.125 23.533C78.5705 23.533 78.5705 23.533 78.7375 23.6815C78.7927 23.7525 78.8478 23.8234 78.9046 23.8965C79.2665 24.3375 79.6508 24.7444 80.0532 25.1477C80.1119 25.2072 80.1707 25.2667 80.2313 25.3281C80.5408 25.644 80.5408 25.644 80.9094 25.8817C80.9094 25.9924 80.9094 26.1031 80.9094 26.2172C81.0196 26.2172 81.1299 26.2172 81.2435 26.2172C81.2435 26.291 81.2435 26.3649 81.2435 26.4409C81.3905 26.4778 81.5375 26.5147 81.689 26.5527C81.4317 26.5158 81.1744 26.4789 80.9094 26.4409C80.8726 26.6624 80.8358 26.8838 80.798 27.112C80.6671 27.0083 80.5373 26.9032 80.4082 26.7974C80.3358 26.739 80.2634 26.6806 80.1889 26.6205C80.0184 26.4409 80.0184 26.4409 80.0184 26.1054C79.9533 26.0943 79.8882 26.0832 79.8212 26.0718C79.3532 25.9243 79.049 25.5247 78.7097 25.1827C78.632 25.1079 78.5544 25.033 78.4743 24.9559C78.401 24.8826 78.3276 24.8092 78.252 24.7336C78.1849 24.6669 78.1177 24.6003 78.0485 24.5316C77.8598 24.2533 77.858 24.0869 77.9022 23.7567C77.9757 23.6829 78.0492 23.6091 78.125 23.533Z" fill="#191919"/>
<path d="M90.3737 31.3492C90.571 31.3492 90.7684 31.3499 90.9657 31.351C91.0694 31.3512 91.1731 31.3513 91.2799 31.3515C91.6124 31.3521 91.9449 31.3535 92.2775 31.3549C92.5023 31.3555 92.7272 31.356 92.952 31.3565C93.5045 31.3577 94.0569 31.3596 94.6094 31.3619C94.6121 31.997 94.6141 32.6321 94.6155 33.2671C94.6161 33.4834 94.6168 33.6996 94.6178 33.9158C94.6191 34.2259 94.6198 34.536 94.6202 34.8461C94.6208 34.9433 94.6214 35.0406 94.622 35.1409C94.622 35.3725 94.6163 35.6041 94.6094 35.8356C94.498 35.9474 94.498 35.9474 94.0559 35.9601C93.8586 35.9601 93.6612 35.9595 93.4639 35.9584C93.3602 35.9582 93.2565 35.9581 93.1497 35.9579C92.8172 35.9573 92.4847 35.9559 92.1522 35.9544C91.9273 35.9539 91.7024 35.9534 91.4776 35.9529C90.9251 35.9517 90.3727 35.9497 89.8202 35.9474C89.8175 35.3124 89.8155 34.6773 89.8141 34.0422C89.8136 33.826 89.8128 33.6098 89.8118 33.3936C89.8105 33.0835 89.8099 32.7734 89.8094 32.4633C89.8088 32.366 89.8082 32.2687 89.8076 32.1685C89.8076 31.9369 89.8133 31.7053 89.8202 31.4738C89.9316 31.3619 89.9316 31.3619 90.3737 31.3492ZM90.1544 31.4738C90.1544 32.9132 90.1544 34.3526 90.1544 35.8356C91.551 35.8356 92.9477 35.8356 94.3866 35.8356C94.3866 34.3962 94.3866 32.9568 94.3866 31.4738C92.99 31.4738 91.5933 31.4738 90.1544 31.4738Z" fill="#191919"/>
<path d="M82.2463 12.4606C82.3566 12.4975 82.4669 12.5344 82.5805 12.5724C82.5805 12.6831 82.5805 12.7939 82.5805 12.9079C82.6907 12.9079 82.801 12.9079 82.9146 12.9079C83.0858 13.1945 83.1426 13.396 83.1861 13.7328C83.2282 14.1414 83.2282 14.1414 83.4227 14.4877C83.5877 14.8191 83.6148 15.0048 83.5828 15.3685C83.6931 15.4054 83.8034 15.4423 83.917 15.4803C84.5394 17.5985 84.5292 20.408 83.783 22.484C83.6075 23.0101 83.4882 23.5528 83.3601 24.0922C83.2866 24.0922 83.2131 24.0922 83.1373 24.0922C83.1373 24.2767 83.1373 24.4612 83.1373 24.6514C83.0638 24.6514 82.9903 24.6514 82.9146 24.6514C82.9146 24.799 82.9146 24.9466 82.9146 25.0987C82.8043 25.0987 82.6941 25.0987 82.5805 25.0987C82.5805 25.2095 82.5805 25.3202 82.5805 25.4343C82.507 25.3974 82.4334 25.3604 82.3577 25.3224C82.4105 25.2394 82.4634 25.1563 82.5178 25.0708C82.6672 24.8068 82.7489 24.6104 82.8032 24.3158C82.8767 24.3158 82.9502 24.3158 83.026 24.3158C83.0466 24.1982 83.0466 24.1982 83.0677 24.0782C83.1373 23.7566 83.1373 23.7566 83.2487 23.4421C83.3562 23.0982 83.4019 22.7732 83.4406 22.4158C83.5029 21.9619 83.6455 21.5328 83.8114 21.1075C83.9372 20.6658 83.947 20.2535 83.9426 19.7985C83.9426 19.7106 83.9425 19.6227 83.9425 19.5321C83.9421 19.3475 83.9413 19.1629 83.9399 18.9783C83.9378 18.6951 83.9376 18.4119 83.9376 18.1287C83.9371 17.949 83.9364 17.7693 83.9357 17.5896C83.9356 17.5048 83.9354 17.42 83.9353 17.3326C83.9397 16.8954 83.9397 16.8954 83.8056 16.4869C83.8011 16.2632 83.8008 16.0395 83.8056 15.8158C83.6953 15.7789 83.5851 15.742 83.4715 15.704C83.4715 15.5194 83.4715 15.3349 83.4715 15.1448C83.398 15.1448 83.3245 15.1448 83.2487 15.1448C83.2418 15.0364 83.2349 14.9279 83.2278 14.8162C83.1523 14.2625 82.8663 13.6423 82.4691 13.2435C82.4646 13.0571 82.4643 12.8706 82.4691 12.6842C82.3956 12.6842 82.3221 12.6842 82.2463 12.6842C82.2463 12.6104 82.2463 12.5366 82.2463 12.4606Z" fill="#191919"/>
<path d="M66.0961 28.7895C66.3166 28.8633 66.5371 28.9371 66.7643 29.0131C66.7643 29.087 66.7643 29.1608 66.7643 29.2368C67.1319 29.3475 67.4994 29.4583 67.8781 29.5723C67.8781 29.6462 67.8781 29.72 67.8781 29.796C67.9918 29.7822 67.9918 29.7822 68.1078 29.7681C68.4805 29.7999 68.6893 29.9409 69.0018 30.1368C69.3577 30.3151 69.7123 30.3212 70.1056 30.3552C70.1607 30.4106 70.1607 30.4106 70.217 30.4671C70.418 30.5086 70.6201 30.5451 70.8226 30.5789C71.4181 30.6787 71.4181 30.6787 71.6648 30.8026C71.8299 30.8129 71.9955 30.8162 72.161 30.8161C72.2653 30.8162 72.3696 30.8164 72.4771 30.8165C72.5919 30.8161 72.7067 30.8157 72.825 30.8153C72.9456 30.8153 73.0662 30.8153 73.1905 30.8154C73.5906 30.8153 73.9908 30.8144 74.3909 30.8135C74.6678 30.8133 74.9446 30.8132 75.2215 30.8131C75.8766 30.8127 76.5318 30.8118 77.187 30.8107C78.0059 30.8093 78.8249 30.8087 79.6438 30.8081C81.105 30.8069 82.5663 30.805 84.0275 30.8026C84.0642 30.6181 84.101 30.4335 84.1389 30.2434C84.2491 30.2803 84.3594 30.3172 84.473 30.3552C84.3755 30.9005 84.3755 30.9005 84.2502 31.0263C84.0811 31.037 83.9116 31.0399 83.7421 31.0397C83.5774 31.04 83.5774 31.04 83.4094 31.0402C83.288 31.0398 83.1665 31.0394 83.0414 31.039C82.8507 31.039 82.8507 31.039 82.6562 31.039C82.2337 31.039 81.8113 31.0381 81.3888 31.0372C81.0969 31.037 80.8049 31.0369 80.5129 31.0367C79.8214 31.0364 79.1299 31.0355 78.4385 31.0344C77.6515 31.0331 76.8644 31.0325 76.0774 31.0319C74.458 31.0308 72.8387 31.0288 71.2193 31.0263C71.2193 30.9894 71.2193 30.9525 71.2193 30.9145C71.1402 30.8996 71.0611 30.8848 70.9796 30.8695C70.8772 30.8497 70.7749 30.83 70.6694 30.8096C70.5673 30.7901 70.4653 30.7707 70.3601 30.7506C70.1056 30.6908 70.1056 30.6908 69.9942 30.5789C69.8069 30.5529 69.6187 30.5328 69.4304 30.516C69.328 30.5066 69.2256 30.4973 69.1202 30.4876C69.0411 30.4808 68.962 30.4741 68.8805 30.4671C68.8805 30.3933 68.8805 30.3195 68.8805 30.2434C68.7633 30.2572 68.7633 30.2572 68.6438 30.2714C68.2175 30.2341 68.0092 30.0352 67.6553 29.796C67.3262 29.6665 66.9921 29.5604 66.6529 29.4605C66.6529 29.3498 66.6529 29.2391 66.6529 29.125C66.5817 29.1111 66.5105 29.0973 66.4372 29.083C66.3614 29.06 66.2855 29.0369 66.2074 29.0131C66.1707 28.9393 66.1339 28.8655 66.0961 28.7895Z" fill="#191919"/>
<path d="M71.1277 7.2971C71.2505 7.29654 71.2505 7.29654 71.3758 7.29597C71.5507 7.2954 71.7256 7.29514 71.9005 7.29516C72.1611 7.29492 72.4216 7.29291 72.6822 7.29077C73.844 7.28654 74.9719 7.37735 76.1222 7.53957C76.1222 7.61339 76.1222 7.6872 76.1222 7.76326C76.2426 7.75504 76.2426 7.75504 76.3654 7.74665C76.7245 7.76566 76.9274 7.85946 77.2429 8.02888C77.3361 8.07819 77.4293 8.12749 77.5253 8.1783C77.6136 8.22587 77.7019 8.27345 77.7928 8.32247C77.8754 8.36082 77.9579 8.39917 78.043 8.43868C78.2383 8.54615 78.2383 8.54615 78.3497 8.76984C78.5427 8.84942 78.5427 8.84942 78.7395 8.93061C78.8682 8.98828 78.9968 9.04595 79.1293 9.10536C79.1845 9.27145 79.1845 9.27145 79.2407 9.44089C79.1672 9.44089 79.0937 9.44089 79.018 9.44089C79.018 9.36707 79.018 9.29326 79.018 9.2172C78.9554 9.20235 78.8928 9.18751 78.8283 9.17221C78.562 9.10264 78.304 9.01912 78.0434 8.93061C77.9544 8.90048 77.8654 8.87035 77.7737 8.8393C77.7065 8.81638 77.6393 8.79345 77.5701 8.76984C77.5701 8.69602 77.5701 8.6222 77.5701 8.54615C77.3863 8.54615 77.2025 8.54615 77.0132 8.54615C77.0132 8.43543 77.0132 8.3247 77.0132 8.21062C76.7192 8.21062 76.4251 8.21062 76.1222 8.21062C76.1222 8.13681 76.1222 8.06299 76.1222 7.98694C75.8649 7.98694 75.6076 7.98694 75.3426 7.98694C75.2874 7.82085 75.2874 7.82085 75.2312 7.65141C75.1246 7.65336 75.1246 7.65336 75.0158 7.65535C74.9238 7.65635 74.8318 7.65736 74.737 7.6584C74.5994 7.66035 74.5994 7.66035 74.459 7.66234C74.2288 7.65141 74.2288 7.65141 74.1174 7.53957C73.8961 7.52841 73.6743 7.52494 73.4527 7.52472C73.3179 7.52457 73.183 7.52443 73.0441 7.52428C72.9022 7.52471 72.7602 7.52514 72.6139 7.52559C72.4719 7.52516 72.3299 7.52473 72.1836 7.52428C72.0488 7.52442 71.914 7.52457 71.7751 7.52472C71.6504 7.52484 71.5257 7.52497 71.3972 7.5251C71.1179 7.50689 71.1179 7.50689 70.9989 7.65141C70.774 7.65952 70.5488 7.66078 70.3237 7.6584C70.2007 7.65739 70.0776 7.65638 69.9509 7.65535C69.8557 7.65405 69.7605 7.65275 69.6624 7.65141C69.6624 7.76214 69.6624 7.87286 69.6624 7.98694C69.3684 7.98694 69.0744 7.98694 68.7714 7.98694C68.7714 8.06076 68.7714 8.13457 68.7714 8.21062C68.6244 8.17372 68.4774 8.13681 68.3259 8.09878C68.891 7.78928 69.3871 7.58858 70.0205 7.47185C70.8056 7.29761 70.8056 7.29761 71.1277 7.2971Z" fill="#191919"/>
<path d="M83.0258 29.4605C83.3502 29.6112 83.6153 29.782 83.8889 30.0128C83.9573 30.0691 84.0256 30.1255 84.096 30.1836C84.2509 30.3553 84.2509 30.3553 84.2509 30.6908C82.5363 30.6934 80.8217 30.6954 79.1071 30.6966C78.3109 30.6972 77.5148 30.698 76.7186 30.6993C76.0245 30.7004 75.3304 30.7011 74.6363 30.7013C74.2689 30.7015 73.9015 30.7019 73.5342 30.7026C73.1236 30.7035 72.713 30.7036 72.3024 30.7035C72.1813 30.7039 72.0601 30.7043 71.9353 30.7047C70.3407 30.7026 70.3407 30.7026 70.1062 30.4671C69.8926 30.4464 69.8926 30.4464 69.6747 30.4252C69.3637 30.391 69.2439 30.3777 68.9925 30.1805C68.9557 30.1275 68.919 30.0744 68.8811 30.0198C69.6636 29.9662 70.5149 30.1131 71.22 30.4671C71.3851 30.4774 71.5507 30.4808 71.7161 30.4806C71.8204 30.4807 71.9248 30.4809 72.0322 30.481C72.147 30.4806 72.2618 30.4802 72.3801 30.4798C72.5007 30.4798 72.6213 30.4799 72.7456 30.4799C73.1458 30.4798 73.5459 30.4789 73.9461 30.4781C74.2229 30.4778 74.4998 30.4777 74.7766 30.4776C75.4318 30.4772 76.087 30.4763 76.7421 30.4752C77.5611 30.4738 78.38 30.4732 79.199 30.4726C80.6602 30.4714 82.1214 30.4695 83.5826 30.4671C83.4434 30.0586 83.3965 29.9324 83.0258 29.6842C83.0258 29.6104 83.0258 29.5366 83.0258 29.4605Z" fill="#191919"/>
<path d="M59.3043 8.43418C59.341 8.43418 59.3778 8.43418 59.4156 8.43418C59.4524 15.6312 59.4891 22.8283 59.527 30.2434C59.4535 30.2434 59.38 30.2434 59.3043 30.2434C59.1701 29.8392 59.1799 29.4728 59.1837 29.0523C59.1841 28.9643 59.1844 28.8764 59.1848 28.7857C59.1862 28.49 59.1883 28.1943 59.1905 27.8986C59.1916 27.687 59.1927 27.4754 59.1937 27.2638C59.1967 26.6884 59.2003 26.1131 59.2041 25.5377C59.2079 24.9368 59.2111 24.3358 59.2143 23.7349C59.2206 22.5965 59.2274 21.4581 59.2345 20.3197C59.2424 19.0239 59.2498 17.728 59.2571 16.4322C59.2721 13.7662 59.2879 11.1002 59.3043 8.43418Z" fill="#191919"/>
<path d="M40.0351 8.21055C40.0719 8.21055 40.1086 8.21055 40.1465 8.21055C40.1477 8.34621 40.1488 8.48188 40.15 8.62165C40.1609 9.89719 40.1723 11.1727 40.1843 12.4482C40.1905 13.1041 40.1964 13.7599 40.2019 14.4157C40.2072 15.0481 40.213 15.6804 40.2192 16.3128C40.2215 16.5546 40.2236 16.7965 40.2255 17.0383C40.2282 17.3758 40.2315 17.7132 40.235 18.0507C40.2357 18.1517 40.2363 18.2528 40.237 18.3569C40.1985 18.7995 40.1985 18.7995 40.3693 19.1711C40.5503 19.1848 40.732 19.191 40.9136 19.1941C41.0295 19.1963 41.1454 19.1985 41.2649 19.2008C41.391 19.2027 41.5171 19.2046 41.647 19.2065C41.8396 19.21 41.8396 19.21 42.0361 19.2135C42.4481 19.2209 42.86 19.2274 43.272 19.234C43.5505 19.2388 43.829 19.2437 44.1075 19.2486C44.7919 19.2606 45.4763 19.272 46.1608 19.2829C46.1608 19.3198 46.1608 19.3567 46.1608 19.3948C45.3063 19.3976 44.4518 19.3996 43.5973 19.4009C43.3064 19.4015 43.0154 19.4022 42.7245 19.4032C42.3073 19.4046 41.8902 19.4052 41.473 19.4057C41.342 19.4063 41.2111 19.4069 41.0761 19.4074C40.9557 19.4075 40.8353 19.4075 40.7112 19.4075C40.6047 19.4077 40.4981 19.408 40.3882 19.4082C40.1465 19.3948 40.1465 19.3948 40.0351 19.2829C40.0245 18.9391 40.0212 18.5977 40.0225 18.2538C40.0225 18.1458 40.0225 18.0378 40.0224 17.9265C40.0225 17.5677 40.0234 17.2088 40.0243 16.8499C40.0245 16.6018 40.0246 16.3538 40.0247 16.1057C40.0252 15.4513 40.0263 14.7969 40.0275 14.1425C40.0286 13.4753 40.0291 12.8082 40.0297 12.141C40.0309 10.8308 40.0328 9.52069 40.0351 8.21055Z" fill="#191919"/>
<path d="M61.0862 16.2631C61.1229 16.2631 61.1597 16.2631 61.1975 16.2631C61.1975 16.5583 61.1975 16.8536 61.1975 17.1578C61.124 17.1578 61.0505 17.1578 60.9748 17.1578C60.9748 18.1174 60.9748 19.077 60.9748 20.0657C61.0483 20.0657 61.1218 20.0657 61.1975 20.0657C61.2343 20.5824 61.271 21.0991 61.3089 21.6315C61.3824 21.6315 61.4559 21.6315 61.5317 21.6315C61.5384 21.7058 61.5452 21.78 61.5521 21.8565C61.6206 22.5877 61.6206 22.5877 61.7544 23.3091C61.8279 23.3091 61.9014 23.3091 61.9772 23.3091C62.0139 23.4937 62.0507 23.6782 62.0885 23.8684C62.162 23.8684 62.2356 23.8684 62.3113 23.8684C62.3113 24.016 62.3113 24.1636 62.3113 24.3157C62.3848 24.3157 62.4583 24.3157 62.534 24.3157C62.5639 24.4334 62.5938 24.551 62.6245 24.6722C62.7434 25.0554 62.8757 25.3246 63.0909 25.6578C63.1668 25.8061 63.2416 25.955 63.3137 26.1052C62.6351 25.6456 62.3656 25.0803 62.0885 24.3157C62.0885 24.2419 62.0885 24.1681 62.0885 24.092C62.015 24.092 61.9415 24.092 61.8658 24.092C61.7192 23.6872 61.643 23.4103 61.643 22.9736C61.5695 22.9736 61.496 22.9736 61.4203 22.9736C60.8314 20.9075 60.7981 18.9492 60.8634 16.8223C60.9369 16.8223 61.0104 16.8223 61.0862 16.8223C61.0862 16.6378 61.0862 16.4532 61.0862 16.2631Z" fill="#191919"/>
<path d="M64.7604 10.1119C64.8339 10.1488 64.9074 10.1857 64.9832 10.2238C64.9282 10.2657 64.8732 10.3077 64.8165 10.3509C64.3679 10.7108 64.1947 10.8805 64.0922 11.454C63.9278 11.5939 63.7629 11.7335 63.591 11.8638C63.3351 12.0927 63.2202 12.3714 63.0898 12.6843C62.9795 12.6843 62.8693 12.6843 62.7557 12.6843C62.6821 12.9796 62.6086 13.2748 62.5329 13.579C62.4594 13.579 62.3859 13.579 62.3102 13.579C62.2964 13.6436 62.2826 13.7082 62.2684 13.7747C62.1981 14.029 62.0998 14.2417 61.976 14.4738C61.9025 14.4738 61.829 14.4738 61.7533 14.4738C61.7418 14.5614 61.7303 14.6491 61.7185 14.7394C61.6201 15.2603 61.4659 15.7579 61.3078 16.2632C61.1883 15.8973 61.2084 15.656 61.3008 15.2846C61.3225 15.1952 61.3442 15.1058 61.3665 15.0138C61.3839 14.9463 61.4013 14.8788 61.4192 14.8093C61.4927 14.8093 61.5662 14.8093 61.6419 14.8093C61.6419 14.5878 61.6419 14.3664 61.6419 14.1382C61.7522 14.0829 61.7522 14.0829 61.8647 14.0264C62.0799 13.7022 62.2483 13.3638 62.4146 13.0128C62.5924 12.6474 62.7918 12.4037 63.0898 12.1251C63.1265 12.0144 63.1633 11.9036 63.2012 11.7895C63.2747 11.7895 63.3482 11.7895 63.4239 11.7895C63.5437 11.4929 63.6572 11.1986 63.758 10.8948C63.9599 10.7192 63.9599 10.7192 64.2035 10.5453C64.4944 10.3434 64.4944 10.3434 64.7604 10.1119Z" fill="#191919"/>
<path d="M75.2307 7.65137C75.5316 7.70468 75.8062 7.76999 76.0939 7.87505C76.4021 7.97028 76.6336 8.00617 76.9501 8.02883C77.478 8.07817 77.8022 8.24537 78.2378 8.54611C78.2746 8.61992 78.3114 8.69374 78.3492 8.76979C78.5422 8.84937 78.5422 8.84937 78.739 8.93056C78.8677 8.98823 78.9963 9.0459 79.1288 9.10532C79.184 9.2714 79.184 9.2714 79.2402 9.44084C79.1667 9.44084 79.0932 9.44084 79.0175 9.44084C79.0175 9.36703 79.0175 9.29321 79.0175 9.21716C78.9549 9.20231 78.8923 9.18746 78.8278 9.17216C78.5615 9.10259 78.3035 9.01907 78.0429 8.93056C77.9539 8.90043 77.8649 8.8703 77.7732 8.83925C77.706 8.81633 77.6388 8.79341 77.5696 8.76979C77.5696 8.69597 77.5696 8.62216 77.5696 8.54611C77.3858 8.54611 77.2021 8.54611 77.0127 8.54611C77.0127 8.43538 77.0127 8.32466 77.0127 8.21058C76.7187 8.21058 76.4247 8.21058 76.1217 8.21058C76.1217 8.13676 76.1217 8.06295 76.1217 7.98689C75.8644 7.98689 75.6072 7.98689 75.3421 7.98689C75.3053 7.87617 75.2686 7.76545 75.2307 7.65137Z" fill="#191919"/>
<path d="M66.0961 28.7895C66.3166 28.8633 66.5371 28.9371 66.7643 29.0131C66.7643 29.087 66.7643 29.1608 66.7643 29.2368C67.1319 29.3475 67.4994 29.4583 67.8781 29.5723C67.8781 29.6462 67.8781 29.72 67.8781 29.796C67.9918 29.7822 67.9918 29.7822 68.1078 29.7681C68.4805 29.7999 68.6893 29.9409 69.0018 30.1368C69.3577 30.3151 69.7123 30.3212 70.1056 30.3552C70.1607 30.4106 70.1607 30.4106 70.217 30.4671C70.4763 30.5082 70.7362 30.5456 70.9966 30.5789C70.9966 30.6158 70.9966 30.6527 70.9966 30.6908C70.3114 30.7017 70.3114 30.7017 70.1056 30.6908C70.0688 30.6539 70.0321 30.617 69.9942 30.5789C69.8069 30.5529 69.6187 30.5328 69.4304 30.516C69.328 30.5066 69.2256 30.4973 69.1202 30.4876C69.0411 30.4808 68.962 30.4741 68.8805 30.4671C68.8805 30.3933 68.8805 30.3195 68.8805 30.2434C68.7633 30.2572 68.7633 30.2572 68.6438 30.2714C68.2175 30.2341 68.0092 30.0352 67.6553 29.796C67.3262 29.6665 66.9921 29.5604 66.6529 29.4605C66.6529 29.3498 66.6529 29.2391 66.6529 29.125C66.5817 29.1111 66.5105 29.0973 66.4372 29.083C66.3614 29.06 66.2855 29.0369 66.2074 29.0131C66.1707 28.9393 66.1339 28.8655 66.0961 28.7895Z" fill="#191919"/>
<path d="M71.1574 7.18215C71.2677 7.18247 71.378 7.18278 71.4916 7.18311C71.8423 7.18436 72.1929 7.18716 72.5435 7.19001C72.7819 7.19114 73.0203 7.19216 73.2587 7.19307C73.8417 7.19553 74.4247 7.19927 75.0077 7.20399C75.0077 7.31472 75.0077 7.42544 75.0077 7.53952C74.8976 7.52145 74.7876 7.50339 74.6742 7.48477C74.2253 7.42068 73.7795 7.40961 73.3266 7.40889C73.243 7.40852 73.1595 7.40815 73.0734 7.40776C72.8978 7.4072 72.7222 7.40694 72.5466 7.40695C72.2797 7.40671 72.0129 7.40467 71.746 7.40256C71.5745 7.40223 71.4029 7.40201 71.2314 7.4019C71.1132 7.4007 71.1132 7.4007 70.9926 7.39947C70.4758 7.40182 70.0407 7.49257 69.5503 7.65136C69.3651 7.69092 69.1797 7.7292 68.9934 7.76321C69.5382 7.09456 70.3746 7.17364 71.1574 7.18215Z" fill="#191919"/>
<path d="M83.0271 29.4605C83.3515 29.6112 83.6167 29.782 83.8903 30.0128C83.9928 30.0973 83.9928 30.0973 84.0974 30.1836C84.2522 30.3553 84.2522 30.3553 84.2522 30.6908C83.2599 30.6908 82.2675 30.6908 81.2451 30.6908C81.2451 30.6539 81.2451 30.617 81.2451 30.579C82.4029 30.5236 82.4029 30.5236 83.584 30.4671C83.4196 29.9012 83.4196 29.9012 83.0271 29.6842C83.0271 29.6104 83.0271 29.5366 83.0271 29.4605Z" fill="#191919"/>
<path d="M80.7992 27.1119C80.983 27.1119 81.1667 27.1119 81.3561 27.1119C81.4043 27.2203 81.4525 27.3287 81.5023 27.4404C81.6569 27.8139 81.6569 27.8139 82.0243 27.8948C82.2401 28.0754 82.3674 28.2454 82.5116 28.4889C82.7273 28.8472 82.9776 29.1433 83.2494 29.4605C82.8651 29.2945 82.6159 29.0754 82.3219 28.7786C82.2329 28.689 82.1439 28.5994 82.0522 28.507C81.9603 28.4134 81.8684 28.3198 81.7737 28.2233C81.6801 28.1292 81.5865 28.0351 81.4901 27.9382C80.7992 27.2394 80.7992 27.2394 80.7992 27.1119Z" fill="#191919"/>
<path d="M84.1409 17.3816C84.2511 17.4185 84.3614 17.4555 84.475 17.4935C84.475 18.4162 84.475 19.3389 84.475 20.2895C84.4015 20.3264 84.328 20.3634 84.2522 20.4014C84.2155 19.4049 84.1787 18.4083 84.1409 17.3816Z" fill="#191919"/>
<path d="M61.7543 14.4738C61.9014 14.4738 62.0484 14.4738 62.1998 14.4738C62.1998 14.5846 62.1998 14.6953 62.1998 14.8094C62.2733 14.8094 62.3469 14.8094 62.4226 14.8094C62.3858 14.9939 62.3491 15.1784 62.3112 15.3686C62.1274 15.4055 61.9437 15.4424 61.7543 15.4804C61.6808 15.7388 61.6073 15.9971 61.5316 16.2633C61.4581 16.2633 61.3846 16.2633 61.3088 16.2633C61.422 15.6517 61.5395 15.0594 61.7543 14.4738Z" fill="#191919"/>
<path d="M64.7617 10.1119C64.8352 10.1488 64.9087 10.1857 64.9844 10.2238C64.9294 10.2657 64.8744 10.3077 64.8178 10.3509C64.3691 10.7108 64.1959 10.8805 64.0934 11.454C63.9291 11.5939 63.7642 11.7335 63.5922 11.8638C63.3363 12.0927 63.2215 12.3714 63.091 12.6843C63.0175 12.6474 62.944 12.6105 62.8683 12.5724C63.0337 12.1849 63.0337 12.1849 63.2024 11.7895C63.2759 11.7895 63.3494 11.7895 63.4252 11.7895C63.5449 11.4929 63.6584 11.1986 63.7593 10.8948C63.9612 10.7192 63.9612 10.7192 64.2048 10.5453C64.4956 10.3434 64.4956 10.3434 64.7617 10.1119Z" fill="#191919"/>
<path d="M68.8811 30.0199C69.6152 29.9696 70.3004 30.1239 70.9972 30.3554C71.0707 30.4292 71.1442 30.503 71.22 30.5791C71.0553 30.5821 70.8905 30.5843 70.7258 30.5861C70.5881 30.588 70.5881 30.588 70.4478 30.59C70.2176 30.5791 70.2176 30.5791 70.1062 30.4672C69.8926 30.4465 69.8926 30.4465 69.6747 30.4253C69.3637 30.3912 69.2439 30.3779 68.9925 30.1806C68.9557 30.1276 68.919 30.0745 68.8811 30.0199Z" fill="#191919"/>
<path d="M83.4707 22.8619C83.5074 22.8619 83.5442 22.8619 83.5821 22.8619C83.6088 23.319 83.5178 23.6646 83.3593 24.0922C83.2858 24.0922 83.2123 24.0922 83.1366 24.0922C83.1366 24.2767 83.1366 24.4613 83.1366 24.6514C83.0631 24.6514 82.9895 24.6514 82.9138 24.6514C82.9138 24.799 82.9138 24.9467 82.9138 25.0988C82.8035 25.0988 82.6933 25.0988 82.5797 25.0988C82.5797 25.2095 82.5797 25.3202 82.5797 25.4343C82.5062 25.3974 82.4327 25.3605 82.3569 25.3224C82.4098 25.2394 82.4626 25.1564 82.517 25.0708C82.6664 24.8068 82.7481 24.6104 82.8024 24.3159C82.8759 24.3159 82.9494 24.3159 83.0252 24.3159C83.0367 24.242 83.0482 24.1682 83.06 24.0922C83.158 23.6629 83.3114 23.2723 83.4707 22.8619Z" fill="#191919"/>
<path d="M67.9908 8.21055C67.9908 8.32127 67.9908 8.432 67.9908 8.54608C67.807 8.54608 67.6232 8.54608 67.4339 8.54608C67.4339 8.61989 67.4339 8.69371 67.4339 8.76976C67.3604 8.76976 67.2869 8.76976 67.2111 8.76976C67.2111 8.84358 67.2111 8.91739 67.2111 8.99344C66.9906 8.99344 66.7701 8.99344 66.5429 8.99344C66.5429 9.06726 66.5429 9.14108 66.5429 9.21713C66.4694 9.21713 66.3959 9.21713 66.3201 9.21713C66.3201 9.32785 66.3201 9.43858 66.3201 9.55266C66.1731 9.51575 66.0261 9.47884 65.8746 9.44081C66.3582 8.68069 67.1674 8.46496 67.9908 8.21055Z" fill="#191919"/>
<path d="M71.1103 7.42755C71.0736 7.50136 71.0368 7.57518 70.9989 7.65123C70.5579 7.65123 70.1168 7.65123 69.6624 7.65123C69.6624 7.76196 69.6624 7.87268 69.6624 7.98676C69.3684 7.98676 69.0744 7.98676 68.7714 7.98676C68.7714 8.06057 68.7714 8.13439 68.7714 8.21044C68.6244 8.17354 68.4774 8.13663 68.3259 8.0986C69.2015 7.60089 70.0973 7.37256 71.1103 7.42755Z" fill="#191919"/>
<path d="M61.0855 16.2632C61.1223 16.2632 61.1591 16.2632 61.1969 16.2632C61.1969 16.5584 61.1969 16.8537 61.1969 17.1579C61.1234 17.1579 61.0499 17.1579 60.9742 17.1579C60.9742 18.2282 60.9742 19.2986 60.9742 20.4013C60.9374 20.4013 60.9007 20.4013 60.8628 20.4013C60.8628 19.2203 60.8628 18.0392 60.8628 16.8224C60.9363 16.8224 61.0098 16.8224 61.0855 16.8224C61.0855 16.6378 61.0855 16.4533 61.0855 16.2632Z" fill="#191919"/>
<path d="M78.1257 23.5329C78.2727 23.5329 78.4198 23.5329 78.5712 23.5329C78.6447 23.6806 78.7182 23.8282 78.794 23.9803C78.6102 23.9434 78.4264 23.9065 78.2371 23.8684C78.2003 23.9792 78.1636 24.0899 78.1257 24.204C78.3095 24.3147 78.4933 24.4254 78.6826 24.5395C78.6459 24.6871 78.6091 24.8348 78.5712 24.9869C77.9223 24.4225 77.9223 24.4225 77.8473 24.0083C77.903 23.7566 77.903 23.7566 78.1257 23.5329Z" fill="#191919"/>
<path d="M61.1964 16.2632C61.2331 16.2632 61.2699 16.2632 61.3078 16.2632C61.33 17.9099 61.33 17.9099 61.1964 18.5C61.1229 18.5369 61.0494 18.5738 60.9736 18.6119C60.9736 18.1321 60.9736 17.6523 60.9736 17.1579C61.0471 17.1579 61.1206 17.1579 61.1964 17.1579C61.1964 16.8627 61.1964 16.5674 61.1964 16.2632Z" fill="#191919"/>
<path d="M80.5767 25.7697C80.6869 25.8066 80.7972 25.8435 80.9108 25.8816C80.9108 25.9923 80.9108 26.103 80.9108 26.2171C81.0211 26.2171 81.1313 26.2171 81.2449 26.2171C81.2449 26.2909 81.2449 26.3647 81.2449 26.4408C81.3919 26.4777 81.539 26.5146 81.6904 26.5526C81.4332 26.5157 81.1759 26.4788 80.9108 26.4408C80.8741 26.6622 80.8373 26.8837 80.7994 27.1118C80.6157 26.9273 80.4319 26.7428 80.2426 26.5526C80.4263 26.5526 80.6101 26.5526 80.7994 26.5526C80.7994 26.3681 80.7994 26.1835 80.7994 25.9934C80.7259 25.9934 80.6524 25.9934 80.5767 25.9934C80.5767 25.9196 80.5767 25.8458 80.5767 25.7697Z" fill="#191919"/>
<path d="M68.1014 29.908C68.2663 29.9425 68.431 29.9775 68.5957 30.0129C68.6874 30.0323 68.7792 30.0518 68.8737 30.0718C69.1038 30.1317 69.1038 30.1317 69.2152 30.2435C69.3631 30.2666 69.5118 30.2845 69.6607 30.2995C70.0938 30.3429 70.0938 30.3429 70.2176 30.4672C70.4769 30.5083 70.7368 30.5458 70.9972 30.5791C70.9972 30.616 70.9972 30.6529 70.9972 30.6909C70.312 30.7018 70.312 30.7018 70.1062 30.6909C70.0694 30.654 70.0327 30.6171 69.9948 30.5791C69.8075 30.553 69.6193 30.5329 69.431 30.5161C69.3286 30.5068 69.2263 30.4974 69.1208 30.4877C69.0021 30.4776 69.0021 30.4776 68.8811 30.4672C68.8811 30.3934 68.8811 30.3196 68.8811 30.2435C68.7501 30.2539 68.7501 30.2539 68.6166 30.2645C68.5201 30.2576 68.4236 30.2507 68.3242 30.2435C68.2507 30.1328 68.1772 30.0221 68.1014 29.908Z" fill="#191919"/>
<path d="M65.095 27.8947C65.4258 27.9501 65.4258 27.9501 65.7632 28.0066C65.7632 28.1173 65.7632 28.228 65.7632 28.3421C66.0205 28.3421 66.2778 28.3421 66.5428 28.3421C66.4326 28.3975 66.4326 28.3975 66.3201 28.4539C66.3201 28.5647 66.3201 28.6754 66.3201 28.7895C65.6889 28.6421 65.4665 28.3995 65.095 27.8947Z" fill="#191919"/>
<path d="M65.8737 9.10527C65.9839 9.14218 66.0942 9.17909 66.2078 9.21712C66.0668 9.3459 65.9251 9.47391 65.7832 9.60157C65.7044 9.67294 65.6255 9.7443 65.5443 9.81783C65.3168 10 65.3168 10 64.9827 10.1119C64.9827 9.92731 64.9827 9.74278 64.9827 9.55264C65.1297 9.55264 65.2767 9.55264 65.4282 9.55264C65.4282 9.47883 65.4282 9.40501 65.4282 9.32896C65.5752 9.32896 65.7222 9.32896 65.8737 9.32896C65.8737 9.25514 65.8737 9.18133 65.8737 9.10527Z" fill="#191919"/>
<path d="M77.1238 8.09883C77.5641 8.162 77.8719 8.29119 78.2375 8.5462C78.2743 8.62001 78.311 8.69383 78.3489 8.76988C78.4775 8.82294 78.6062 8.87599 78.7387 8.93065C78.9317 9.01716 78.9317 9.01716 79.1285 9.10541C79.1653 9.21613 79.202 9.32686 79.2399 9.44093C79.1664 9.44093 79.0929 9.44093 79.0172 9.44093C79.0172 9.36712 79.0172 9.2933 79.0172 9.21725C78.9597 9.20802 78.9023 9.1988 78.8431 9.18929C78.2212 8.99712 77.6526 8.58627 77.1238 8.21067C77.1238 8.17376 77.1238 8.13685 77.1238 8.09883Z" fill="#191919"/>
<path d="M68.9947 7.76312C68.445 8.20892 67.9169 8.46182 67.2126 8.54601C67.2126 8.4722 67.2126 8.39838 67.2126 8.32233C67.3597 8.32233 67.5067 8.32233 67.6581 8.32233C67.6581 8.2116 67.6581 8.10088 67.6581 7.9868C68.1234 7.80882 68.497 7.73932 68.9947 7.76312Z" fill="#191919"/>
<path d="M70.9286 7.19007C71.0515 7.19158 71.0515 7.19158 71.177 7.19312C71.3773 7.19574 71.5775 7.19975 71.7778 7.20405C71.7778 7.24095 71.7778 7.27786 71.7778 7.31589C71.6823 7.32137 71.5868 7.32685 71.4885 7.33249C70.809 7.37711 70.196 7.43526 69.5503 7.65141C69.3651 7.69098 69.1797 7.72925 68.9934 7.76326C69.4891 7.15482 70.2092 7.17308 70.9286 7.19007Z" fill="#191919"/>
<path d="M83.9166 20.7369C83.9534 20.7369 83.9901 20.7369 84.028 20.7369C83.9722 21.2413 83.9031 21.7404 83.8122 22.2398C83.7951 22.3342 83.778 22.4286 83.7604 22.5259C83.7384 22.5999 83.7165 22.6738 83.6938 22.75C83.6203 22.787 83.5468 22.8239 83.4711 22.8619C83.434 22.0986 83.6738 21.451 83.9166 20.7369Z" fill="#191919"/>
<path d="M82.2463 12.4606C82.3566 12.4975 82.4669 12.5344 82.5805 12.5724C82.5805 12.6831 82.5805 12.7939 82.5805 12.9079C82.6907 12.9079 82.801 12.9079 82.9146 12.9079C83.0738 13.1713 83.147 13.2972 83.0956 13.6069C83.0726 13.6715 83.0496 13.7361 83.026 13.8027C82.4777 13.3209 82.4777 13.3209 82.4343 12.9289C82.4458 12.8482 82.4573 12.7674 82.4691 12.6842C82.3956 12.6842 82.3221 12.6842 82.2463 12.6842C82.2463 12.6104 82.2463 12.5366 82.2463 12.4606Z" fill="#191919"/>
<path d="M75.1187 7.53949C75.4494 7.53949 75.7802 7.53949 76.121 7.53949C76.121 7.61331 76.121 7.68712 76.121 7.76317C76.2037 7.75625 76.2864 7.74933 76.3716 7.7422C76.7285 7.76663 76.8606 7.86411 77.1234 8.0987C76.5529 8.14062 76.1913 7.99858 75.6755 7.76317C75.366 7.68585 75.366 7.68585 75.1187 7.65133C75.1187 7.61442 75.1187 7.57752 75.1187 7.53949Z" fill="#191919"/>
<path d="M77.6805 23.7566C77.754 23.7566 77.8276 23.7566 77.9033 23.7566C77.9309 23.8558 77.9584 23.955 77.9868 24.0572C78.1304 24.4394 78.3042 24.6827 78.5715 24.9869C78.351 24.9131 78.1305 24.8393 77.9033 24.7632C77.9033 24.6894 77.9033 24.6156 77.9033 24.5395C77.8298 24.5395 77.7563 24.5395 77.6805 24.5395C77.6805 24.2812 77.6805 24.0228 77.6805 23.7566Z" fill="#191919"/>
<path d="M78.2385 23.7566C78.5142 23.8674 78.5142 23.8674 78.7954 23.9803C78.7954 24.091 78.7954 24.2018 78.7954 24.3158C78.5935 24.3858 78.5935 24.3858 78.3499 24.4277C78.2396 24.3539 78.1293 24.2801 78.0157 24.204C78.0893 24.0564 78.1628 23.9087 78.2385 23.7566Z" fill="#191919"/>
<path d="M83.2485 22.8619C83.322 22.8619 83.3955 22.8619 83.4712 22.8619C83.4179 23.0413 83.3645 23.2208 83.3111 23.4002C83.2814 23.5001 83.2517 23.6 83.2211 23.7029C83.1589 23.9082 83.0933 24.1123 83.0257 24.3159C82.9522 24.3159 82.8787 24.3159 82.803 24.3159C82.8397 24.0206 82.8765 23.7253 82.9144 23.4211C83.0246 23.3842 83.1349 23.3473 83.2485 23.3093C83.2485 23.1617 83.2485 23.014 83.2485 22.8619Z" fill="#191919"/>
<path d="M83.1382 13.8027C83.2484 13.8027 83.3587 13.8027 83.4723 13.8027C83.5826 14.3194 83.6928 14.8361 83.8064 15.3685C83.7329 15.3685 83.6594 15.3685 83.5837 15.3685C83.5302 15.1914 83.4769 15.0143 83.4236 14.8372C83.3939 14.7386 83.3641 14.64 83.3335 14.5384C83.2624 14.2942 83.1975 14.05 83.1382 13.8027Z" fill="#191919"/>
<path d="M83.5826 15.3684C83.6929 15.4053 83.8032 15.4422 83.9168 15.4802C84.1435 16.0476 84.1651 16.6663 84.1395 17.2697C84.1028 17.2697 84.066 17.2697 84.0281 17.2697C83.8811 16.6422 83.7341 16.0148 83.5826 15.3684Z" fill="#191919"/>
<path d="M81.0217 10.3355C81.1702 10.6338 81.3187 10.932 81.4672 11.2303C81.0445 11.0635 80.8423 10.8101 80.5762 10.4474C80.7232 10.4105 80.8702 10.3736 81.0217 10.3355Z" fill="#191919"/>
<path d="M65.0947 10C65.1314 10.0738 65.1682 10.1476 65.206 10.2237C65.0251 10.5522 65.0251 10.5522 64.7605 10.8947C64.3986 10.9926 64.3986 10.9926 64.0923 11.0066C64.4264 10.6711 64.7605 10.3355 65.0947 10Z" fill="#191919"/>
<path d="M83.026 29.4605C83.5037 29.6382 83.7303 29.9562 84.0284 30.3553C84.0284 30.4291 84.0284 30.5029 84.0284 30.579C83.8195 30.558 83.8195 30.558 83.5829 30.4671C83.503 30.2831 83.4288 30.0965 83.3601 29.9079C83.2499 29.8341 83.1396 29.7603 83.026 29.6842C83.026 29.6104 83.026 29.5366 83.026 29.4605Z" fill="#191919"/>
<path d="M62.3111 12.6842C62.4214 12.7211 62.5316 12.758 62.6452 12.796C62.4312 13.2581 62.195 13.6385 61.8656 14.0263C61.8656 13.8417 61.8656 13.6572 61.8656 13.4671C61.9391 13.4671 62.0126 13.4671 62.0884 13.4671C62.0884 13.3564 62.0884 13.2456 62.0884 13.1316C62.1619 13.1316 62.2354 13.1316 62.3111 13.1316C62.3111 12.9839 62.3111 12.8363 62.3111 12.6842Z" fill="#191919"/>
<path d="M65.7632 9.55273C65.8735 9.58964 65.9837 9.62655 66.0973 9.66458C65.9512 9.83234 65.9512 9.83234 65.7632 10.0001C65.653 10.0001 65.5427 10.0001 65.4291 10.0001C65.3556 10.1477 65.2821 10.2954 65.2063 10.4475C65.1696 10.3737 65.1328 10.2998 65.095 10.2238C65.5126 9.67856 65.5126 9.67856 65.7632 9.55273Z" fill="#191919"/>
<path d="M73.6698 7.42773C73.741 7.44388 73.8122 7.46003 73.8856 7.47667C74.3312 7.55885 74.7785 7.6051 75.2291 7.65142C75.2291 7.68833 75.2291 7.72523 75.2291 7.76326C74.7145 7.76326 74.1999 7.76326 73.6698 7.76326C73.6698 7.65254 73.6698 7.54181 73.6698 7.42773Z" fill="#191919"/>
<path d="M66.988 29.2369C67.3642 29.297 67.7339 29.3611 68.1018 29.4606C68.1018 29.5344 68.1018 29.6082 68.1018 29.6843C68.1753 29.7212 68.2488 29.7581 68.3245 29.7961C68.1775 29.7961 68.0305 29.7961 67.879 29.7961C67.879 29.7223 67.879 29.6485 67.879 29.5724C67.794 29.5794 67.7091 29.5863 67.6215 29.5934C67.3222 29.5724 67.3222 29.5724 67.1203 29.4047C67.0548 29.3216 67.0548 29.3216 66.988 29.2369Z" fill="#191919"/>
<path d="M79.5736 25.9935C79.7755 26.0074 79.7755 26.0074 80.0191 26.1053C80.214 26.4478 80.214 26.4478 80.3532 26.7764C80.1327 26.8871 80.1327 26.8871 79.9077 27C79.871 26.7417 79.8342 26.4833 79.7964 26.2171C79.7229 26.2171 79.6493 26.2171 79.5736 26.2171C79.5736 26.1433 79.5736 26.0695 79.5736 25.9935Z" fill="#191919"/>
<path d="M76.6779 8.09873C77.2074 8.16319 77.5656 8.38401 78.0144 8.65794C77.8673 8.69485 77.7203 8.73176 77.5689 8.76979C77.5689 8.69597 77.5689 8.62215 77.5689 8.5461C77.3851 8.5461 77.2013 8.5461 77.012 8.5461C77.012 8.43538 77.012 8.32465 77.012 8.21057C76.9017 8.17367 76.7915 8.13676 76.6779 8.09873Z" fill="#191919"/>
<path d="M64.4276 27.4475C64.9037 27.6245 65.1254 27.9514 65.43 28.3422C65.283 28.3422 65.136 28.3422 64.9845 28.3422C64.8035 28.0836 64.8035 28.0836 64.6504 27.783C64.5769 27.6723 64.5033 27.5615 64.4276 27.4475Z" fill="#191919"/>
<path d="M61.0855 16.2632C61.1223 16.2632 61.1591 16.2632 61.1969 16.2632C61.1969 16.5584 61.1969 16.8537 61.1969 17.1579C61.1234 17.1579 61.0499 17.1579 60.9742 17.1579C60.9742 17.3424 60.9742 17.527 60.9742 17.7171C60.9374 17.7171 60.9007 17.7171 60.8628 17.7171C60.8628 17.4219 60.8628 17.1266 60.8628 16.8224C60.9363 16.8224 61.0098 16.8224 61.0855 16.8224C61.0855 16.6378 61.0855 16.4533 61.0855 16.2632Z" fill="#191919"/>
<path d="M82.2463 28.6777C82.5036 28.8991 82.7609 29.1206 83.026 29.3487C82.8032 29.3487 82.5805 29.3487 82.3577 29.3487C82.321 29.1273 82.2842 28.9058 82.2463 28.6777Z" fill="#191919"/>
<path d="M78.5708 24.9869C78.7958 25.1705 79.0186 25.357 79.2391 25.5461C79.2391 25.583 79.2391 25.6199 79.2391 25.6579C79.0553 25.6579 78.8715 25.6579 78.6822 25.6579C78.6454 25.4365 78.6087 25.215 78.5708 24.9869Z" fill="#191919"/>
<path d="M83.6949 15.8158C83.7317 15.8158 83.7685 15.8158 83.8063 15.8158C84.0599 16.7146 84.0599 16.7146 83.9177 17.1579C83.9177 17.0841 83.9177 17.0103 83.9177 16.9342C83.8442 16.9342 83.7707 16.9342 83.6949 16.9342C83.6949 16.5652 83.6949 16.1961 83.6949 15.8158Z" fill="#191919"/>
<path d="M80.3533 26.7763C80.6105 26.9978 80.8678 27.2192 81.1329 27.4474C81.0226 27.5028 81.0226 27.5028 80.9101 27.5592C80.8366 27.5223 80.7631 27.4854 80.6874 27.4474C80.6874 27.3736 80.6874 27.2998 80.6874 27.2237C80.5771 27.2237 80.4669 27.2237 80.3533 27.2237C80.3533 27.0761 80.3533 26.9284 80.3533 26.7763Z" fill="#191919"/>
<path d="M63.0897 25.6579C63.2986 25.7278 63.2986 25.7278 63.5352 25.8816C63.6744 26.2311 63.6744 26.2311 63.758 26.5527C63.3695 26.3056 63.2311 26.0957 63.0897 25.6579Z" fill="#191919"/>
<path d="M81.5787 11.454C81.689 11.4909 81.7993 11.5278 81.9129 11.5658C81.9129 11.6396 81.9129 11.7134 81.9129 11.7895C81.9864 11.7895 82.0599 11.7895 82.1356 11.7895C82.1724 12.0109 82.2091 12.2324 82.247 12.4605C81.9039 12.1504 81.7249 11.8943 81.5787 11.454Z" fill="#191919"/>
<path d="M77.1238 8.09883C77.614 8.15508 77.8713 8.33232 78.2375 8.65804C77.7978 8.59495 77.4903 8.46308 77.1238 8.21067C77.1238 8.17376 77.1238 8.13685 77.1238 8.09883Z" fill="#191919"/>
</svg>
