<svg width="32" height="31" viewBox="0 0 32 31" fill="none" xmlns="http://www.w3.org/2000/svg">
<g filter="url(#filter0_d_616_70)">
<rect width="30" height="29" fill="#FF9169"/>
<rect x="0.5" y="0.5" width="29" height="28" stroke="black"/>
<path d="M17.5 8.75C17.6989 8.75006 17.8896 8.82908 18.0303 8.96973C18.1709 9.11037 18.2499 9.30112 18.25 9.5C18.25 9.69886 18.1708 9.8896 18.0303 10.0303V10.0312L13.5605 14.5L18.0303 18.9688V18.9697C18.0998 19.0393 18.1557 19.122 18.1934 19.2129C18.231 19.3038 18.25 19.4016 18.25 19.5C18.25 19.5984 18.231 19.6962 18.1934 19.7871C18.1557 19.8781 18.0999 19.9606 18.0303 20.0303C17.9606 20.0999 17.8781 20.1557 17.7871 20.1934C17.6962 20.231 17.5984 20.25 17.5 20.25C17.4016 20.25 17.3038 20.231 17.2129 20.1934C17.122 20.1557 17.0393 20.0998 16.9697 20.0303L11.9697 15.0303C11.9002 14.9607 11.8453 14.878 11.8076 14.7871C11.7699 14.6961 11.75 14.5986 11.75 14.5C11.75 14.4014 11.7699 14.3039 11.8076 14.2129C11.8453 14.122 11.9002 14.0393 11.9697 13.9697L16.9697 8.96973C17.1104 8.82917 17.3011 8.75 17.5 8.75Z" fill="white" stroke="white" stroke-width="0.5"/>
</g>
<defs>
<filter id="filter0_d_616_70" x="0" y="0" width="32" height="31" filterUnits="userSpaceOnUse" color-interpolation-filters="sRGB">
<feFlood flood-opacity="0" result="BackgroundImageFix"/>
<feColorMatrix in="SourceAlpha" type="matrix" values="0 0 0 0 0 0 0 0 0 0 0 0 0 0 0 0 0 0 127 0" result="hardAlpha"/>
<feOffset dx="2" dy="2"/>
<feComposite in2="hardAlpha" operator="out"/>
<feColorMatrix type="matrix" values="0 0 0 0 0 0 0 0 0 0 0 0 0 0 0 0 0 0 1 0"/>
<feBlend mode="normal" in2="BackgroundImageFix" result="effect1_dropShadow_616_70"/>
<feBlend mode="normal" in="SourceGraphic" in2="effect1_dropShadow_616_70" result="shape"/>
</filter>
</defs>
</svg>
