<svg width="25" height="24" viewBox="0 0 25 24" fill="none" xmlns="http://www.w3.org/2000/svg">
<g clip-path="url(#clip0_481_239)">
<path d="M24.5 12C24.5 5.37308 19.1269 0 12.5 0C5.87308 0 0.5 5.37308 0.5 12C0.5 17.989 4.88757 22.9537 10.6252 23.8549V15.4696H7.57749V12H10.6252V9.35565C10.6252 6.34847 12.4173 4.68626 15.1579 4.68626C16.4707 4.68626 17.8444 4.92083 17.8444 4.92083V7.874H16.3307C14.8406 7.874 14.3748 8.79876 14.3748 9.74884V12H17.7026L17.1711 15.4696H14.3748V23.8549C20.1124 22.9554 24.5 17.9907 24.5 12Z" fill="#1977F3"/>
<path d="M17.1711 15.4693L17.7026 11.9998H14.3748V9.74861C14.3748 8.80022 14.8389 7.87377 16.3307 7.87377H17.8444V4.9206C17.8444 4.9206 16.4707 4.68604 15.1579 4.68604C12.4173 4.68604 10.6252 6.34656 10.6252 9.35542V11.9998H7.57748V15.4693H10.6252V23.8546C11.236 23.9508 11.8621 23.9998 12.5 23.9998C13.1379 23.9998 13.764 23.9491 14.3748 23.8546V15.4693H17.1711Z" fill="#FEFEFE"/>
</g>
<defs>
<clipPath id="clip0_481_239">
<rect width="24" height="24" fill="white" transform="translate(0.5)"/>
</clipPath>
</defs>
</svg>
