<svg width="102" height="49" viewBox="0 0 102 49" fill="none" xmlns="http://www.w3.org/2000/svg">
<g clip-path="url(#clip0_616_286)">
<path d="M81.7042 9.72245C81.858 9.72175 81.858 9.72175 82.0149 9.72104C82.234 9.72033 82.4531 9.72 82.6721 9.72003C82.9985 9.71973 83.3248 9.71721 83.6512 9.71453C85.1064 9.70926 86.5191 9.82276 87.9599 10.0255C87.9599 10.1178 87.9599 10.2101 87.9599 10.3051C88.0604 10.2983 88.1609 10.2914 88.2645 10.2844C88.7143 10.3081 88.9684 10.4254 89.3636 10.6372C89.5387 10.7296 89.5387 10.7296 89.7173 10.8239C89.8278 10.8834 89.9384 10.9429 90.0524 11.0042C90.1558 11.0521 90.2592 11.1 90.3657 11.1494C90.6104 11.2838 90.6104 11.2838 90.7499 11.5634C90.9053 11.6297 91.0606 11.696 91.2207 11.7643C91.8866 12.052 91.8866 12.052 92.1449 12.4022C92.1449 12.4945 92.1449 12.5867 92.1449 12.6818C92.2288 12.6975 92.3127 12.7132 92.3991 12.7294C92.8894 12.8782 93.1864 13.2631 93.5312 13.6255C93.6027 13.699 93.6741 13.7725 93.7478 13.8483C93.8898 13.9944 94.0313 14.1411 94.1722 14.2883C94.3659 14.4879 94.5652 14.6819 94.7649 14.8755C95.0744 15.1982 95.0744 15.1982 95.2924 15.6439C95.5058 16.0623 95.617 16.1667 96.0509 16.3167C96.0509 16.4551 96.0509 16.5935 96.0509 16.7361C96.189 16.7361 96.3271 16.7361 96.4694 16.7361C96.6839 17.0943 96.755 17.3462 96.8094 17.7671C96.8622 18.2779 96.8622 18.2779 97.1059 18.7108C97.3125 19.125 97.3464 19.3571 97.3064 19.8117C97.4445 19.8579 97.5826 19.904 97.7249 19.9515C98.5045 22.5992 98.4917 26.1111 97.5571 28.7061C97.3373 29.3638 97.1879 30.0422 97.0274 30.7164C96.9353 30.7164 96.8433 30.7164 96.7484 30.7164C96.7484 30.947 96.7484 31.1777 96.7484 31.4154C96.6563 31.4154 96.5643 31.4154 96.4694 31.4154C96.4694 31.5999 96.4694 31.7844 96.4694 31.9746C96.3313 31.9746 96.1932 31.9746 96.0509 31.9746C96.0509 32.113 96.0509 32.2514 96.0509 32.394C95.9128 32.394 95.7747 32.394 95.6324 32.394C95.5403 32.6247 95.4483 32.8553 95.3534 33.093C95.2613 33.093 95.1693 33.093 95.0744 33.093C95.0744 33.2775 95.0744 33.4621 95.0744 33.6522C94.8442 33.6522 94.614 33.6522 94.3769 33.6522C94.3769 33.5599 94.3769 33.4677 94.3769 33.3726C94.2388 33.3726 94.1007 33.3726 93.9584 33.3726C93.9584 33.2342 93.9584 33.0958 93.9584 32.9532C93.8781 32.9181 93.7979 32.8831 93.7152 32.847C93.3579 32.6502 93.1157 32.4245 92.8271 32.1362C92.7219 32.0312 92.6167 31.9261 92.5084 31.8178C92.3999 31.7081 92.2915 31.5983 92.1798 31.4853C92.0692 31.3755 91.9586 31.2658 91.8446 31.1527C91.7402 31.0476 91.6357 30.9426 91.528 30.8343C91.4322 30.738 91.3364 30.6417 91.2377 30.5424C91.0289 30.2969 91.0289 30.2969 91.0289 30.0173C90.6836 30.1557 90.6836 30.1557 90.3314 30.2969C90.2959 30.7031 90.2819 30.924 90.5168 31.2656C90.6443 31.3906 90.6443 31.3906 90.7744 31.518C90.8669 31.6098 90.9594 31.7015 91.0548 31.796C91.1527 31.8895 91.2506 31.9831 91.3515 32.0794C91.4478 32.1751 91.5441 32.2708 91.6433 32.3694C92.1747 32.9067 92.1747 32.9067 92.8424 33.2328C92.9842 33.4644 93.1233 33.6977 93.2609 33.9318C93.4955 34.1924 93.7377 34.4462 93.9851 34.6947C94.0555 34.7656 94.1259 34.8364 94.1985 34.9094C94.3474 35.0588 94.4967 35.2079 94.6463 35.3566C94.8708 35.5801 95.0937 35.8051 95.3166 36.0302C96.088 36.8038 96.8613 37.52 97.7461 38.1661C98.0383 38.4375 98.0663 38.5841 98.1434 38.9647C95.9958 38.968 93.8482 38.9705 91.7007 38.972C90.7035 38.9727 89.7063 38.9737 88.709 38.9753C87.8396 38.9767 86.9702 38.9776 86.1008 38.9779C85.6407 38.9781 85.1806 38.9786 84.7205 38.9795C84.2062 38.9805 83.6919 38.9807 83.1776 38.9806C82.95 38.9813 82.95 38.9813 82.7179 38.9821C80.7205 38.9794 80.7205 38.9794 80.4269 38.6851C80.1765 38.6635 80.1765 38.6635 79.9212 38.6414C79.4789 38.5931 79.1763 38.4975 78.7964 38.2657C78.3809 38.0142 78.1108 37.9039 77.6369 37.8463C77.6369 37.754 77.6369 37.6618 77.6369 37.5667C77.5362 37.5753 77.4355 37.584 77.3317 37.5929C76.861 37.5615 76.6177 37.4271 76.2419 37.1473C76.2419 37.055 76.2419 36.9627 76.2419 36.8677C76.1607 36.8507 76.0796 36.8338 75.9961 36.8163C75.1051 36.5639 74.4249 35.9308 73.8066 35.267C73.5745 35.019 73.5745 35.019 73.1728 34.7706C73.1728 34.6322 73.1728 34.4938 73.1728 34.3512C73.0808 34.3512 72.9887 34.3512 72.8938 34.3512C72.73 34.1967 72.5677 34.0401 72.4132 33.8761C72.2572 33.715 72.0941 33.5606 71.9271 33.4108C71.1615 32.7072 70.7263 31.9789 70.3828 30.996C70.3828 30.9037 70.3828 30.8114 70.3828 30.7164C70.2908 30.7164 70.1987 30.7164 70.1038 30.7164C69.9202 30.2103 69.8248 29.8642 69.8248 29.3183C69.7328 29.3183 69.6407 29.3183 69.5458 29.3183C68.8082 26.7357 68.7665 24.2878 68.8483 21.6292C68.9404 21.6292 69.0325 21.6292 69.1273 21.6292C69.1532 21.3567 69.1532 21.3567 69.1796 21.0787C69.2527 20.4103 69.3872 19.7654 69.5458 19.1127C69.6379 19.1127 69.73 19.1127 69.8248 19.1127C69.8248 18.8359 69.8248 18.5591 69.8248 18.2739C69.9629 18.2047 69.9629 18.2047 70.1038 18.1341C70.3734 17.7288 70.5844 17.3058 70.7926 16.8671C71.0154 16.4104 71.2651 16.1058 71.6383 15.7575C71.6844 15.619 71.7304 15.4806 71.7778 15.338C71.8699 15.338 71.962 15.338 72.0568 15.338C72.2068 14.9672 72.349 14.5994 72.4753 14.2196C73.0215 13.7094 73.6695 13.3304 74.315 12.9614C74.7418 12.7131 75.053 12.5051 75.3438 12.1051C75.9895 11.3419 76.9635 11.1289 77.8902 10.8343C78.1954 10.7243 78.4673 10.5898 78.7529 10.4362C79.2611 10.1677 79.7542 10.0445 80.3173 9.94089C81.3007 9.72309 81.3007 9.72309 81.7042 9.72245Z" fill="#FF9169"/>
<path d="M3.8414 10.8643C11.3912 10.8643 18.9409 10.8643 26.7194 10.8643C26.7194 13.9092 26.7194 16.9541 26.7194 20.0912C24.832 20.0912 22.9446 20.0912 20.9999 20.0912C20.9999 20.5065 20.9999 20.9217 20.9999 21.3495C22.8874 21.3495 24.7748 21.3495 26.7194 21.3495C26.7194 24.3021 26.7194 27.2547 26.7194 30.2968C24.6939 30.2968 22.6684 30.2968 20.5814 30.2968C20.5814 33.0188 20.5814 35.7408 20.5814 38.5452C16.4384 38.5508 16.4384 38.5508 14.3991 38.5522C13.2941 38.553 12.189 38.554 11.0839 38.5558C10.2093 38.5571 9.33472 38.5581 8.46011 38.5584C7.99674 38.5585 7.53337 38.5591 7.07 38.56C6.55353 38.561 6.03708 38.5611 5.52061 38.5611C5.28852 38.5618 5.28852 38.5618 5.05175 38.5626C4.91187 38.5624 4.772 38.5622 4.62789 38.562C4.5056 38.5622 4.38331 38.5623 4.25732 38.5624C3.9809 38.5452 3.9809 38.5452 3.8414 38.4054C3.82776 38.05 3.82327 37.6985 3.82462 37.343C3.8245 37.2304 3.82438 37.1179 3.82426 37.0019C3.82403 36.6217 3.8248 36.2415 3.82556 35.8613C3.8256 35.59 3.82558 35.3186 3.8255 35.0473C3.82546 34.3081 3.82628 33.569 3.82725 32.8299C3.82812 32.0583 3.82821 31.2868 3.82837 30.5153C3.82881 29.0532 3.82995 27.5911 3.83135 26.129C3.8332 24.154 3.83395 22.1791 3.83477 20.2041C3.83608 17.0908 3.83886 13.9775 3.8414 10.8643Z" fill="#FF9169"/>
<path d="M29.0898 10.8643C33.6013 10.8643 38.1127 10.8643 42.7609 10.8643C42.8069 15.4316 42.8529 19.999 42.9004 24.7047C45.4323 24.7509 47.9642 24.797 50.5729 24.8445C50.5729 29.3658 50.5729 33.887 50.5729 38.5452C43.4835 38.5452 36.3941 38.5452 29.0898 38.5452C29.0898 29.4105 29.0898 20.2758 29.0898 10.8643Z" fill="#FF9169"/>
<path d="M52.8047 10.8643C57.5923 10.8643 62.38 10.8643 67.3127 10.8643C67.3127 19.999 67.3127 29.1337 67.3127 38.5452C62.5251 38.5452 57.7374 38.5452 52.8047 38.5452C52.8047 29.4105 52.8047 20.2758 52.8047 10.8643Z" fill="#FF9169"/>
<path d="M29.7296 10.7055C29.9281 10.706 29.9281 10.706 30.1306 10.7064C30.2692 10.7062 30.4078 10.7059 30.5506 10.7057C31.0111 10.705 31.4716 10.7054 31.9321 10.7059C32.2506 10.7058 32.5691 10.7057 32.8876 10.7055C33.5561 10.7053 34.2245 10.7056 34.893 10.7063C35.752 10.7071 36.6109 10.7066 37.4699 10.7058C38.1279 10.7053 38.7858 10.7054 39.4437 10.7058C39.7606 10.7059 40.0774 10.7058 40.3942 10.7054C40.8362 10.7051 41.2781 10.7056 41.7201 10.7064C41.8524 10.7061 41.9847 10.7058 42.1211 10.7055C43.0239 10.7085 43.0239 10.7085 43.1794 10.8643C43.1926 11.2856 43.1969 11.7037 43.1952 12.125C43.1952 12.2573 43.1952 12.3896 43.1953 12.5259C43.1952 12.9654 43.1941 13.4049 43.193 13.8444C43.1927 14.1482 43.1925 14.4521 43.1924 14.7559C43.1918 15.5573 43.1905 16.3588 43.1889 17.1602C43.1873 18.1209 43.1866 19.0815 43.1858 20.0422C43.1844 21.5032 43.1818 22.9642 43.1794 24.4252C45.6653 24.4252 48.1511 24.4252 50.7124 24.4252C50.718 27.9434 50.718 27.9434 50.7192 29.4376C50.72 30.459 50.721 31.4805 50.7229 32.5019C50.7244 33.325 50.7252 34.1481 50.7256 34.9711C50.7259 35.2859 50.7264 35.6007 50.7271 35.9155C50.7281 36.3547 50.7283 36.794 50.7282 37.2332C50.7287 37.3647 50.7292 37.4963 50.7297 37.6318C50.7283 38.5293 50.7283 38.5293 50.5729 38.685C50.2939 38.6986 50.0145 38.7021 49.7352 38.7019C49.462 38.7021 49.462 38.7021 49.1833 38.7024C48.9796 38.7019 48.7759 38.7014 48.5722 38.7009C48.3591 38.7009 48.1461 38.7009 47.933 38.701C47.3528 38.701 46.7727 38.7002 46.1925 38.6992C45.5869 38.6984 44.9812 38.6983 44.3756 38.6981C43.2279 38.6977 42.0802 38.6965 40.9325 38.6951C39.6263 38.6936 38.32 38.6928 37.0138 38.6921C34.3259 38.6906 31.6381 38.6882 28.9503 38.685C28.6071 38.1583 28.6327 37.6313 28.6368 37.0246C28.6365 36.9129 28.6362 36.8012 28.6358 36.6861C28.635 36.3114 28.6362 35.9367 28.6374 35.562C28.6373 35.2936 28.637 35.0252 28.6366 34.7567C28.636 34.0274 28.637 33.2981 28.6384 32.5688C28.6397 31.8067 28.6394 31.0446 28.6394 30.2824C28.6395 29.0029 28.6407 27.7234 28.6426 26.4439C28.6448 24.9626 28.6455 23.4812 28.6454 21.9998C28.6454 20.5767 28.6461 19.1537 28.6472 17.7307C28.6477 17.124 28.648 16.5174 28.648 15.9107C28.6482 15.1973 28.649 14.4839 28.6504 13.7705C28.6509 13.508 28.651 13.2454 28.6509 12.9828C28.6509 12.626 28.6517 12.2691 28.6527 11.9123C28.6525 11.807 28.6522 11.7017 28.652 11.5932C28.6565 10.6385 28.7959 10.7086 29.7296 10.7055ZM29.0898 10.8643C29.0898 19.999 29.0898 29.1337 29.0898 38.5452C36.1792 38.5452 43.2686 38.5452 50.5729 38.5452C50.5729 34.024 50.5729 29.5028 50.5729 24.8446C48.0409 24.7984 45.509 24.7523 42.9004 24.7048C42.8543 20.1374 42.8083 15.5701 42.7609 10.8643C38.2494 10.8643 33.738 10.8643 29.0898 10.8643Z" fill="#FF9169"/>
<path d="M3.8414 10.8643C11.3912 10.8643 18.9409 10.8643 26.7194 10.8643C26.7194 13.9092 26.7194 16.9541 26.7194 20.0912C24.832 20.0912 22.9446 20.0912 20.9999 20.0912C20.9999 20.5065 20.9999 20.9217 20.9999 21.3495C22.8874 21.3495 24.7748 21.3495 26.7194 21.3495C26.7194 24.3021 26.7194 27.2547 26.7194 30.2968C24.6939 30.2968 22.6684 30.2968 20.5814 30.2968C20.5814 33.0188 20.5814 35.7408 20.5814 38.5452C16.4384 38.5508 16.4384 38.5508 14.3991 38.5522C13.2941 38.553 12.189 38.554 11.0839 38.5558C10.2093 38.5571 9.33472 38.5581 8.46011 38.5584C7.99674 38.5585 7.53337 38.5591 7.07 38.56C6.55353 38.561 6.03708 38.5611 5.52061 38.5611C5.28852 38.5618 5.28852 38.5618 5.05175 38.5626C4.91187 38.5624 4.772 38.5622 4.62789 38.562C4.5056 38.5622 4.38331 38.5623 4.25732 38.5624C3.9809 38.5452 3.9809 38.5452 3.8414 38.4054C3.82776 38.05 3.82327 37.6985 3.82462 37.343C3.8245 37.2304 3.82438 37.1179 3.82426 37.0019C3.82403 36.6217 3.8248 36.2415 3.82556 35.8613C3.8256 35.59 3.82558 35.3186 3.8255 35.0473C3.82546 34.3081 3.82628 33.569 3.82725 32.8299C3.82812 32.0583 3.82821 31.2868 3.82837 30.5153C3.82881 29.0532 3.82995 27.5911 3.83135 26.129C3.8332 24.154 3.83395 22.1791 3.83477 20.2041C3.83608 17.0908 3.83886 13.9775 3.8414 10.8643ZM4.1204 11.0041C4.1204 20.0465 4.1204 29.089 4.1204 38.4054C9.46047 38.4054 14.8005 38.4054 20.3024 38.4054C20.3485 35.8219 20.3945 33.2383 20.4419 30.5765C20.7209 30.157 20.7209 30.157 20.9769 30.1013C21.0804 30.0997 21.1838 30.0982 21.2904 30.0966C21.4094 30.0938 21.5283 30.091 21.6508 30.0882C21.8384 30.0868 21.8384 30.0868 22.0298 30.0855C22.1447 30.0832 22.2596 30.0809 22.378 30.0785C22.8079 30.0704 23.2379 30.0659 23.6679 30.0609C25.1094 30.0393 25.1094 30.0393 26.5799 30.0172C26.5799 27.2491 26.5799 24.4811 26.5799 21.6291C24.6925 21.6291 22.8051 21.6291 20.8604 21.6291C20.8604 21.0755 20.8604 20.5218 20.8604 19.9514C21.0245 19.9522 21.1886 19.9529 21.3576 19.9537C21.9642 19.9562 22.5707 19.9578 23.1772 19.9591C23.4401 19.9598 23.7031 19.9608 23.966 19.962C24.3431 19.9637 24.7201 19.9645 25.0972 19.9651C25.2746 19.9662 25.2746 19.9662 25.4557 19.9673C25.7375 19.9673 26.0193 19.9601 26.3009 19.9514C26.5475 19.7044 26.4583 19.3498 26.4585 19.0151C26.4592 18.7597 26.4592 18.7597 26.4598 18.4992C26.4596 18.3119 26.4593 18.1247 26.459 17.9374C26.4591 17.7467 26.4592 17.5561 26.4594 17.3654C26.4596 16.9653 26.4593 16.5653 26.4586 16.1652C26.4578 15.6514 26.4583 15.1375 26.4591 14.6236C26.4596 14.2298 26.4595 13.8359 26.4591 13.4421C26.459 13.2526 26.4591 13.063 26.4595 12.8735C26.4598 12.6091 26.4592 12.3446 26.4585 12.0802C26.4584 11.9294 26.4583 11.7786 26.4582 11.6233C26.4787 11.2908 26.4787 11.2908 26.3009 11.1439C26.015 11.1286 25.7285 11.1233 25.4421 11.1217C25.3516 11.1211 25.2612 11.1204 25.1679 11.1197C24.8616 11.1175 24.5553 11.1163 24.249 11.1152C24.0269 11.1138 23.8048 11.1124 23.5827 11.1109C22.9859 11.1071 22.3891 11.1042 21.7922 11.1014C21.233 11.0986 20.6737 11.0952 20.1145 11.0917C18.477 11.0821 16.8395 11.0738 15.202 11.0652C11.545 11.045 7.88813 11.0249 4.1204 11.0041Z" fill="#FF9169"/>
<path d="M3.56015 10.7246C11.248 10.7246 18.9359 10.7246 26.8567 10.7246C26.8567 13.8618 26.8567 16.999 26.8567 20.2312C26.7172 20.371 26.7172 20.371 26.2147 20.3869C25.9912 20.3869 25.7676 20.3861 25.544 20.3847C25.4265 20.3845 25.309 20.3843 25.188 20.3841C24.8113 20.3833 24.4347 20.3815 24.058 20.3797C23.8032 20.379 23.5485 20.3784 23.2937 20.3778C22.6679 20.3763 22.042 20.3739 21.4162 20.371C21.4162 20.6017 21.4162 20.8324 21.4162 21.07C22.1859 21.0735 22.9556 21.076 23.7253 21.0777C23.9873 21.0784 24.2492 21.0794 24.5112 21.0806C24.8873 21.0823 25.2633 21.0831 25.6393 21.0837C25.7569 21.0844 25.8745 21.0851 25.9956 21.0859C26.5843 21.1027 26.5843 21.1027 27.1357 20.9302C27.1207 22.1467 27.105 23.3631 27.0884 24.5796C27.0807 25.1444 27.0732 25.7092 27.0663 26.274C27.0597 26.8188 27.0524 27.3636 27.0446 27.9083C27.0418 28.1165 27.0392 28.3246 27.0368 28.5327C27.0334 28.8237 27.0292 29.1145 27.0248 29.4054C27.0227 29.5712 27.0205 29.737 27.0183 29.9078C26.9962 30.297 26.9962 30.297 26.8567 30.5766C24.8312 30.5766 22.8056 30.5766 20.7187 30.5766C20.7203 31.1502 20.7219 31.7239 20.7236 32.3149C20.7245 32.7711 20.7252 33.2273 20.7259 33.6835C20.7266 34.1657 20.7276 34.648 20.7292 35.1302C20.731 35.683 20.7317 36.2358 20.7323 36.7885C20.733 36.9621 20.7337 37.1357 20.7345 37.3146C20.7345 37.4741 20.7345 37.6336 20.7345 37.798C20.7348 37.9392 20.7351 38.0805 20.7355 38.226C20.7187 38.5454 20.7187 38.5454 20.5792 38.6852C20.3606 38.6989 20.1415 38.7028 19.9225 38.7029C19.7095 38.7035 19.7095 38.7035 19.4922 38.7041C19.2565 38.7037 19.2565 38.7037 19.0161 38.7033C18.8516 38.7035 18.6872 38.7037 18.5178 38.704C18.0656 38.7045 17.6134 38.7044 17.1612 38.7039C16.6889 38.7036 16.2166 38.7039 15.7443 38.7041C14.9511 38.7044 14.1579 38.7041 13.3646 38.7034C12.4463 38.7026 11.528 38.7029 10.6096 38.7037C9.8225 38.7043 9.03538 38.7044 8.24825 38.704C7.77755 38.7038 7.30685 38.7038 6.83615 38.7042C6.31169 38.7046 5.78723 38.704 5.26276 38.7033C5.10564 38.7035 4.94853 38.7038 4.78665 38.7041C4.64463 38.7037 4.50262 38.7033 4.3563 38.7029C4.23213 38.7029 4.10797 38.7028 3.98004 38.7028C3.69965 38.6852 3.69965 38.6852 3.56015 38.5454C3.54651 38.1865 3.54202 37.8313 3.54337 37.4724C3.54325 37.3586 3.54313 37.2449 3.54301 37.1277C3.54278 36.7437 3.54355 36.3597 3.54431 35.9756C3.54435 35.7015 3.54433 35.4274 3.54425 35.1533C3.54421 34.4067 3.54503 33.66 3.546 32.9134C3.54687 32.134 3.54696 31.3546 3.54712 30.5753C3.54756 29.0983 3.5487 27.6214 3.5501 26.1444C3.55195 24.1494 3.5527 22.1544 3.55352 20.1594C3.55483 17.0144 3.55761 13.8695 3.56015 10.7246ZM3.83915 10.8644C3.83509 15.756 3.83509 15.756 3.83234 20.6476C3.83151 22.6411 3.83053 24.6346 3.82862 26.6282C3.82724 28.0798 3.82633 29.5313 3.82602 30.9829C3.82584 31.752 3.82541 32.5212 3.8244 33.2903C3.82346 34.0133 3.82316 34.7363 3.82337 35.4593C3.82333 35.7255 3.82305 35.9917 3.82252 36.2579C3.82183 36.6197 3.82199 36.9814 3.82237 37.3432C3.82197 37.4499 3.82156 37.5567 3.82114 37.6667C3.77938 38.1464 3.77938 38.1464 3.97865 38.5454C4.19397 38.5588 4.40991 38.5624 4.62564 38.5622C4.76552 38.5624 4.90539 38.5626 5.0495 38.5628C5.20422 38.5623 5.35895 38.5618 5.51836 38.5612C5.76126 38.5613 5.76126 38.5613 6.00907 38.5613C6.54726 38.5612 7.08545 38.5601 7.62364 38.559C7.99563 38.5588 8.36762 38.5586 8.7396 38.5584C9.6205 38.558 10.5014 38.5568 11.3823 38.5554C12.4832 38.5537 13.5841 38.553 14.685 38.5522C16.6497 38.5508 18.6145 38.548 20.5792 38.5454C20.5792 35.8234 20.5792 33.1014 20.5792 30.297C22.6047 30.297 24.6303 30.297 26.7172 30.297C26.7172 27.3444 26.7172 24.3917 26.7172 21.3496C24.8298 21.3496 22.9423 21.3496 20.9977 21.3496C20.9977 20.9344 20.9977 20.5192 20.9977 20.0914C22.8851 20.0914 24.7726 20.0914 26.7172 20.0914C26.7172 17.0465 26.7172 14.0016 26.7172 10.8644C19.1674 10.8644 11.6177 10.8644 3.83915 10.8644Z" fill="#FF9169"/>
<path d="M29.0898 10.7244C30.9063 10.7212 32.7227 10.7187 34.5392 10.7172C35.3825 10.7165 36.2259 10.7155 37.0693 10.7139C37.8824 10.7124 38.6955 10.7115 39.5087 10.7112C39.8197 10.7109 40.1307 10.7104 40.4416 10.7096C40.8756 10.7086 41.3095 10.7085 41.7435 10.7086C41.8734 10.7081 42.0034 10.7075 42.1372 10.707C43.024 10.7085 43.024 10.7085 43.1794 10.8642C43.1927 11.2855 43.1969 11.7036 43.1952 12.1249C43.1952 12.2572 43.1953 12.3895 43.1953 12.5258C43.1952 12.9653 43.1941 13.4048 43.193 13.8443C43.1927 14.1482 43.1925 14.452 43.1924 14.7558C43.1919 15.5573 43.1905 16.3587 43.189 17.1601C43.1873 18.1208 43.1866 19.0815 43.1858 20.0421C43.1845 21.5031 43.1818 22.9641 43.1794 24.4251C45.6653 24.4251 48.1512 24.4251 50.7124 24.4251C50.7124 29.0847 50.7124 33.7444 50.7124 38.5452C50.6664 38.5452 50.6203 38.5452 50.5729 38.5452C50.5729 34.024 50.5729 29.5027 50.5729 24.8445C48.0541 24.85 48.0541 24.85 45.5354 24.8571C45.221 24.8575 44.9067 24.8579 44.5924 24.8582C44.3449 24.8592 44.3449 24.8592 44.0925 24.8603C43.9368 24.8603 43.781 24.8604 43.6205 24.8604C43.4845 24.8607 43.3485 24.861 43.2084 24.8613C42.9004 24.8445 42.9004 24.8445 42.7609 24.7047C42.7476 24.2749 42.7434 23.8482 42.745 23.4183C42.745 23.2833 42.745 23.1483 42.745 23.0092C42.7451 22.5606 42.7462 22.112 42.7473 21.6634C42.7475 21.3533 42.7477 21.0432 42.7478 20.7331C42.7484 19.9151 42.7498 19.0972 42.7513 18.2792C42.753 17.2987 42.7536 16.3182 42.7544 15.3377C42.7558 13.8466 42.7585 12.3554 42.7609 10.8642C38.2494 10.8642 33.738 10.8642 29.0898 10.8642C29.0898 10.8181 29.0898 10.772 29.0898 10.7244Z" fill="#FF9169"/>
<path d="M75.4023 36.5879C75.6786 36.6802 75.9548 36.7724 76.2393 36.8675C76.2393 36.9598 76.2393 37.052 76.2393 37.1471C76.6997 37.2855 77.16 37.4239 77.6343 37.5665C77.6343 37.6588 77.6343 37.751 77.6343 37.8461C77.7768 37.8288 77.7768 37.8288 77.9221 37.8112C78.3889 37.851 78.6504 38.0272 79.0419 38.2721C79.4876 38.495 79.9318 38.5026 80.4244 38.5451C80.4934 38.6143 80.4934 38.6143 80.5639 38.6849C81.4309 38.8537 82.2943 38.8488 83.1751 38.8534C83.3371 38.8548 83.4992 38.8562 83.6662 38.8576C84.1998 38.862 84.7334 38.8655 85.2671 38.869C85.6379 38.8718 86.0087 38.8748 86.3795 38.8778C87.2544 38.8847 88.1293 38.891 89.0043 38.8971C90.0009 38.904 90.9974 38.9117 91.994 38.9194C94.043 38.9353 96.0919 38.9502 98.1409 38.9645C98.0949 38.78 98.0488 38.5955 98.0014 38.4053C98.1395 38.4515 98.2776 38.4976 98.4199 38.5451C98.2978 39.2267 98.2978 39.2267 98.1409 39.3839C97.9291 39.3973 97.7167 39.401 97.5045 39.4008C97.2982 39.401 97.2982 39.401 97.0878 39.4013C96.9356 39.4008 96.7835 39.4003 96.6268 39.3998C96.388 39.3998 96.388 39.3998 96.1443 39.3999C95.6152 39.3998 95.0861 39.3987 94.5569 39.3976C94.1912 39.3973 93.8255 39.3971 93.4597 39.397C92.5937 39.3966 91.7276 39.3954 90.8615 39.394C89.8758 39.3925 88.89 39.3917 87.9042 39.391C85.8759 39.3895 83.8476 39.3871 81.8194 39.3839C81.8194 39.3378 81.8194 39.2917 81.8194 39.2441C81.7203 39.2256 81.6212 39.207 81.5191 39.1879C81.3909 39.1632 81.2627 39.1385 81.1306 39.1131C81.0027 39.0887 80.8749 39.0644 80.7431 39.0394C80.4244 38.9645 80.4244 38.9645 80.2849 38.8247C80.0502 38.7922 79.8146 38.767 79.5786 38.7461C79.4504 38.7344 79.3222 38.7227 79.1901 38.7106C79.091 38.7021 78.9919 38.6937 78.8899 38.6849C78.8899 38.5927 78.8899 38.5004 78.8899 38.4053C78.7431 38.4226 78.7431 38.4226 78.5934 38.4403C78.0595 38.3937 77.7986 38.1451 77.3553 37.8461C76.9431 37.6842 76.5246 37.5516 76.0998 37.4267C76.0998 37.2883 76.0998 37.1499 76.0998 37.0073C76.0107 36.99 75.9215 36.9727 75.8296 36.9549C75.7346 36.926 75.6397 36.8972 75.5418 36.8675C75.4958 36.7752 75.4498 36.683 75.4023 36.5879Z" fill="#FF9169"/>
<path d="M65.918 10.8643C66.3323 10.8643 66.7466 10.8643 67.1735 10.8643C67.1735 19.9528 67.1735 29.0414 67.1735 38.4054C67.0814 38.4054 66.9893 38.4054 66.8945 38.4054C66.7259 37.8986 66.7387 37.4385 66.7435 36.9112C66.7439 36.8007 66.7444 36.6901 66.7449 36.5763C66.7465 36.2047 66.7492 35.8331 66.7519 35.4615C66.7534 35.1956 66.7547 34.9298 66.756 34.6639C66.7597 33.9409 66.7643 33.218 66.769 32.495C66.7738 31.7399 66.7778 30.9848 66.7818 30.2297C66.7897 28.7993 66.7982 27.3689 66.8071 25.9385C66.8171 24.3103 66.8263 22.682 66.8354 21.0538C66.8542 17.7039 66.874 14.354 66.8945 11.0041C66.5722 11.0502 66.25 11.0963 65.918 11.1439C65.918 11.0516 65.918 10.9593 65.918 10.8643Z" fill="#FF9169"/>
<path d="M43.0396 10.8643C43.0857 10.8643 43.1317 10.8643 43.1791 10.8643C43.1791 15.3393 43.1791 19.8144 43.1791 24.4251C45.665 24.4251 48.1509 24.4251 50.7121 24.4251C50.7121 29.0848 50.7121 33.7444 50.7121 38.5452C50.6661 38.5452 50.6201 38.5452 50.5726 38.5452C50.5036 31.7634 50.5036 31.7634 50.4331 24.8445C48.0521 24.8041 48.0521 24.8041 45.6711 24.7651C45.3739 24.7598 45.0767 24.7544 44.7796 24.749C44.6236 24.7467 44.4677 24.7444 44.3071 24.742C44.1598 24.7392 44.0126 24.7363 43.8609 24.7334C43.7323 24.7313 43.6037 24.7291 43.4713 24.7269C43.1791 24.7047 43.1791 24.7047 43.0396 24.5649C43.0263 24.1394 43.0221 23.717 43.0238 23.2914C43.0238 23.1577 43.0237 23.0241 43.0237 22.8864C43.0238 22.4423 43.0249 21.9983 43.026 21.5543C43.0263 21.2473 43.0265 20.9403 43.0266 20.6333C43.0271 19.8236 43.0285 19.0139 43.03 18.2042C43.0315 17.3787 43.0321 16.5531 43.0328 15.7276C43.0343 14.1065 43.0367 12.4854 43.0396 10.8643Z" fill="#FF9169"/>
<path d="M90.4688 30.0173C91.0268 30.0173 91.0268 30.0173 91.2361 30.203C91.3051 30.2917 91.3742 30.3803 91.4453 30.4717C91.8986 31.0229 92.38 31.5316 92.8839 32.0357C92.9576 32.1101 93.0312 32.1845 93.1071 32.2611C93.4947 32.6561 93.4947 32.6561 93.9563 32.9532C93.9563 33.0916 93.9563 33.23 93.9563 33.3726C94.0944 33.3726 94.2325 33.3726 94.3748 33.3726C94.3748 33.4649 94.3748 33.5571 94.3748 33.6522C94.559 33.6983 94.7431 33.7445 94.9328 33.792C94.6106 33.7459 94.2883 33.6997 93.9563 33.6522C93.9103 33.929 93.8643 34.2058 93.8168 34.491C93.6529 34.3615 93.4904 34.2301 93.3286 34.0978C93.2379 34.0248 93.1473 33.9519 93.0539 33.8767C92.8403 33.6522 92.8403 33.6522 92.8403 33.2328C92.7588 33.219 92.6773 33.2051 92.5933 33.1909C92.0072 33.0064 91.6262 32.507 91.2012 32.0794C91.1039 31.9859 91.0066 31.8924 90.9064 31.796C90.8145 31.7043 90.7226 31.6125 90.6279 31.518C90.5438 31.4347 90.4597 31.3514 90.373 31.2656C90.1367 30.9177 90.1345 30.7097 90.1898 30.2969C90.2819 30.2047 90.374 30.1124 90.4688 30.0173Z" fill="#FF9169"/>
<path d="M95.6309 16.1768C95.769 16.2229 95.9071 16.269 96.0494 16.3166C96.0494 16.455 96.0494 16.5934 96.0494 16.736C96.1875 16.736 96.3256 16.736 96.4679 16.736C96.6823 17.0942 96.7534 17.3461 96.8079 17.767C96.8607 18.2778 96.8607 18.2778 97.1043 18.7107C97.311 19.1249 97.3449 19.357 97.3049 19.8116C97.443 19.8578 97.5811 19.9039 97.7234 19.9514C98.503 22.5991 98.4902 26.111 97.5555 28.706C97.3357 29.3637 97.1864 30.0421 97.0259 30.7163C96.9338 30.7163 96.8417 30.7163 96.7469 30.7163C96.7469 30.9469 96.7469 31.1776 96.7469 31.4153C96.6548 31.4153 96.5627 31.4153 96.4679 31.4153C96.4679 31.5998 96.4679 31.7843 96.4679 31.9745C96.3298 31.9745 96.1917 31.9745 96.0494 31.9745C96.0494 32.1129 96.0494 32.2513 96.0494 32.3939C95.9573 32.3477 95.8652 32.3016 95.7704 32.2541C95.8365 32.1503 95.9027 32.0465 95.9709 31.9395C96.158 31.6095 96.2603 31.364 96.3284 30.9959C96.4204 30.9959 96.5125 30.9959 96.6074 30.9959C96.6333 30.8488 96.6333 30.8488 96.6597 30.6988C96.7469 30.2968 96.7469 30.2968 96.8864 29.9036C97.0209 29.4738 97.0783 29.0676 97.1267 28.6208C97.2047 28.0535 97.3834 27.5171 97.5911 26.9854C97.7487 26.4332 97.761 25.918 97.7555 25.3491C97.7555 25.2393 97.7554 25.1294 97.7553 25.0162C97.7549 24.7855 97.7538 24.5547 97.7521 24.324C97.7495 23.9699 97.7492 23.616 97.7492 23.2619C97.7486 23.0373 97.7477 22.8127 97.7468 22.588C97.7466 22.482 97.7465 22.376 97.7463 22.2668C97.7518 21.7203 97.7518 21.7203 97.5839 21.2097C97.5783 20.9301 97.5778 20.6504 97.5839 20.3708C97.4458 20.3247 97.3077 20.2786 97.1654 20.231C97.1654 20.0004 97.1654 19.7697 97.1654 19.532C97.0733 19.532 96.9812 19.532 96.8864 19.532C96.8777 19.3965 96.8691 19.261 96.8602 19.1214C96.7656 18.4292 96.4074 17.654 95.9099 17.1554C95.9042 16.9224 95.9039 16.6893 95.9099 16.4564C95.8178 16.4564 95.7257 16.4564 95.6309 16.4564C95.6309 16.3641 95.6309 16.2718 95.6309 16.1768Z" fill="#FF9169"/>
<path d="M75.4023 36.5879C75.6786 36.6802 75.9548 36.7724 76.2393 36.8675C76.2393 36.9598 76.2393 37.052 76.2393 37.1471C76.6997 37.2855 77.16 37.4239 77.6343 37.5665C77.6343 37.6588 77.6343 37.751 77.6343 37.8461C77.7768 37.8288 77.7768 37.8288 77.9221 37.8112C78.3889 37.851 78.6504 38.0272 79.0419 38.2721C79.4876 38.495 79.9318 38.5026 80.4244 38.5451C80.4934 38.6143 80.4934 38.6143 80.5639 38.6849C80.8157 38.7368 81.0688 38.7824 81.3224 38.8247C82.0683 38.9495 82.0683 38.9495 82.3774 39.1043C82.5842 39.1172 82.7916 39.1214 82.9988 39.1212C83.1294 39.1213 83.2601 39.1215 83.3947 39.1217C83.5385 39.1212 83.6823 39.1207 83.8305 39.1202C83.9815 39.1202 84.1326 39.1203 84.2883 39.1203C84.7895 39.1202 85.2906 39.1191 85.7918 39.118C86.1386 39.1177 86.4854 39.1175 86.8322 39.1174C87.6528 39.1169 88.4734 39.1158 89.294 39.1144C90.3197 39.1127 91.3455 39.1119 92.3712 39.1112C94.2015 39.1097 96.0317 39.1073 97.8619 39.1043C97.9079 38.8737 97.954 38.643 98.0014 38.4053C98.1395 38.4515 98.2776 38.4976 98.4199 38.5451C98.2978 39.2267 98.2978 39.2267 98.1409 39.3839C97.9291 39.3973 97.7167 39.401 97.5045 39.4008C97.2982 39.401 97.2982 39.401 97.0878 39.4013C96.9356 39.4008 96.7835 39.4003 96.6268 39.3998C96.388 39.3998 96.388 39.3998 96.1443 39.3999C95.6152 39.3998 95.0861 39.3987 94.5569 39.3976C94.1912 39.3973 93.8255 39.3971 93.4597 39.397C92.5937 39.3966 91.7276 39.3954 90.8615 39.394C89.8758 39.3925 88.89 39.3917 87.9042 39.391C85.8759 39.3895 83.8476 39.3871 81.8194 39.3839C81.8194 39.3378 81.8194 39.2917 81.8194 39.2441C81.7203 39.2256 81.6212 39.207 81.5191 39.1879C81.3909 39.1632 81.2627 39.1385 81.1306 39.1131C81.0027 39.0887 80.8749 39.0644 80.7431 39.0394C80.4244 38.9645 80.4244 38.9645 80.2849 38.8247C80.0502 38.7922 79.8146 38.767 79.5786 38.7461C79.4504 38.7344 79.3222 38.7227 79.1901 38.7106C79.091 38.7021 78.9919 38.6937 78.8899 38.6849C78.8899 38.5927 78.8899 38.5004 78.8899 38.4053C78.7431 38.4226 78.7431 38.4226 78.5934 38.4403C78.0595 38.3937 77.7986 38.1451 77.3553 37.8461C76.9431 37.6842 76.5246 37.5516 76.0998 37.4267C76.0998 37.2883 76.0998 37.1499 76.0998 37.0073C76.0107 36.99 75.9215 36.9727 75.8296 36.9549C75.7346 36.926 75.6397 36.8972 75.5418 36.8675C75.4958 36.7752 75.4498 36.683 75.4023 36.5879Z" fill="#FF9169"/>
<path d="M81.7046 9.72245C81.8584 9.72175 81.8584 9.72175 82.0154 9.72104C82.2345 9.72033 82.4535 9.72 82.6726 9.72003C82.999 9.71973 83.3253 9.71721 83.6516 9.71453C85.1069 9.70926 86.5196 9.82276 87.9603 10.0255C87.9603 10.1178 87.9603 10.2101 87.9603 10.3051C88.1111 10.2949 88.1111 10.2949 88.2649 10.2844C88.7147 10.3081 88.9689 10.4254 89.3641 10.6372C89.4808 10.6988 89.5975 10.7604 89.7177 10.8239C89.8283 10.8834 89.9389 10.9429 90.0528 11.0042C90.1562 11.0521 90.2596 11.1 90.3662 11.1494C90.6108 11.2838 90.6108 11.2838 90.7503 11.5634C90.992 11.6628 90.992 11.6628 91.2386 11.7643C91.3997 11.8364 91.5608 11.9085 91.7268 11.9828C91.7959 12.1904 91.7959 12.1904 91.8663 12.4022C91.7743 12.4022 91.6822 12.4022 91.5873 12.4022C91.5873 12.3099 91.5873 12.2176 91.5873 12.1226C91.5089 12.104 91.4305 12.0855 91.3498 12.0663C91.0163 11.9794 90.6931 11.875 90.3667 11.7643C90.2552 11.7267 90.1437 11.689 90.0289 11.6502C89.9447 11.6215 89.8605 11.5929 89.7738 11.5634C89.7738 11.4711 89.7738 11.3788 89.7738 11.2838C89.5437 11.2838 89.3135 11.2838 89.0763 11.2838C89.0763 11.1454 89.0763 11.007 89.0763 10.8644C88.7081 10.8644 88.3398 10.8644 87.9603 10.8644C87.9603 10.7721 87.9603 10.6798 87.9603 10.5847C87.6381 10.5847 87.3158 10.5847 86.9838 10.5847C86.9148 10.3771 86.9148 10.3771 86.8443 10.1653C86.7108 10.1678 86.7108 10.1678 86.5746 10.1703C86.4593 10.1715 86.3441 10.1728 86.2253 10.1741C86.0529 10.1765 86.0529 10.1765 85.8771 10.179C85.5888 10.1653 85.5888 10.1653 85.4493 10.0255C85.1721 10.0116 84.8943 10.0073 84.6167 10.007C84.4478 10.0068 84.279 10.0066 84.105 10.0064C83.9272 10.007 83.7493 10.0075 83.5661 10.0081C83.3882 10.0075 83.2104 10.007 83.0271 10.0064C82.8583 10.0066 82.6894 10.0068 82.5155 10.007C82.3593 10.0071 82.2031 10.0073 82.0422 10.0074C81.6924 9.98469 81.6924 9.98469 81.5433 10.1653C81.2616 10.1755 80.9795 10.1771 80.6976 10.1741C80.5435 10.1728 80.3894 10.1716 80.2306 10.1703C80.1114 10.1686 79.9922 10.167 79.8693 10.1653C79.8693 10.3037 79.8693 10.4422 79.8693 10.5847C79.501 10.5847 79.1328 10.5847 78.7533 10.5847C78.7533 10.677 78.7533 10.7693 78.7533 10.8644C78.5692 10.8182 78.385 10.7721 78.1953 10.7246C78.9031 10.3377 79.5245 10.0868 80.3178 9.94089C81.3012 9.72309 81.3012 9.72309 81.7046 9.72245Z" fill="#FF9169"/>
<path d="M96.6072 37.4268C97.0135 37.615 97.3456 37.8286 97.6883 38.117C97.7739 38.1875 97.8595 38.258 97.9477 38.3306C98.1417 38.5452 98.1417 38.5452 98.1417 38.9646C95.9941 38.9679 93.8465 38.9703 91.6989 38.9718C90.7017 38.9726 89.7045 38.9735 88.7073 38.9751C87.8379 38.9765 86.9685 38.9774 86.0991 38.9777C85.639 38.9779 85.1789 38.9784 84.7187 38.9794C84.2044 38.9804 83.6902 38.9805 83.1759 38.9805C83.0241 38.981 82.8724 38.9815 82.7161 38.982C80.7188 38.9793 80.7188 38.9793 80.4251 38.685C80.1575 38.659 80.1575 38.659 79.8846 38.6326C79.4951 38.5899 79.345 38.5733 79.0301 38.3267C78.9841 38.2604 78.9381 38.1941 78.8906 38.1258C79.8707 38.0588 80.937 38.2424 81.8201 38.685C82.0269 38.6979 82.2343 38.702 82.4415 38.7018C82.5722 38.702 82.7029 38.7022 82.8375 38.7024C82.9813 38.7019 83.1251 38.7014 83.2732 38.7009C83.4243 38.7009 83.5754 38.7009 83.731 38.7009C84.2322 38.7008 84.7334 38.6997 85.2346 38.6986C85.5814 38.6984 85.9282 38.6982 86.2749 38.698C87.0955 38.6976 87.9162 38.6965 88.7368 38.6951C89.7625 38.6933 90.7883 38.6926 91.814 38.6918C93.6442 38.6903 95.4745 38.6879 97.3047 38.685C97.1303 38.1743 97.0716 38.0166 96.6072 37.7064C96.6072 37.6141 96.6072 37.5218 96.6072 37.4268Z" fill="#FF9169"/>
<path d="M66.8955 11.1438C66.9415 11.1438 66.9875 11.1438 67.035 11.1438C67.081 20.1401 67.127 29.1364 67.1745 38.4053C67.0824 38.4053 66.9903 38.4053 66.8955 38.4053C66.7274 37.9001 66.7396 37.4421 66.7445 36.9165C66.7449 36.8065 66.7454 36.6965 66.7458 36.5832C66.7475 36.2136 66.7502 35.8439 66.7529 35.4743C66.7543 35.2098 66.7557 34.9453 66.757 34.6808C66.7607 33.9616 66.7653 33.2424 66.77 32.5232C66.7748 31.772 66.7788 31.0208 66.7828 30.2696C66.7907 28.8467 66.7992 27.4237 66.808 26.0007C66.818 24.3809 66.8272 22.7611 66.8364 21.1413C66.8552 17.8088 66.875 14.4763 66.8955 11.1438Z" fill="#FF9169"/>
<path d="M42.7603 10.8643C42.8064 10.8643 42.8524 10.8643 42.8998 10.8643C42.9013 11.0338 42.9027 11.2034 42.9042 11.3781C42.9178 12.9726 42.9321 14.567 42.9472 16.1614C42.9549 16.9812 42.9623 17.801 42.9692 18.6208C42.9758 19.4112 42.9831 20.2016 42.9909 20.9921C42.9938 21.2943 42.9964 21.5966 42.9987 21.8989C43.0021 22.3208 43.0063 22.7426 43.0107 23.1644C43.0115 23.2907 43.0123 23.417 43.0131 23.5471C42.965 24.1004 42.965 24.1004 43.1788 24.5649C43.4056 24.5821 43.6331 24.5898 43.8606 24.5936C44.0058 24.5964 44.151 24.5992 44.3006 24.6021C44.4586 24.6044 44.6165 24.6068 44.7793 24.6092C45.0205 24.6135 45.0205 24.6135 45.2666 24.618C45.7826 24.6271 46.2986 24.6354 46.8146 24.6436C47.1634 24.6496 47.5122 24.6557 47.8611 24.6619C48.7183 24.6769 49.5756 24.6911 50.4328 24.7047C50.4328 24.7509 50.4328 24.797 50.4328 24.8445C49.3626 24.8481 48.2923 24.8505 47.2221 24.8522C46.8576 24.8529 46.4932 24.8539 46.1288 24.8551C45.6063 24.8568 45.0838 24.8576 44.5613 24.8582C44.3972 24.8589 44.2332 24.8596 44.0642 24.8604C43.9134 24.8604 43.7625 24.8604 43.6072 24.8604C43.4737 24.8607 43.3401 24.861 43.2026 24.8614C42.8998 24.8445 42.8998 24.8445 42.7603 24.7047C42.747 24.2749 42.7428 23.8482 42.7445 23.4184C42.7445 23.2833 42.7444 23.1483 42.7444 23.0092C42.7445 22.5606 42.7456 22.1121 42.7467 21.6635C42.747 21.3534 42.7472 21.0433 42.7473 20.7332C42.7478 19.9152 42.7492 19.0972 42.7507 18.2792C42.7522 17.4452 42.7528 16.6113 42.7535 15.7773C42.755 14.1396 42.7574 12.5019 42.7603 10.8643Z" fill="#FF9169"/>
<path d="M69.1273 20.9299C69.1734 20.9299 69.2194 20.9299 69.2668 20.9299C69.2668 21.299 69.2668 21.6681 69.2668 22.0484C69.1748 22.0484 69.0827 22.0484 68.9878 22.0484C68.9878 23.2479 68.9878 24.4474 68.9878 25.6832C69.0799 25.6832 69.172 25.6832 69.2668 25.6832C69.3129 26.3291 69.3589 26.975 69.4063 27.6405C69.4984 27.6405 69.5905 27.6405 69.6853 27.6405C69.6938 27.7333 69.7022 27.8261 69.7109 27.9217C69.7967 28.8357 69.7967 28.8357 69.9643 29.7375C70.0564 29.7375 70.1485 29.7375 70.2433 29.7375C70.2894 29.9682 70.3354 30.1989 70.3828 30.4365C70.4749 30.4365 70.567 30.4365 70.6618 30.4365C70.6618 30.6211 70.6618 30.8056 70.6618 30.9957C70.7539 30.9957 70.846 30.9957 70.9408 30.9957C70.9782 31.1428 71.0156 31.2898 71.0542 31.4414C71.203 31.9203 71.3688 32.2569 71.6383 32.6734C71.7333 32.8588 71.8271 33.0448 71.9173 33.2326C71.0674 32.6581 70.7299 31.9514 70.3828 30.9957C70.3828 30.9035 70.3828 30.8112 70.3828 30.7161C70.2908 30.7161 70.1987 30.7161 70.1038 30.7161C69.9202 30.2101 69.8248 29.8639 69.8248 29.3181C69.7328 29.3181 69.6407 29.3181 69.5458 29.3181C68.8082 26.7355 68.7665 24.2876 68.8483 21.6289C68.9404 21.6289 69.0325 21.6289 69.1273 21.6289C69.1273 21.3983 69.1273 21.1676 69.1273 20.9299Z" fill="#FF9169"/>
<path d="M73.7293 13.241C73.8214 13.2871 73.9134 13.3332 74.0083 13.3808C73.9394 13.4332 73.8706 13.4857 73.7996 13.5397C73.2376 13.9896 73.0207 14.2017 72.8923 14.9186C72.6865 15.0935 72.4799 15.2679 72.2646 15.4308C71.944 15.7169 71.8002 16.0653 71.6368 16.4564C71.4987 16.4564 71.3606 16.4564 71.2183 16.4564C71.1262 16.8255 71.0342 17.1946 70.9393 17.5749C70.8472 17.5749 70.7552 17.5749 70.6603 17.5749C70.643 17.6556 70.6258 17.7363 70.608 17.8195C70.5199 18.1373 70.3968 18.4032 70.2418 18.6933C70.1497 18.6933 70.0577 18.6933 69.9628 18.6933C69.9484 18.8028 69.934 18.9124 69.9192 19.0253C69.796 19.6764 69.6028 20.2985 69.4048 20.9301C69.2551 20.4727 69.2803 20.1711 69.3961 19.7068C69.4232 19.5951 69.4504 19.4834 69.4784 19.3683C69.5001 19.2839 69.5219 19.1996 69.5443 19.1127C69.6364 19.1127 69.7284 19.1127 69.8233 19.1127C69.8233 18.8359 69.8233 18.5591 69.8233 18.2739C69.9614 18.2047 69.9614 18.2047 70.1023 18.1341C70.3719 17.7288 70.5828 17.3058 70.7911 16.8671C71.0138 16.4104 71.2635 16.1057 71.6368 15.7574C71.6828 15.619 71.7289 15.4806 71.7763 15.338C71.8684 15.338 71.9604 15.338 72.0553 15.338C72.2053 14.9672 72.3475 14.5993 72.4738 14.2196C72.7267 14.0001 72.7267 14.0001 73.0318 13.7827C73.3961 13.5303 73.3961 13.5303 73.7293 13.241Z" fill="#FF9169"/>
<path d="M86.8438 10.1653C87.2206 10.2319 87.5645 10.3136 87.9249 10.4449C88.3109 10.5639 88.6009 10.6088 88.9973 10.6371C89.6586 10.6988 90.0646 10.9078 90.6103 11.2837C90.6563 11.376 90.7023 11.4682 90.7498 11.5633C90.9914 11.6628 90.9914 11.6628 91.238 11.7643C91.3991 11.8364 91.5603 11.9084 91.7263 11.9827C91.7953 12.1903 91.7953 12.1903 91.8658 12.4021C91.7737 12.4021 91.6816 12.4021 91.5868 12.4021C91.5868 12.3099 91.5868 12.2176 91.5868 12.1225C91.5084 12.104 91.43 12.0854 91.3492 12.0663C91.0157 11.9793 90.6925 11.8749 90.3661 11.7643C90.2546 11.7266 90.1432 11.6889 90.0283 11.6501C89.9441 11.6215 89.86 11.5928 89.7733 11.5633C89.7733 11.471 89.7733 11.3788 89.7733 11.2837C89.5431 11.2837 89.3129 11.2837 89.0758 11.2837C89.0758 11.1453 89.0758 11.0069 89.0758 10.8643C88.7075 10.8643 88.3392 10.8643 87.9598 10.8643C87.9598 10.772 87.9598 10.6798 87.9598 10.5847C87.6375 10.5847 87.3153 10.5847 86.9833 10.5847C86.9372 10.4463 86.8912 10.3079 86.8438 10.1653Z" fill="#FF9169"/>
<path d="M75.4023 36.5879C75.6786 36.6802 75.9548 36.7724 76.2393 36.8675C76.2393 36.9598 76.2393 37.052 76.2393 37.1471C76.6997 37.2855 77.16 37.4239 77.6343 37.5665C77.6343 37.6588 77.6343 37.751 77.6343 37.8461C77.7768 37.8288 77.7768 37.8288 77.9221 37.8112C78.3889 37.851 78.6504 38.0272 79.0419 38.2721C79.4876 38.495 79.9318 38.5026 80.4244 38.5451C80.4934 38.6143 80.4934 38.6143 80.5639 38.6849C80.8886 38.7363 81.2142 38.7831 81.5404 38.8247C81.5404 38.8709 81.5404 38.917 81.5404 38.9645C80.6821 38.9782 80.6821 38.9782 80.4244 38.9645C80.3783 38.9184 80.3323 38.8723 80.2849 38.8247C80.0502 38.7922 79.8146 38.767 79.5786 38.7461C79.4504 38.7344 79.3222 38.7227 79.1901 38.7106C79.091 38.7021 78.9919 38.6937 78.8899 38.6849C78.8899 38.5927 78.8899 38.5004 78.8899 38.4053C78.7431 38.4226 78.7431 38.4226 78.5934 38.4403C78.0595 38.3938 77.7986 38.1451 77.3553 37.8461C76.9431 37.6842 76.5246 37.5516 76.0998 37.4267C76.0998 37.2883 76.0998 37.1499 76.0998 37.0073C76.0107 36.99 75.9215 36.9727 75.8296 36.9549C75.7346 36.926 75.6397 36.8972 75.5418 36.8675C75.4958 36.7752 75.4498 36.683 75.4023 36.5879Z" fill="#FF9169"/>
<path d="M81.7417 9.57876C81.8798 9.57916 82.018 9.57955 82.1603 9.57996C82.5995 9.58152 83.0387 9.58503 83.4778 9.58859C83.7764 9.59 84.0751 9.59127 84.3737 9.59242C85.1039 9.59549 85.8341 9.60016 86.5643 9.60607C86.5643 9.74447 86.5643 9.88288 86.5643 10.0255C86.4264 10.0029 86.2886 9.98031 86.1466 9.95704C85.5843 9.87693 85.0259 9.86309 84.4587 9.86219C84.354 9.86173 84.2493 9.86126 84.1415 9.86078C83.9216 9.86008 83.7016 9.85975 83.4817 9.85977C83.1474 9.85946 82.8132 9.85692 82.479 9.85427C82.2641 9.85386 82.0492 9.85359 81.8343 9.85345C81.6863 9.85195 81.6863 9.85195 81.5353 9.85041C80.888 9.85335 80.343 9.96679 79.7288 10.1653C79.4968 10.2147 79.2645 10.2626 79.0312 10.3051C79.7136 9.46927 80.7612 9.56812 81.7417 9.57876Z" fill="#FF9169"/>
<path d="M96.609 37.4268C97.0153 37.615 97.3474 37.8286 97.6901 38.117C97.8185 38.2227 97.8185 38.2227 97.9495 38.3306C98.1435 38.5452 98.1435 38.5452 98.1435 38.9646C96.9005 38.9646 95.6576 38.9646 94.377 38.9646C94.377 38.9185 94.377 38.8723 94.377 38.8248C95.8271 38.7556 95.8271 38.7556 97.3065 38.685C97.1005 37.9776 97.1005 37.9776 96.609 37.7064C96.609 37.6141 96.609 37.5218 96.609 37.4268Z" fill="#FF9169"/>
<path d="M93.8184 34.491C94.0485 34.491 94.2787 34.491 94.5159 34.491C94.5763 34.6265 94.6367 34.762 94.699 34.9016C94.8927 35.3686 94.8927 35.3686 95.3529 35.4696C95.6232 35.6953 95.7826 35.9079 95.9632 36.2123C96.2334 36.6602 96.5469 37.0303 96.8874 37.4268C96.4059 37.2193 96.0938 36.9454 95.7256 36.5744C95.6141 36.4624 95.5026 36.3503 95.3877 36.235C95.2727 36.1179 95.1576 36.0009 95.039 35.8803C94.9217 35.7627 94.8045 35.6451 94.6837 35.5239C93.8184 34.6504 93.8184 34.6504 93.8184 34.491Z" fill="#FF9169"/>
<path d="M98.0039 22.3281C98.142 22.3743 98.2801 22.4204 98.4224 22.4679C98.4224 23.6213 98.4224 24.7747 98.4224 25.963C98.3303 26.0091 98.2383 26.0553 98.1434 26.1028C98.0974 24.8572 98.0513 23.6115 98.0039 22.3281Z" fill="#FF9169"/>
<path d="M69.9643 18.6934C70.1484 18.6934 70.3325 18.6934 70.5223 18.6934C70.5223 18.8318 70.5223 18.9702 70.5223 19.1128C70.6143 19.1128 70.7064 19.1128 70.8013 19.1128C70.7552 19.3434 70.7092 19.5741 70.6618 19.8118C70.4316 19.8579 70.2014 19.9041 69.9643 19.9516C69.8722 20.2745 69.7801 20.5975 69.6853 20.9302C69.5932 20.9302 69.5011 20.9302 69.4062 20.9302C69.548 20.1657 69.6951 19.4254 69.9643 18.6934Z" fill="#FF9169"/>
<path d="M73.7309 13.241C73.823 13.2871 73.915 13.3332 74.0099 13.3808C73.941 13.4332 73.8721 13.4857 73.8012 13.5397C73.2392 13.9896 73.0223 14.2017 72.8939 14.9186C72.6881 15.0935 72.4815 15.2679 72.2661 15.4308C71.9456 15.7169 71.8017 16.0653 71.6384 16.4564C71.5463 16.4103 71.4542 16.3642 71.3594 16.3166C71.5665 15.8322 71.5665 15.8322 71.7779 15.338C71.8699 15.338 71.962 15.338 72.0569 15.338C72.2069 14.9672 72.3491 14.5993 72.4754 14.2196C72.7282 14.0001 72.7282 14.0001 73.0334 13.7827C73.3977 13.5303 73.3977 13.5303 73.7309 13.241Z" fill="#FF9169"/>
<path d="M78.8906 38.1259C79.8101 38.0631 80.6683 38.256 81.5411 38.5453C81.6332 38.6376 81.7253 38.7299 81.8201 38.8249C81.6138 38.8287 81.4075 38.8314 81.2011 38.8337C81.0287 38.8361 81.0287 38.8361 80.8529 38.8386C80.5646 38.8249 80.5646 38.8249 80.4251 38.6851C80.1575 38.6592 80.1575 38.6592 79.8846 38.6327C79.4951 38.59 79.345 38.5734 79.0301 38.3269C78.9841 38.2606 78.9381 38.1942 78.8906 38.1259Z" fill="#FF9169"/>
<path d="M97.1645 29.1785C97.2106 29.1785 97.2566 29.1785 97.304 29.1785C97.3376 29.7499 97.2235 30.1818 97.025 30.7163C96.933 30.7163 96.8409 30.7163 96.746 30.7163C96.746 30.947 96.746 31.1776 96.746 31.4153C96.654 31.4153 96.5619 31.4153 96.467 31.4153C96.467 31.5999 96.467 31.7844 96.467 31.9745C96.3289 31.9745 96.1908 31.9745 96.0485 31.9745C96.0485 32.1129 96.0485 32.2513 96.0485 32.3939C95.9565 32.3478 95.8644 32.3017 95.7695 32.2541C95.8357 32.1503 95.9019 32.0465 95.9701 31.9396C96.1572 31.6096 96.2595 31.3641 96.3275 30.9959C96.4196 30.9959 96.5117 30.9959 96.6065 30.9959C96.6209 30.9036 96.6353 30.8114 96.6501 30.7163C96.7728 30.1797 96.965 29.6914 97.1645 29.1785Z" fill="#FF9169"/>
<path d="M77.7755 10.8643C77.7755 11.0027 77.7755 11.1411 77.7755 11.2837C77.5453 11.2837 77.3152 11.2837 77.078 11.2837C77.078 11.3759 77.078 11.4682 77.078 11.5633C76.9859 11.5633 76.8939 11.5633 76.799 11.5633C76.799 11.6555 76.799 11.7478 76.799 11.8429C76.5228 11.8429 76.2466 11.8429 75.962 11.8429C75.962 11.9351 75.962 12.0274 75.962 12.1225C75.8699 12.1225 75.7779 12.1225 75.683 12.1225C75.683 12.2609 75.683 12.3993 75.683 12.5419C75.4989 12.4958 75.3147 12.4496 75.125 12.4021C75.7307 11.4519 76.7442 11.1823 77.7755 10.8643Z" fill="#FF9169"/>
<path d="M81.6828 9.88551C81.6368 9.97778 81.5907 10.07 81.5433 10.1651C80.9909 10.1651 80.4385 10.1651 79.8693 10.1651C79.8693 10.3035 79.8693 10.4419 79.8693 10.5845C79.501 10.5845 79.1328 10.5845 78.7533 10.5845C78.7533 10.6768 78.7533 10.7691 78.7533 10.8641C78.5692 10.818 78.385 10.7719 78.1953 10.7243C79.2921 10.1022 80.414 9.81678 81.6828 9.88551Z" fill="#FF9169"/>
<path d="M69.1267 20.9299C69.1727 20.9299 69.2187 20.9299 69.2662 20.9299C69.2662 21.299 69.2662 21.6681 69.2662 22.0484C69.1741 22.0484 69.082 22.0484 68.9872 22.0484C68.9872 23.3863 68.9872 24.7242 68.9872 26.1026C68.9411 26.1026 68.8951 26.1026 68.8477 26.1026C68.8477 24.6263 68.8477 23.15 68.8477 21.6289C68.9397 21.6289 69.0318 21.6289 69.1267 21.6289C69.1267 21.3983 69.1267 21.1676 69.1267 20.9299Z" fill="#FF9169"/>
<path d="M90.4698 30.0173C90.654 30.0173 90.8381 30.0173 91.0278 30.0173C91.1199 30.2019 91.212 30.3864 91.3068 30.5765C91.0767 30.5304 90.8465 30.4843 90.6093 30.4367C90.5633 30.5751 90.5173 30.7136 90.4698 30.8562C90.7 30.9946 90.9302 31.133 91.1673 31.2756C91.1213 31.4601 91.0753 31.6446 91.0278 31.8348C90.215 31.1293 90.215 31.1293 90.1211 30.6115C90.1908 30.2969 90.1908 30.2969 90.4698 30.0173Z" fill="#FF9169"/>
<path d="M69.2653 20.9299C69.3114 20.9299 69.3574 20.9299 69.4048 20.9299C69.4326 22.9883 69.4326 22.9883 69.2653 23.726C69.1733 23.7721 69.0812 23.8183 68.9863 23.8658C68.9863 23.266 68.9863 22.6663 68.9863 22.0484C69.0784 22.0484 69.1705 22.0484 69.2653 22.0484C69.2653 21.6793 69.2653 21.3102 69.2653 20.9299Z" fill="#FF9169"/>
<path d="M93.5396 32.8132C93.6777 32.8594 93.8158 32.9055 93.9581 32.953C93.9581 33.0914 93.9581 33.2298 93.9581 33.3724C94.0962 33.3724 94.2343 33.3724 94.3766 33.3724C94.3766 33.4647 94.3766 33.557 94.3766 33.652C94.5607 33.6982 94.7449 33.7443 94.9346 33.7919C94.6124 33.7457 94.2901 33.6996 93.9581 33.652C93.9121 33.9289 93.866 34.2057 93.8186 34.4909C93.5884 34.2602 93.3582 34.0295 93.1211 33.7919C93.3513 33.7919 93.5814 33.7919 93.8186 33.7919C93.8186 33.5612 93.8186 33.3305 93.8186 33.0928C93.7265 33.0928 93.6345 33.0928 93.5396 33.0928C93.5396 33.0006 93.5396 32.9083 93.5396 32.8132Z" fill="#FF9169"/>
<path d="M77.9141 37.9861C78.1205 38.0291 78.3269 38.073 78.5331 38.1171C78.648 38.1415 78.7629 38.1658 78.8813 38.1909C79.1696 38.2657 79.1696 38.2657 79.3091 38.4055C79.4943 38.4343 79.6805 38.4567 79.8671 38.4754C80.4096 38.5298 80.4096 38.5298 80.5646 38.6851C80.8894 38.7365 81.2149 38.7833 81.5411 38.8249C81.5411 38.871 81.5411 38.9172 81.5411 38.9647C80.6828 38.9784 80.6828 38.9784 80.4251 38.9647C80.379 38.9186 80.333 38.8724 80.2856 38.8249C80.051 38.7923 79.8153 38.7672 79.5793 38.7463C79.4511 38.7345 79.3229 38.7228 79.1908 38.7108C79.0422 38.6981 79.0422 38.6981 78.8906 38.6851C78.8906 38.5928 78.8906 38.5006 78.8906 38.4055C78.7266 38.4185 78.7266 38.4185 78.5593 38.4317C78.4384 38.4231 78.3176 38.4144 78.1931 38.4055C78.101 38.2671 78.0089 38.1287 77.9141 37.9861Z" fill="#FF9169"/>
<path d="M74.1484 35.4695C74.5628 35.5387 74.5628 35.5387 74.9854 35.6093C74.9854 35.7477 74.9854 35.8861 74.9854 36.0287C75.3077 36.0287 75.6299 36.0287 75.9619 36.0287C75.8238 36.0979 75.8238 36.0979 75.6829 36.1685C75.6829 36.3069 75.6829 36.4453 75.6829 36.5879C74.8924 36.4037 74.6138 36.1004 74.1484 35.4695Z" fill="#FF9169"/>
<path d="M75.1238 11.9827C75.2619 12.0288 75.4 12.0749 75.5423 12.1225C75.3657 12.2834 75.1883 12.4435 75.0105 12.603C74.9117 12.6922 74.813 12.7815 74.7113 12.8734C74.4263 13.1011 74.4263 13.1011 74.0078 13.2409C74.0078 13.0102 74.0078 12.7795 74.0078 12.5419C74.192 12.5419 74.3761 12.5419 74.5658 12.5419C74.5658 12.4496 74.5658 12.3573 74.5658 12.2623C74.75 12.2623 74.9341 12.2623 75.1238 12.2623C75.1238 12.17 75.1238 12.0777 75.1238 11.9827Z" fill="#FF9169"/>
<path d="M89.2148 10.7246C89.7664 10.8036 90.1518 10.9651 90.6098 11.2838C90.6559 11.3761 90.7019 11.4684 90.7493 11.5634C90.9105 11.6297 91.0716 11.6961 91.2376 11.7644C91.4793 11.8725 91.4793 11.8725 91.7258 11.9828C91.7719 12.1212 91.8179 12.2596 91.8653 12.4022C91.7733 12.4022 91.6812 12.4022 91.5863 12.4022C91.5863 12.31 91.5863 12.2177 91.5863 12.1226C91.5144 12.1111 91.4425 12.0996 91.3684 12.0877C90.5894 11.8475 89.8772 11.3339 89.2148 10.8644C89.2148 10.8183 89.2148 10.7721 89.2148 10.7246Z" fill="#FF9169"/>
<path d="M79.0328 10.305C78.3443 10.8622 77.6829 11.1783 76.8008 11.2836C76.8008 11.1913 76.8008 11.099 76.8008 11.004C76.9849 11.004 77.1691 11.004 77.3588 11.004C77.3588 10.8656 77.3588 10.7272 77.3588 10.5846C77.9415 10.3621 78.4094 10.2752 79.0328 10.305Z" fill="#FF9169"/>
<path d="M81.4551 9.58866C81.6091 9.59055 81.6091 9.59055 81.7662 9.59248C82.0171 9.59574 82.2679 9.60076 82.5188 9.60613C82.5188 9.65227 82.5188 9.6984 82.5188 9.74593C82.3992 9.75278 82.2796 9.75963 82.1564 9.76669C81.3053 9.82246 80.5376 9.89515 79.7288 10.1653C79.4968 10.2148 79.2645 10.2626 79.0312 10.3051C79.6522 9.5446 80.5541 9.56743 81.4551 9.58866Z" fill="#FF9169"/>
<path d="M97.7229 26.5222C97.769 26.5222 97.815 26.5222 97.8624 26.5222C97.7925 27.1528 97.706 27.7766 97.5922 28.4008C97.5708 28.5189 97.5494 28.6369 97.5273 28.7585C97.4998 28.851 97.4723 28.9434 97.4439 29.0387C97.3519 29.0848 97.2598 29.1309 97.1649 29.1785C97.1185 28.2243 97.4188 27.4149 97.7229 26.5222Z" fill="#FF9169"/>
<path d="M95.6309 16.1768C95.769 16.2229 95.9071 16.269 96.0494 16.3166C96.0494 16.455 96.0494 16.5934 96.0494 16.736C96.1875 16.736 96.3256 16.736 96.4679 16.736C96.6673 17.0651 96.7589 17.2225 96.6945 17.6097C96.6658 17.6905 96.637 17.7712 96.6074 17.8544C95.9206 17.2522 95.9206 17.2522 95.8663 16.7622C95.8807 16.6613 95.895 16.5603 95.9099 16.4564C95.8178 16.4564 95.7257 16.4564 95.6309 16.4564C95.6309 16.3641 95.6309 16.2718 95.6309 16.1768Z" fill="#FF9169"/>
<path d="M86.7031 10.0254C87.1174 10.0254 87.5318 10.0254 87.9586 10.0254C87.9586 10.1177 87.9586 10.2099 87.9586 10.305C88.0622 10.2963 88.1658 10.2877 88.2725 10.2788C88.7194 10.3093 88.885 10.4312 89.2141 10.7244C88.4996 10.7768 88.0466 10.5993 87.4006 10.305C87.013 10.2083 87.013 10.2083 86.7031 10.1652C86.7031 10.1191 86.7031 10.0729 86.7031 10.0254Z" fill="#FF9169"/>
<path d="M89.9121 30.2969C90.0042 30.2969 90.0962 30.2969 90.1911 30.2969C90.2256 30.4209 90.2602 30.5449 90.2957 30.6726C90.4756 31.1503 90.6933 31.4544 91.0281 31.8347C90.7519 31.7424 90.4757 31.6502 90.1911 31.5551C90.1911 31.4628 90.1911 31.3706 90.1911 31.2755C90.099 31.2755 90.007 31.2755 89.9121 31.2755C89.9121 30.9526 89.9121 30.6296 89.9121 30.2969Z" fill="#FF9169"/>
<path d="M90.611 30.2969C90.9563 30.4353 90.9563 30.4353 91.3085 30.5765C91.3085 30.7149 91.3085 30.8533 91.3085 30.9959C91.0557 31.0833 91.0557 31.0833 90.7505 31.1357C90.6124 31.0434 90.4743 30.9512 90.332 30.8561C90.4241 30.6715 90.5162 30.487 90.611 30.2969Z" fill="#FF9169"/>
<path d="M96.8861 29.1785C96.9782 29.1785 97.0703 29.1785 97.1651 29.1785C97.0984 29.4028 97.0315 29.627 96.9646 29.8513C96.9274 29.9762 96.8901 30.101 96.8518 30.2297C96.774 30.4863 96.6917 30.7415 96.6071 30.9959C96.5151 30.9959 96.423 30.9959 96.3281 30.9959C96.3742 30.6268 96.4202 30.2577 96.4676 29.8775C96.6057 29.8313 96.7438 29.7852 96.8861 29.7377C96.8861 29.5531 96.8861 29.3686 96.8861 29.1785Z" fill="#FF9169"/>
<path d="M96.748 17.8545C96.8862 17.8545 97.0243 17.8545 97.1665 17.8545C97.3047 18.5004 97.4428 19.1463 97.585 19.8117C97.493 19.8117 97.4009 19.8117 97.306 19.8117C97.239 19.5904 97.1722 19.3691 97.1055 19.1477C97.0683 19.0244 97.0311 18.9011 96.9927 18.7741C96.9036 18.4688 96.8223 18.1637 96.748 17.8545Z" fill="#FF9169"/>
<path d="M97.3047 19.8115C97.4428 19.8577 97.5809 19.9038 97.7232 19.9513C98.0072 20.6606 98.0342 21.4339 98.0022 22.1882C97.9562 22.1882 97.9101 22.1882 97.8627 22.1882C97.6785 21.4039 97.4944 20.6196 97.3047 19.8115Z" fill="#FF9169"/>
<path d="M94.0971 13.5205C94.2831 13.8933 94.4691 14.2661 94.6551 14.6389C94.1256 14.4305 93.8724 14.1137 93.5391 13.6603C93.7232 13.6142 93.9073 13.568 94.0971 13.5205Z" fill="#FF9169"/>
<path d="M74.1481 13.1011C74.1941 13.1933 74.2402 13.2856 74.2876 13.3807C74.0609 13.7914 74.0609 13.7914 73.7296 14.2195C73.2762 14.3418 73.2762 14.3418 72.8926 14.3593C73.3111 13.9399 73.7296 13.5205 74.1481 13.1011Z" fill="#FF9169"/>
<path d="M96.6074 37.4268C97.2057 37.6488 97.4895 38.0463 97.8629 38.5452C97.8629 38.6375 97.8629 38.7297 97.8629 38.8248C97.6014 38.7986 97.6014 38.7986 97.3049 38.685C97.2049 38.4549 97.112 38.2216 97.0259 37.986C96.8878 37.8937 96.7497 37.8014 96.6074 37.7064C96.6074 37.6141 96.6074 37.5218 96.6074 37.4268Z" fill="#FF9169"/>
<path d="M70.6615 16.4563C70.7996 16.5024 70.9377 16.5486 71.08 16.5961C70.812 17.1737 70.5161 17.6492 70.1035 18.1339C70.1035 17.9033 70.1035 17.6726 70.1035 17.4349C70.1956 17.4349 70.2877 17.4349 70.3825 17.4349C70.3825 17.2965 70.3825 17.1581 70.3825 17.0155C70.4746 17.0155 70.5667 17.0155 70.6615 17.0155C70.6615 16.831 70.6615 16.6464 70.6615 16.4563Z" fill="#FF9169"/>
<path d="M74.9854 12.542C75.1235 12.5881 75.2616 12.6343 75.4039 12.6818C75.2208 12.8915 75.2208 12.8915 74.9854 13.1012C74.8473 13.1012 74.7092 13.1012 74.5669 13.1012C74.4749 13.2857 74.3828 13.4703 74.2879 13.6604C74.2419 13.5681 74.1959 13.4759 74.1484 13.3808C74.6716 12.6993 74.6716 12.6993 74.9854 12.542Z" fill="#FF9169"/>
<path d="M84.8887 9.88574C84.9779 9.90593 85.0671 9.92611 85.159 9.94691C85.7171 10.0496 86.2774 10.1074 86.8417 10.1653C86.8417 10.2115 86.8417 10.2576 86.8417 10.3052C86.1972 10.3052 85.5527 10.3052 84.8887 10.3052C84.8887 10.1667 84.8887 10.0283 84.8887 9.88574Z" fill="#FF9169"/>
<path d="M76.5195 37.1472C76.9906 37.2223 77.4537 37.3025 77.9145 37.4268C77.9145 37.5191 77.9145 37.6114 77.9145 37.7064C78.0066 37.7526 78.0987 37.7987 78.1935 37.8462C78.0094 37.8462 77.8253 37.8462 77.6355 37.8462C77.6355 37.754 77.6355 37.6617 77.6355 37.5666C77.5291 37.5753 77.4226 37.5839 77.3129 37.5928C76.938 37.5666 76.938 37.5666 76.6852 37.3569C76.6032 37.2531 76.6032 37.2531 76.5195 37.1472Z" fill="#FF9169"/>
<path d="M92.2832 33.093C92.536 33.1105 92.536 33.1105 92.8412 33.2328C93.0853 33.661 93.0853 33.661 93.2597 34.0716C92.9835 34.21 92.9835 34.21 92.7017 34.3512C92.6557 34.0283 92.6096 33.7054 92.5622 33.3726C92.4701 33.3726 92.3781 33.3726 92.2832 33.3726C92.2832 33.2804 92.2832 33.1881 92.2832 33.093Z" fill="#FF9169"/>
<path d="M88.6562 10.7246C89.3195 10.8052 89.7681 11.0812 90.3303 11.4236C90.1461 11.4698 89.962 11.5159 89.7723 11.5634C89.7723 11.4712 89.7723 11.3789 89.7723 11.2838C89.5421 11.2838 89.3119 11.2838 89.0748 11.2838C89.0748 11.1454 89.0748 11.007 89.0748 10.8644C88.9366 10.8183 88.7985 10.7721 88.6562 10.7246Z" fill="#FF9169"/>
<path d="M73.3125 34.9104C73.9088 35.1317 74.1865 35.5403 74.568 36.0288C74.3839 36.0288 74.1997 36.0288 74.01 36.0288C73.7833 35.7055 73.7833 35.7055 73.5915 35.3298C73.4994 35.1914 73.4074 35.053 73.3125 34.9104Z" fill="#FF9169"/>
<path d="M69.1267 20.9299C69.1727 20.9299 69.2187 20.9299 69.2662 20.9299C69.2662 21.299 69.2662 21.6681 69.2662 22.0484C69.1741 22.0484 69.082 22.0484 68.9872 22.0484C68.9872 22.279 68.9872 22.5097 68.9872 22.7474C68.9411 22.7474 68.8951 22.7474 68.8477 22.7474C68.8477 22.3783 68.8477 22.0092 68.8477 21.6289C68.9397 21.6289 69.0318 21.6289 69.1267 21.6289C69.1267 21.3983 69.1267 21.1676 69.1267 20.9299Z" fill="#FF9169"/>
<path d="M95.6309 36.4482C95.9531 36.7251 96.2754 37.0019 96.6074 37.2871C96.3284 37.2871 96.0494 37.2871 95.7704 37.2871C95.7243 37.0102 95.6783 36.7334 95.6309 36.4482Z" fill="#FF9169"/>
<path d="M91.0273 31.8347C91.3092 32.0642 91.5882 32.2973 91.8643 32.5337C91.8643 32.5799 91.8643 32.626 91.8643 32.6735C91.6342 32.6735 91.404 32.6735 91.1668 32.6735C91.1208 32.3967 91.0748 32.1199 91.0273 31.8347Z" fill="#FF9169"/>
<path d="M97.4453 20.3708C97.4913 20.3708 97.5374 20.3708 97.5848 20.3708C97.9024 21.4943 97.9024 21.4943 97.7243 22.0485C97.7243 21.9562 97.7243 21.8639 97.7243 21.7689C97.6322 21.7689 97.5402 21.7689 97.4453 21.7689C97.4453 21.3075 97.4453 20.8462 97.4453 20.3708Z" fill="#FF9169"/>
<path d="M93.2598 34.0715C93.582 34.3483 93.9043 34.6252 94.2363 34.9104C94.0982 34.9796 94.0982 34.9796 93.9573 35.0502C93.8652 35.004 93.7731 34.9579 93.6783 34.9104C93.6783 34.8181 93.6783 34.7258 93.6783 34.6307C93.5402 34.6307 93.4021 34.6307 93.2598 34.6307C93.2598 34.4462 93.2598 34.2617 93.2598 34.0715Z" fill="#FF9169"/>
<path d="M71.6367 32.6736C71.8983 32.761 71.8983 32.761 72.1947 32.9532C72.3691 33.3901 72.3691 33.3901 72.4737 33.792C71.9871 33.4831 71.8138 33.2208 71.6367 32.6736Z" fill="#FF9169"/>
<path d="M94.7949 14.9185C94.933 14.9646 95.0711 15.0107 95.2134 15.0583C95.2134 15.1505 95.2134 15.2428 95.2134 15.3379C95.3055 15.3379 95.3976 15.3379 95.4924 15.3379C95.5385 15.6147 95.5845 15.8915 95.6319 16.1767C95.2021 15.789 94.978 15.4688 94.7949 14.9185Z" fill="#FF9169"/>
<path d="M89.2148 10.7246C89.8288 10.7949 90.1512 11.0165 90.6098 11.4236C90.059 11.3448 89.674 11.1799 89.2148 10.8644C89.2148 10.8183 89.2148 10.7721 89.2148 10.7246Z" fill="#FF9169"/>
</g>
<defs>
<clipPath id="clip0_616_286">
<rect width="101.376" height="48.6605" fill="white"/>
</clipPath>
</defs>
</svg>
