<svg width="194" height="49" viewBox="0 0 194 49" fill="none" xmlns="http://www.w3.org/2000/svg">
<g clip-path="url(#clip0_1849_5582)">
<path d="M78.8032 33.4968C78.8032 33.0839 78.5452 32.7742 77.9774 32.671V32.4129C78.2871 32.4129 79.2677 32.4646 79.5774 32.4646C79.8355 32.4646 80.7645 32.4129 81.0742 32.4129V32.671C80.5581 32.7742 80.3 33.0839 80.3 33.4968V38.6581C80.3 40.3097 81.1774 41.2387 83.0871 41.2387C84.6871 41.2387 85.9774 40.5162 85.9774 38.8129V33.4452C85.9774 33.0839 85.7194 32.7742 85.1516 32.6194V32.3613C85.3581 32.3613 86.1839 32.4129 86.4935 32.4129C86.7516 32.4129 87.629 32.3613 87.8355 32.3613V32.6194C87.2677 32.7742 87.0097 33.0323 87.0097 33.4452V38.5033C87.0097 40.7742 85.7194 42.0646 82.8806 42.0646C80.2484 42.0646 78.8548 40.8775 78.8548 38.7613V33.4968H78.8032Z" fill="#1E1E1E"/>
<path d="M90.1582 41.6516C90.7776 41.5484 91.0356 41.2387 91.0356 40.8258V33.7033C91.0356 33.0839 90.7259 32.8258 90.1582 32.671V32.4129C90.4679 32.4129 90.984 32.4646 91.2421 32.4646C91.5001 32.4646 91.8614 32.4646 92.1195 32.4129L98.313 39.6904V33.4452C98.313 33.0839 98.055 32.7742 97.4872 32.6194V32.3613C97.6937 32.3613 98.5195 32.4129 98.7776 32.4129C99.0356 32.4129 99.8614 32.3613 100.119 32.3613V32.6194C99.5518 32.7742 99.2421 33.0323 99.2421 33.4452V42.0129H98.8808C98.6227 41.9613 98.2098 41.7033 97.5388 40.9807L91.9647 34.5291V40.8258C91.9647 41.1871 92.1711 41.4968 92.7905 41.6516V41.9097C92.584 41.9097 91.7582 41.8581 91.5001 41.8581C91.2421 41.8581 90.4163 41.9097 90.2098 41.9097V41.6516H90.1582Z" fill="#1E1E1E"/>
<path d="M139.139 39.6904H139.397C139.552 40.2065 139.861 40.7226 140.274 40.9807C140.739 41.2904 141.41 41.4452 141.977 41.4452C143.216 41.4452 144.042 40.8258 144.042 39.8452C144.042 38.8129 143.01 38.2968 141.823 37.6774C140.894 37.2129 139.139 36.4904 139.139 34.7871C139.139 33.1871 140.377 32.2065 142.287 32.2065C143.577 32.2065 144.197 32.5162 145.023 32.4645V34.4258H144.764C144.403 33.2904 143.371 32.8774 142.235 32.8774C140.945 32.8774 140.481 33.6 140.481 34.3226C140.481 35.3549 141.513 35.9226 142.7 36.4387C144.042 37.0065 145.435 37.7807 145.435 39.4323C145.435 40.9807 144.197 42.1162 141.977 42.1162C140.635 42.1162 139.861 41.7549 139.139 41.6516V39.6904Z" fill="#1E1E1E"/>
<path d="M165.823 37.9871L163.294 33.9097C162.881 33.1871 162.519 32.8258 162.055 32.6194V32.3613C162.416 32.3613 163.345 32.4129 163.603 32.4129C163.861 32.4129 164.842 32.3613 165.203 32.3613V32.6194C164.894 32.671 164.739 32.8258 164.739 33.0839C164.739 33.2904 164.894 33.6 165.048 33.8065C165.203 34.0646 166.907 36.9033 166.907 36.9033L168.713 33.8065C168.919 33.4968 169.023 33.1871 169.023 32.9807C169.023 32.7742 168.868 32.671 168.61 32.6194V32.3613C168.919 32.3613 169.539 32.4129 169.745 32.4129C169.952 32.4129 170.674 32.3613 170.984 32.3613V32.6194C170.313 32.8775 169.848 33.4968 169.436 34.2194L167.165 38.0387M167.268 37.5742V40.8258C167.268 41.1355 167.526 41.5484 168.042 41.6516V41.9097C167.732 41.9097 166.7 41.8581 166.442 41.8581C166.184 41.8581 165.255 41.9097 164.894 41.9097V41.6516C165.461 41.5484 165.719 41.1355 165.719 40.8258V37.7291" fill="#1E1E1E"/>
<path d="M118.855 32.3613H124.79C124.997 32.3613 125.306 32.3613 125.461 32.2581H125.719L125.668 34.1678H125.41C125.203 33.5484 124.945 33.0839 123.81 33.0839H121.229V36.4388H123.19C123.5 36.4388 123.81 36.4388 123.964 36.3871C124.429 36.2839 124.584 36.0259 124.687 35.6646H124.945C124.945 35.9742 124.945 36.5936 124.945 36.8001C124.945 37.0065 124.945 37.6775 124.945 37.9871H124.739C124.635 37.6259 124.429 37.3162 124.016 37.213C123.861 37.1613 123.5 37.1613 123.242 37.1613H121.281V41.0839H124.068C125.306 41.0839 125.668 40.5678 125.926 39.8452L126.184 39.8968L125.926 41.8581C124.997 41.7549 124.481 41.7549 123.448 41.7549H120.506C120.197 41.7549 119.164 41.8065 118.855 41.8065V41.5484C119.371 41.4452 119.681 41.1872 119.681 40.671V33.4968C119.681 33.0323 119.422 32.7742 118.855 32.671V32.3613Z" fill="#1E1E1E"/>
<path d="M103.732 33.5485C103.732 33.084 103.423 32.7743 102.855 32.6711V32.413C103.165 32.413 104.197 32.4646 104.506 32.4646C104.765 32.4646 105.797 32.413 106.158 32.413V32.6711C105.59 32.7743 105.281 33.0324 105.281 33.5485V40.7743C105.281 41.2388 105.59 41.5485 106.158 41.6517V41.9098C105.848 41.9098 104.816 41.8582 104.506 41.8582C104.248 41.8582 103.165 41.9098 102.855 41.9098V41.6517C103.423 41.5485 103.732 41.2904 103.732 40.7743V33.5485Z" fill="#1E1E1E"/>
<path d="M148.687 33.5485C148.687 33.084 148.378 32.7743 147.81 32.6711V32.413C148.119 32.413 149.152 32.4646 149.461 32.4646C149.719 32.4646 150.752 32.413 151.113 32.413V32.6711C150.545 32.7743 150.236 33.0324 150.236 33.5485V40.7743C150.236 41.2388 150.545 41.5485 151.113 41.6517V41.9098C150.803 41.9098 149.771 41.8582 149.461 41.8582C149.203 41.8582 148.119 41.9098 147.81 41.9098V41.6517C148.378 41.5485 148.687 41.2904 148.687 40.7743V33.5485Z" fill="#1E1E1E"/>
<path d="M156.894 32.413C153.642 32.413 153.126 32.3614 152.455 32.3098V34.271H152.713C152.971 33.3936 153.435 33.1872 154.055 33.1872H156.068V40.7743C156.068 41.2904 155.81 41.5485 155.19 41.6517V41.9098C155.5 41.9098 156.584 41.8581 156.842 41.8581C157.152 41.8581 158.132 41.9098 158.494 41.9098V41.6517C157.926 41.5485 157.616 41.2388 157.616 40.7743V33.2388H159.629C160.3 33.2388 160.765 33.4452 160.971 34.3227H161.229V32.3614C160.661 32.3614 160.145 32.413 156.894 32.413Z" fill="#1E1E1E"/>
<path d="M130.984 40.7743C130.984 41.2388 131.294 41.5485 131.861 41.6517V41.9098C131.552 41.9098 130.519 41.8581 130.21 41.8581C129.952 41.8581 128.919 41.9098 128.61 41.9098V41.6517C129.126 41.5485 129.436 41.2904 129.436 40.7743V33.4452C129.436 32.9807 129.177 32.7227 128.61 32.6194V32.3614C128.919 32.3614 129.952 32.413 130.21 32.413C130.674 32.413 132.016 32.3098 132.532 32.3098C134.803 32.3098 136.094 33.2388 136.094 34.8388C136.094 36.1291 135.165 36.9549 133.719 37.3162C133.719 37.3162 134.029 37.5227 134.39 37.8839C134.803 38.3485 135.887 39.8969 136.352 40.4646C136.816 41.0323 137.384 41.6001 138.003 41.6517V41.8581C137.694 41.9098 137.229 41.9614 136.868 41.9614C136.094 41.9614 135.474 41.7033 134.855 40.9807C134.339 40.3614 133.461 39.0194 132.945 38.4001C132.636 37.9872 132.223 37.6259 131.5 37.5227C131.345 37.5227 131.242 37.471 131.036 37.471V40.7743H130.984ZM130.984 36.9033C131.294 36.9549 131.758 36.9549 132.171 36.9549C133.977 36.9549 134.494 35.9227 134.494 35.0452C134.494 33.7549 133.616 32.9807 132.068 32.9807C131.758 32.9807 131.294 33.0323 130.932 33.0839V36.9033H130.984Z" fill="#1E1E1E"/>
<path d="M108.429 33.5484C108.223 33.0839 107.913 32.7742 107.345 32.6194V32.3613C107.707 32.3613 108.842 32.4129 109.1 32.4129C109.358 32.4129 110.339 32.3613 110.7 32.3613V32.6194C110.39 32.671 110.029 32.8258 110.029 33.1871C110.029 33.3936 110.184 33.7033 110.442 34.3226L112.919 39.8968L115.242 34.3226C115.448 33.8581 115.552 33.4968 115.552 33.2387C115.552 32.9291 115.294 32.7226 114.881 32.671V32.4129C115.19 32.4129 115.965 32.4646 116.171 32.4646C116.377 32.4646 117.255 32.4129 117.616 32.4129V32.671C117.048 32.8258 116.687 33.1355 116.377 33.9097L112.971 41.9613H112.197L108.429 33.5484Z" fill="#1E1E1E"/>
<path d="M117.152 8.15494C116.739 7.27752 116.171 6.65817 115.139 6.4001V5.88397C115.758 5.88397 117.874 5.93559 118.39 5.93559C118.855 5.93559 120.868 5.88397 121.539 5.88397V6.4001C120.971 6.50333 120.3 6.813 120.3 7.43236C120.3 7.84526 120.558 8.413 121.074 9.54849L125.719 20.1291L130.106 9.54849C130.468 8.67107 130.726 8.05171 130.726 7.53559C130.726 6.96784 130.21 6.60655 129.487 6.45171V5.93559C130.055 5.93559 131.5 5.9872 131.913 5.9872C132.326 5.9872 134.029 5.93559 134.648 5.93559V6.4001C133.564 6.70978 132.894 7.32913 132.274 8.77429L125.771 24.0517H124.326L117.152 8.15494Z" fill="#1E1E1E"/>
<path d="M54.4937 23.4323C55.3195 23.2259 55.9388 22.8646 55.9388 21.8839V7.89685C55.9388 6.96782 55.3711 6.60653 54.4937 6.34847V5.83234C54.9582 5.83234 56.8678 5.88395 57.3324 5.88395C57.8485 5.88395 59.8614 5.83234 60.3259 5.83234V6.34847C59.5001 6.55492 58.8291 6.91621 58.8291 7.89685V13.7291H69.2549V7.89685C69.2549 6.91621 68.6872 6.55492 67.8098 6.34847V5.83234C68.2743 5.83234 70.2356 5.88395 70.7517 5.88395C71.2162 5.88395 73.1775 5.83234 73.5904 5.83234V6.34847C72.7646 6.55492 72.0937 6.91621 72.0937 7.89685V21.8839C72.0937 22.813 72.6614 23.1743 73.5904 23.4323V23.8969C73.1775 23.8969 71.2162 23.8452 70.7517 23.8452C70.2356 23.8452 68.2743 23.8969 67.8098 23.8969V23.4323C68.6356 23.2259 69.2549 22.8646 69.2549 21.8839V15.2775H58.8291V21.8839C58.8291 22.8646 59.3969 23.1743 60.3259 23.4323V23.8969C59.8614 23.8969 57.9001 23.8452 57.3324 23.8452C56.8678 23.8452 54.9582 23.8969 54.4937 23.8969V23.4323Z" fill="#1E1E1E"/>
<path d="M175.165 23.4323C176.248 23.2258 176.868 22.8129 176.868 21.8323V7.89678C176.868 6.91614 176.3 6.55485 175.216 6.3484V5.83227C175.836 5.83227 177.797 5.88388 178.313 5.88388C179.19 5.88388 181.616 5.67743 183.526 5.67743C189.926 5.67743 193.848 9.23872 193.848 14.7097C193.848 20.0258 189.771 23.9484 183.165 23.9484C181.255 23.9484 178.984 23.7936 178.106 23.7936C177.59 23.7936 175.732 23.8452 175.165 23.8452V23.4323ZM179.758 22.5032C180.429 22.6065 181.616 22.7097 182.597 22.7097C187.965 22.7097 190.803 19.4581 190.803 14.9161C190.803 10.2194 187.861 6.91614 182.803 6.91614C181.771 6.91614 180.481 6.96775 179.81 7.12259V22.5032H179.758Z" fill="#1E1E1E"/>
<path d="M102.545 21.7807C102.545 22.7097 103.113 23.2258 104.197 23.4323V23.9484C103.578 23.9484 101.616 23.8968 101.048 23.8968C100.584 23.8968 98.6227 23.9484 98.0549 23.9484V23.4323C99.0356 23.2258 99.6549 22.7613 99.6549 21.7807V7.94842C99.6549 7.12261 99.1904 6.55487 98.0549 6.34842V5.83229C98.6743 5.83229 100.584 5.8839 101.1 5.8839C101.978 5.8839 104.507 5.72906 105.487 5.72906C109.823 5.72906 112.197 7.53552 112.197 10.5807C112.197 13.0065 110.39 14.6065 107.655 15.2775C107.655 15.2775 108.274 15.6387 108.894 16.3613C109.668 17.2387 111.732 20.2839 112.61 21.3162C113.436 22.3484 114.571 23.4839 115.707 23.5355V23.9484C115.139 24.0516 114.261 24.1549 113.59 24.1549C112.145 24.1549 110.958 23.6387 109.823 22.2452C108.842 21.0581 107.139 18.5291 106.158 17.2387C105.539 16.4645 104.765 15.7936 103.371 15.5871C103.113 15.5355 102.855 15.4839 102.545 15.4839V21.7807ZM102.545 14.4516C103.113 14.5033 103.939 14.5549 104.816 14.5549C108.171 14.5549 109.255 12.5936 109.255 10.8904C109.255 8.46455 107.655 6.96777 104.661 6.96777C104.042 6.96777 103.165 7.01939 102.545 7.17423V14.4516Z" fill="#1E1E1E"/>
<path d="M159.423 21.7807C159.423 22.7097 159.99 23.2258 161.074 23.4323V23.9484C160.455 23.9484 158.494 23.8968 157.926 23.8968C157.461 23.8968 155.5 23.9484 154.932 23.9484V23.4323C155.913 23.2258 156.532 22.7613 156.532 21.7807V7.94842C156.532 7.12261 156.068 6.55487 154.932 6.34842V5.83229C155.552 5.83229 157.41 5.8839 157.977 5.8839C158.855 5.8839 161.384 5.72906 162.365 5.72906C166.7 5.72906 169.074 7.53552 169.074 10.5807C169.074 13.0065 167.268 14.6065 164.532 15.2775C164.532 15.2775 165.152 15.6387 165.771 16.3613C166.545 17.2387 168.661 20.2839 169.487 21.3162C170.365 22.3484 171.448 23.4839 172.584 23.5355V23.9484C172.016 24.0516 171.139 24.1549 170.468 24.1549C168.971 24.1549 167.835 23.6387 166.7 22.2452C165.719 21.0581 164.016 18.5291 163.035 17.2387C162.416 16.4645 161.642 15.7936 160.248 15.5871C159.99 15.5355 159.732 15.4839 159.423 15.4839V21.7807ZM159.423 14.4516C159.99 14.5033 160.816 14.5549 161.694 14.5549C165.048 14.5549 166.132 12.5936 166.132 10.8904C166.132 8.46455 164.532 6.96777 161.539 6.96777C160.919 6.96777 160.042 7.01939 159.423 7.17423V14.4516Z" fill="#1E1E1E"/>
<path d="M76.3774 23.4323C77.5129 23.1743 78.1323 22.4517 78.5452 21.4194L84.3258 7.53554C84.5839 6.9678 84.8419 5.7807 84.8419 5.7807H86.4419C86.4419 5.7807 86.7516 6.9678 86.9581 7.53554L93.0484 21.471C93.4613 22.4517 93.9774 23.1226 95.1645 23.4323V23.8968C94.4935 23.8968 92.429 23.8452 91.9645 23.8452C91.5 23.8452 89.5387 23.8968 88.8677 23.8968V23.4323C89.7452 23.2259 90.0548 22.7613 90.0548 22.3484C90.0548 21.9872 89.9 21.5743 89.6936 21.1097L88.4032 18.1162H81.6936L80.5065 21.1097C80.3516 21.471 80.1968 21.9355 80.1968 22.2452C80.1968 22.7613 80.4548 23.1226 81.4871 23.4323V23.8968C80.8677 23.8968 79.3194 23.8452 78.9581 23.8452L76.3258 23.8968L76.3774 23.4323ZM87.8871 16.671L84.9968 9.96135L82.3129 16.671H87.8871Z" fill="#1E1E1E"/>
<path d="M133.616 23.4323C134.752 23.1743 135.371 22.4517 135.784 21.4194L141.565 7.53554C141.823 6.9678 142.081 5.7807 142.081 5.7807H143.681C143.681 5.7807 143.99 6.9678 144.197 7.53554L150.287 21.471C150.7 22.4517 151.216 23.1226 152.403 23.4323V23.8968C151.732 23.8968 149.668 23.8452 149.203 23.8452C148.739 23.8452 146.777 23.8968 146.107 23.8968V23.4323C146.984 23.2259 147.294 22.7613 147.294 22.3484C147.294 21.9872 147.139 21.5743 146.984 21.1097L145.694 18.1162H138.984L137.797 21.1097C137.642 21.471 137.487 21.9355 137.487 22.2452C137.487 22.7613 137.745 23.1226 138.778 23.4323V23.8968C138.158 23.8968 136.61 23.8452 136.248 23.8452L133.616 23.8968V23.4323ZM145.126 16.671L142.236 9.96135L139.552 16.671H145.126Z" fill="#1E1E1E"/>
<path d="M1.17749 0.258179H41.4356V15.484C41.4356 22.4517 38.8549 37.2646 21.4614 48.2582C21.4614 48.2582 2.62265 40.3614 1.17749 15.484V0.258179Z" fill="#A51C30"/>
<path d="M1.12585 0.258057H41.3839V15.4839C41.3839 22.4516 38.8033 37.2129 21.4097 48.2581C21.4097 48.2581 2.57102 40.4129 1.12585 15.4839V0.258057Z" stroke="#191919" stroke-width="0.472258"/>
<path d="M31.6806 19.8194C31.6806 19.8194 31.3193 20.9548 29.7193 19.7677L24.2484 19.6129C24.2484 19.6129 23.5258 19.8194 23.4226 19.0968C23.4226 19.0968 23.5774 17.6 23.4742 17.4452C23.4742 17.4452 23.5258 17.0323 22.8032 17.0323C22.8032 17.0323 21.6677 17.1871 21.6677 16.2065C21.6677 16.2065 21.4613 15.1742 23.0097 15.1742C23.0097 15.1742 23.4742 15.3807 23.5258 14.7613C23.5258 14.7613 23.4742 10.529 23.4742 10.2194C23.4742 10.2194 23.629 9.80646 22.8548 9.75484C22.8548 9.75484 21.7709 9.9613 21.6677 9.29033C21.6677 9.29033 21.6161 8.20646 22.3387 8.15484C22.3387 8.15484 23.2161 8.20646 23.3709 8.00001C23.3709 8.00001 23.5774 8.10323 23.5258 7.32904L23.5774 5.9871C23.5774 5.9871 23.6806 5.62581 24.2484 5.67742C24.2484 5.67742 25.2806 5.72904 25.3838 5.62581C25.3838 5.62581 25.5903 5.31613 25.6935 5.21291C25.6935 5.21291 26.2097 5.1613 26.3129 5.31613C26.3129 5.31613 27.0871 5.83226 30.0806 5.62581C30.0806 5.62581 30.5451 5.62581 30.6484 5.78065C30.6484 5.78065 31.2161 6.19355 31.5258 5.72904C31.5258 5.72904 31.9903 5.62581 33.4871 5.67742C33.4871 5.67742 35.0871 6.09033 36.2226 5.21291L36.5838 5.26452C36.5838 5.26452 37.0484 6.03872 37.358 5.78065C37.358 5.78065 38.3387 5.67742 38.4935 5.88388C38.4935 5.88388 38.8032 6.34839 38.6484 7.63872C38.6484 7.63872 38.4419 8.20646 39.4226 8.20646C39.4226 8.20646 40.5064 8.00001 40.3516 9.03226C40.3516 9.03226 40.6613 10.1677 38.8548 10.0129C38.8548 10.0129 38.6484 10.3226 38.6484 10.5807C38.6484 10.5807 38.5968 14.2968 38.5968 14.7097C38.5968 14.7097 38.5451 15.2774 39.3709 15.2774C39.3709 15.2774 40.4032 15.2258 40.4548 16.1548C40.4548 16.1548 40.6097 17.3936 39.0613 17.1871C39.0613 17.1871 38.5968 17.2387 38.5451 17.5484L38.4935 19.2C38.4935 19.2 38.5451 20.0258 37.6161 19.8194C37.4613 19.8194 32.5064 19.9226 32.0935 19.7677C31.9387 19.7161 31.7322 19.6645 31.6806 19.8194Z" fill="white"/>
<path d="M21.0999 25.2904C21.0999 25.2904 21.3064 25.1872 21.4096 25.0323C21.4096 25.0323 22.0806 24.9807 22.1838 24.8775L24.3515 25.0323C24.3515 25.0323 26.4676 25.1872 27.3967 24.5162C27.3967 24.5162 27.7064 24.5162 27.9644 24.6194C27.9644 24.6194 28.4289 24.7226 28.5322 24.9291L29.7709 24.8775C29.7709 24.8775 30.4935 25.0839 30.4418 25.5484V26.1162C30.4418 26.1162 30.287 27.3033 30.6483 27.3549H31.5773C31.5773 27.3549 32.3515 27.7162 32.2483 28.1807C32.2483 28.1807 32.2999 28.8517 31.5773 28.9549C31.5773 28.9549 30.9064 29.1613 30.6483 29.1097C30.6483 29.1097 30.4418 29.4194 30.3902 29.7807L30.3386 34.0646C30.3386 34.0646 30.287 34.5291 30.958 34.4775C30.958 34.4775 31.9902 34.3742 32.2483 34.942C32.2483 34.942 32.5064 35.871 31.9902 36.0259L31.5773 36.2323L30.7515 36.3872C30.7515 36.3872 30.3902 36.4388 30.3386 37.0581V38.1936C30.3386 38.1936 30.3902 38.9678 29.7709 38.9678L28.8418 39.0194C28.8418 39.0194 28.6354 39.2259 28.1709 39.071C28.1709 39.071 22.5967 39.1743 22.4418 39.1226L21.7709 39.2259C21.7709 39.2259 21.0483 39.8968 20.4806 39.3807L20.016 39.0194C20.016 39.0194 19.7064 39.071 19.5515 39.071C19.3967 39.0194 13.4096 39.1226 13.4096 39.1226C13.4096 39.1226 12.1193 39.2775 12.016 38.813C12.016 38.813 11.8612 37.1613 11.9128 36.9549C11.9128 36.9549 11.9128 36.4904 11.6031 36.4388C11.6031 36.4388 10.3128 36.3872 10.3128 36.2323C10.3128 36.2323 9.64184 35.7678 9.84829 35.2517C9.84829 35.2517 10.0547 34.5807 10.7773 34.5291C10.7773 34.5291 11.8096 34.6839 11.8096 34.3743C11.8096 34.3743 11.8612 34.1678 11.8612 33.8581C11.8612 33.8581 11.9128 29.9872 11.9128 29.7291C11.9128 29.7291 12.016 29.213 11.6031 29.213C11.6031 29.213 11.1386 29.3678 10.8289 29.1613C10.8289 29.1613 10.0547 29.213 9.89991 28.5936C9.89991 28.5936 9.74507 28.1807 9.95152 27.871C9.95152 27.871 10.3128 27.1484 11.3451 27.4065C11.3451 27.4065 11.9128 27.5613 12.016 27.1484L11.9644 25.6001C11.9644 25.6001 11.8096 25.1872 12.6354 24.9291C12.6354 24.9291 13.6676 25.2388 14.0289 24.7226C14.0289 24.7226 14.3902 24.0001 14.6999 24.5162C14.6999 24.5162 15.3193 25.0839 17.0225 25.0323C17.0225 25.0323 19.9644 24.8259 20.016 24.9291C20.016 24.9291 20.7386 25.0323 20.9451 25.2388L21.0999 25.2904Z" fill="white"/>
<path d="M12.2225 19.8195C12.2225 19.8195 11.8612 20.9549 10.2612 19.7678L4.79024 19.6646C4.79024 19.6646 4.06765 19.8711 3.96443 19.1485C3.96443 19.1485 4.11927 17.6517 4.01604 17.4969C4.01604 17.4969 4.06765 17.084 3.34507 17.084C3.34507 17.084 2.2612 17.2388 2.20959 16.2582C2.20959 16.2582 2.00314 15.2259 3.55153 15.2259C3.55153 15.2259 4.01604 15.4324 4.06765 14.813C4.06765 14.813 4.01604 10.5807 4.01604 10.2195C4.01604 10.2195 4.17088 9.80656 3.39669 9.75494C3.39669 9.75494 2.31282 9.9614 2.20959 9.23881C2.20959 9.23881 2.15798 8.15494 2.88056 8.10333C2.88056 8.10333 3.75798 8.15494 3.91282 7.94849C3.91282 7.94849 4.11927 8.05172 4.06765 7.27752L4.11927 5.93559C4.11927 5.93559 4.22249 5.5743 4.79024 5.62591C4.79024 5.62591 5.82249 5.67752 5.92572 5.5743C5.92572 5.5743 6.13217 5.26462 6.2354 5.1614C6.2354 5.1614 6.75153 5.10978 6.85475 5.26462C6.85475 5.26462 7.62894 5.78075 10.6225 5.5743C10.6225 5.5743 11.087 5.5743 11.1902 5.72914C11.1902 5.72914 11.758 6.14204 12.0677 5.67752C12.0677 5.67752 12.5322 5.5743 14.0289 5.62591C14.0289 5.62591 15.6289 6.03881 16.7128 5.1614L17.0741 5.21301C17.0741 5.21301 17.5386 5.9872 17.8483 5.72914C17.8483 5.72914 18.8289 5.62591 18.9838 5.83236C18.9838 5.83236 19.2935 6.29688 19.1386 7.5872C19.1386 7.5872 18.9322 8.15494 19.9128 8.15494C19.9128 8.15494 20.9967 7.94849 20.8419 8.98075C20.8419 8.98075 21.1515 10.1162 19.3451 9.96139C19.3451 9.96139 19.1386 10.2711 19.1386 10.5291C19.1386 10.5291 19.087 14.2453 19.087 14.6582C19.087 14.6582 19.0354 15.2259 19.8612 15.2259C19.8612 15.2259 20.8935 15.1743 20.9451 16.1033C20.9451 16.1033 21.0999 17.342 19.5515 17.1356C19.5515 17.1356 19.087 17.1872 19.0354 17.4969L18.9322 19.1485C18.9322 19.1485 18.9838 19.9743 18.0548 19.7678C17.8999 19.7678 12.9451 19.8711 12.5322 19.7162C12.5322 19.7162 12.3257 19.6646 12.2225 19.8195Z" fill="white"/>
<path d="M31.6806 19.8194C31.6806 19.8194 31.3193 20.9548 29.7193 19.7677L24.2484 19.6129C24.2484 19.6129 23.5258 19.8194 23.4226 19.0968C23.4226 19.0968 23.5774 17.6 23.4742 17.4452C23.4742 17.4452 23.5258 17.0323 22.8032 17.0323C22.8032 17.0323 21.6677 17.1871 21.6677 16.2065C21.6677 16.2065 21.4613 15.1742 23.0097 15.1742C23.0097 15.1742 23.4742 15.3807 23.5258 14.7613C23.5258 14.7613 23.4742 10.529 23.4742 10.2194C23.4742 10.2194 23.629 9.80646 22.8548 9.75484C22.8548 9.75484 21.7709 9.9613 21.6677 9.29033C21.6677 9.29033 21.6161 8.20646 22.3387 8.15484C22.3387 8.15484 23.2161 8.20646 23.3709 8.00001C23.3709 8.00001 23.5774 8.10323 23.5258 7.32904L23.5774 5.9871C23.5774 5.9871 23.6806 5.62581 24.2484 5.67742C24.2484 5.67742 25.2806 5.72904 25.3838 5.62581C25.3838 5.62581 25.5903 5.31613 25.6935 5.21291C25.6935 5.21291 26.2097 5.1613 26.3129 5.31613C26.3129 5.31613 27.0871 5.83226 30.0806 5.62581C30.0806 5.62581 30.5451 5.62581 30.6484 5.78065C30.6484 5.78065 31.2161 6.19355 31.5258 5.72904C31.5258 5.72904 31.9903 5.62581 33.4871 5.67742C33.4871 5.67742 35.0871 6.09033 36.2226 5.21291L36.5838 5.26452C36.5838 5.26452 37.0484 6.03872 37.358 5.78065C37.358 5.78065 38.3387 5.67742 38.4935 5.88388C38.4935 5.88388 38.8032 6.34839 38.6484 7.63872C38.6484 7.63872 38.4419 8.20646 39.4226 8.20646C39.4226 8.20646 40.5064 8.00001 40.3516 9.03226C40.3516 9.03226 40.6613 10.1677 38.8548 10.0129C38.8548 10.0129 38.6484 10.3226 38.6484 10.5807C38.6484 10.5807 38.5968 14.2968 38.5968 14.7097C38.5968 14.7097 38.5451 15.2774 39.3709 15.2774C39.3709 15.2774 40.4032 15.2258 40.4548 16.1548C40.4548 16.1548 40.6097 17.3936 39.0613 17.1871C39.0613 17.1871 38.5968 17.2387 38.5451 17.5484L38.4935 19.2C38.4935 19.2 38.5451 20.0258 37.6161 19.8194C37.4613 19.8194 32.5064 19.9226 32.0935 19.7677C31.9387 19.7161 31.7322 19.6645 31.6806 19.8194Z" fill="#1E1E1E"/>
<path d="M31.6806 19.8194C31.6806 19.8194 31.3193 20.9548 29.7193 19.7677L24.2484 19.6129C24.2484 19.6129 23.5258 19.8194 23.4226 19.0968C23.4226 19.0968 23.5774 17.6 23.4742 17.4452C23.4742 17.4452 23.5258 17.0323 22.8032 17.0323C22.8032 17.0323 21.6677 17.1871 21.6677 16.2065C21.6677 16.2065 21.4613 15.1742 23.0097 15.1742C23.0097 15.1742 23.4742 15.3807 23.5258 14.7613C23.5258 14.7613 23.4742 10.529 23.4742 10.2194C23.4742 10.2194 23.629 9.80646 22.8548 9.75484C22.8548 9.75484 21.7709 9.9613 21.6677 9.29033C21.6677 9.29033 21.6161 8.20646 22.3387 8.15484C22.3387 8.15484 23.2161 8.20646 23.3709 8.00001C23.3709 8.00001 23.5774 8.10323 23.5258 7.32904L23.5774 5.9871C23.5774 5.9871 23.6806 5.62581 24.2484 5.67742C24.2484 5.67742 25.2806 5.72904 25.3838 5.62581C25.3838 5.62581 25.5903 5.31613 25.6935 5.21291C25.6935 5.21291 26.2097 5.1613 26.3129 5.31613C26.3129 5.31613 27.0871 5.83226 30.0806 5.62581C30.0806 5.62581 30.5451 5.62581 30.6484 5.78065C30.6484 5.78065 31.2161 6.19355 31.5258 5.72904C31.5258 5.72904 31.9903 5.62581 33.4871 5.67742C33.4871 5.67742 35.0871 6.09033 36.2226 5.21291L36.5838 5.26452C36.5838 5.26452 37.0484 6.03872 37.358 5.78065C37.358 5.78065 38.3387 5.67742 38.4935 5.88388C38.4935 5.88388 38.8032 6.34839 38.6484 7.63872C38.6484 7.63872 38.4419 8.20646 39.4226 8.20646C39.4226 8.20646 40.5064 8.00001 40.3516 9.03226C40.3516 9.03226 40.6613 10.1677 38.8548 10.0129C38.8548 10.0129 38.6484 10.3226 38.6484 10.5807C38.6484 10.5807 38.5968 14.2968 38.5968 14.7097C38.5968 14.7097 38.5451 15.2774 39.3709 15.2774C39.3709 15.2774 40.4032 15.2258 40.4548 16.1548C40.4548 16.1548 40.6097 17.3936 39.0613 17.1871C39.0613 17.1871 38.5968 17.2387 38.5451 17.5484L38.4935 19.2C38.4935 19.2 38.5451 20.0258 37.6161 19.8194C37.4613 19.8194 32.5064 19.9226 32.0935 19.7677C31.9387 19.7161 31.7322 19.6645 31.6806 19.8194Z" stroke="#191919" stroke-width="0.112981"/>
<path d="M25.4871 6.3485C25.4871 6.3485 25.5387 7.01947 25.5387 7.1743C25.5387 7.32914 25.4355 16.6195 25.4355 16.6195C25.4355 16.6195 25.5387 17.342 24.9193 17.7033C24.9193 17.7033 24.7645 17.7549 24.7129 17.2904L24.7645 7.48398C24.8161 7.48398 24.8677 6.29689 25.4871 6.3485Z" fill="white"/>
<path d="M25.4871 6.3485C25.4871 6.3485 25.5387 7.01947 25.5387 7.1743C25.5387 7.32914 25.4355 16.6195 25.4355 16.6195C25.4355 16.6195 25.5387 17.342 24.9193 17.7033C24.9193 17.7033 24.7645 17.7549 24.7129 17.2904L24.7645 7.48398C24.8161 7.48398 24.8677 6.29689 25.4871 6.3485Z" stroke="#191919" stroke-width="0.118968"/>
<path d="M24.4032 17.8065C24.4032 17.8065 24.4548 8.61941 24.4548 8.46457C24.4032 8.30973 24.5064 8.61941 24.5064 8.61941C24.5064 8.61941 24.4032 7.01941 24.8161 6.34844C24.8161 6.34844 24.6613 5.7807 23.9387 6.50328L23.8871 7.74199C23.8871 7.74199 23.8871 8.51618 23.2161 8.46457C23.2161 8.46457 22.4419 8.41296 22.0806 8.77425C22.0806 8.77425 21.8742 9.49683 22.6484 9.34199C22.6484 9.34199 23.8355 9.34199 23.8871 9.8065L23.8355 14.7613C23.8355 14.7613 24.0935 15.5871 23.1645 15.5871C23.1645 15.5871 22.029 15.5355 22.0806 16.2065C22.0806 16.2065 22.2871 16.7742 23.2677 16.6194C23.2677 16.6194 23.9387 16.7226 23.9387 17.3936V18.6323C23.9387 18.6323 23.8871 19.1484 24.5064 19.1484H29.6161C29.6161 19.1484 29.8742 19.2001 29.8742 18.8388C29.8742 18.8388 29.8226 18.5807 29.4613 18.5807H25.1774C25.1774 18.5807 24.4548 18.7871 24.4032 17.8065Z" fill="white"/>
<path d="M25.3838 17.7549C25.3838 17.7549 25.229 18.2194 25.7451 18.1161H29.1L30.029 18.3226C30.029 18.3226 30.958 18.1162 30.029 17.5484C30.029 17.5484 27.0354 17.6 26.7774 17.4968C26.7774 17.4968 26.158 17.342 26.0032 17.2903C26.0032 17.342 25.6935 17.2387 25.3838 17.7549Z" fill="white"/>
<path d="M25.3838 17.7549C25.3838 17.7549 25.229 18.2194 25.7451 18.1161H29.1L30.029 18.3226C30.029 18.3226 30.958 18.1162 30.029 17.5484C30.029 17.5484 27.0354 17.6 26.7774 17.4968C26.7774 17.4968 26.158 17.342 26.0032 17.2903C26.0032 17.342 25.6935 17.2387 25.3838 17.7549Z" stroke="#191919" stroke-width="0.118968"/>
<path d="M30.9582 18.2194C30.9582 18.2194 30.3389 18.2194 30.3905 19.0452C30.3905 19.0452 30.4421 19.6646 31.1131 19.6646C31.1131 19.6646 31.6808 19.5613 31.6292 18.8904C31.6292 18.942 31.2679 18.1162 30.9582 18.2194Z" fill="white"/>
<path d="M31.4225 17.9098C31.4225 17.9098 31.7322 17.6002 31.8871 17.6002C31.8871 17.6002 35.1387 17.9098 35.7064 17.4969C35.7064 17.4969 36.2225 17.3937 36.3258 17.4969C36.3258 17.4969 36.7903 17.9098 36.7903 18.1163C36.7903 18.1163 36.7387 18.426 36.1709 18.2195C36.1709 18.2195 32.5064 18.2711 32.3 18.2711C32.3516 18.2711 31.3193 18.4776 31.4225 17.9098Z" fill="white"/>
<path d="M31.4225 17.9098C31.4225 17.9098 31.7322 17.6002 31.8871 17.6002C31.8871 17.6002 35.1387 17.9098 35.7064 17.4969C35.7064 17.4969 36.2225 17.3937 36.3258 17.4969C36.3258 17.4969 36.7903 17.9098 36.7903 18.1163C36.7903 18.1163 36.7387 18.426 36.1709 18.2195C36.1709 18.2195 32.5064 18.2711 32.3 18.2711C32.3516 18.2711 31.3193 18.4776 31.4225 17.9098Z" stroke="#191919" stroke-width="0.118968"/>
<path d="M31.8356 18.942C31.8356 18.942 31.8356 18.6839 32.3001 18.6839L36.8936 18.6323C36.8936 18.6323 37.3065 18.8387 37.3065 18.0646C37.3065 18.0646 37.4614 14.5033 37.513 10.5807C37.513 9.39358 37.5646 8.20649 37.513 7.071C37.513 7.071 37.4098 6.60649 37.3065 6.50326C37.3065 6.50326 37.3065 5.98713 37.8743 6.19358C37.8743 6.19358 38.3388 6.24519 38.2356 6.96778L38.2872 8.10326C38.2872 8.10326 38.184 8.61939 39.0614 8.46455C39.0614 8.46455 39.9388 8.61939 39.9904 8.92907C39.9904 8.92907 40.2485 9.60003 39.2162 9.49681H38.442C38.442 9.49681 38.1323 9.70326 38.2356 10.0645L38.0291 14.8645C38.0291 14.8645 37.9775 15.6904 38.7517 15.6387C38.7517 15.6387 39.5775 15.5871 39.7323 15.8452C39.7323 15.8452 40.3001 16.671 39.0614 16.6194C39.0614 16.6194 38.2872 16.5678 38.1323 16.7226C38.1323 16.7226 37.9775 16.8775 37.9259 18.4258C37.9259 18.4258 37.9775 19.3549 37.3065 19.2516C37.3065 19.2516 32.7646 19.3033 32.3517 19.2C32.3517 19.2 31.9388 19.3033 31.8356 18.942Z" fill="white"/>
<path d="M26.0033 6.09038L25.9001 16.5678C25.9001 16.5678 25.8484 17.0323 26.6742 17.1355C26.6742 17.1355 27.6033 17.2388 27.8613 17.1355C27.8613 17.1355 28.4807 17.0839 30.0807 17.1872C30.0807 17.1872 30.4936 17.6001 30.4936 17.0839C30.4936 17.0839 30.7517 8.61941 30.6484 6.81296C30.6484 6.81296 30.5968 6.03877 30.0807 6.03877C30.0807 6.03877 27.6033 6.24522 27.3968 6.03877L26.4162 5.7807C26.313 5.7807 25.9517 5.83231 26.0033 6.09038Z" fill="white"/>
<path d="M31.1129 6.60654C31.1129 6.60654 31.0097 11.5098 31.0613 11.7162L31.0097 15.8453L30.8549 17.2904C30.8549 17.2904 31.0613 17.6001 31.2161 17.3936C31.2161 17.3936 32.2484 17.1356 32.9194 17.2388C32.9194 17.2388 35.0355 17.4453 35.4484 17.084C35.4484 17.084 35.7581 17.2388 35.8613 16.7227C35.8613 16.7227 35.9645 7.58719 35.9129 7.43235C35.9129 7.43235 36.0161 6.14203 35.9645 5.98719C35.9645 5.98719 35.9129 5.67751 35.3968 5.93558C35.3968 5.93558 35.4484 6.19364 32.3516 6.09041C32.3516 6.09041 31.2161 6.09041 31.1129 6.60654Z" fill="white"/>
<path d="M36.3258 6.45171L36.2742 16.7743C36.2742 16.7743 36.5322 17.7033 36.9451 17.6001C36.9451 17.6001 36.9968 17.3937 37.0484 17.084L37.2032 7.27752C37.2032 7.22591 36.8935 5.67752 36.3258 6.45171Z" fill="white"/>
<path d="M36.3258 6.45171L36.2742 16.7743C36.2742 16.7743 36.5322 17.7033 36.9451 17.6001C36.9451 17.6001 36.9968 17.3937 37.0484 17.084L37.2032 7.27752C37.2032 7.22591 36.8935 5.67752 36.3258 6.45171Z" stroke="#191919" stroke-width="0.118968"/>
<path d="M32.3002 9.54845C32.1969 9.29038 32.8679 9.23877 32.8679 9.23877L33.1776 9.29038C33.384 9.23877 33.6421 9.342 33.6421 9.342C33.8485 9.70329 33.4873 9.90974 33.4873 9.90974L33.384 10.3743C33.3324 10.7355 33.384 13.8323 33.384 13.8323C33.4356 13.9872 33.6937 14.2968 33.6937 14.2968C33.6937 14.6065 33.3324 14.5033 33.3324 14.5033L32.4034 14.5549C32.0937 14.5033 32.1969 14.1936 32.1969 14.1936C32.5066 14.0388 32.6098 13.4194 32.6098 13.4194V10.1678L32.3002 9.54845Z" fill="#1E1E1E"/>
<path d="M27.9129 12.5935L27.8613 13.6258L28.1709 14.0903C28.3774 14.3484 28.0161 14.5548 28.0161 14.5548L26.9838 14.4516C26.7774 14.3484 26.9838 14.0387 26.9838 14.0387C27.2419 13.8839 27.2935 13.471 27.2935 13.471L27.2419 11.5613L27.2935 10.1677C27.2935 10.0129 27.0355 9.70322 27.0355 9.70322C26.829 9.65161 26.8806 9.39355 26.8806 9.39355C26.9322 9.23871 27.5 9.34193 27.5 9.34193H28.8935C30.1838 9.75484 30.029 10.7355 30.029 10.7355C30.1322 11.6645 29.1 12.0774 29.1 12.0774L29.0484 12.5935L29.9774 14.0903C30.1322 14.2452 30.1322 14.3484 30.1322 14.3484C29.9774 14.7097 29.4613 14.3484 29.4613 14.3484L28.2225 12.4903C28.1193 12.3355 27.9129 12.5935 27.9129 12.5935ZM27.9645 10.0129C28.0161 10.7355 28.0161 11.7161 28.0161 11.7161C28.6354 12.1806 28.9967 11.5097 28.9967 11.5097C29.8225 10.7355 28.9967 10.0129 28.8419 9.80645C28.6871 9.6 28.0677 9.75484 28.0677 9.75484L27.9645 10.0129Z" fill="#1E1E1E"/>
<path d="M21.0999 25.2904C21.0999 25.2904 21.3064 25.1872 21.4096 25.0323C21.4096 25.0323 22.0806 24.9807 22.1838 24.8775L24.3515 25.0323C24.3515 25.0323 26.4676 25.1872 27.3967 24.5162C27.3967 24.5162 27.7064 24.5162 27.9644 24.6194C27.9644 24.6194 28.4289 24.7226 28.5322 24.9291L29.7709 24.8775C29.7709 24.8775 30.4935 25.0839 30.4418 25.5484V26.1162C30.4418 26.1162 30.287 27.3033 30.6483 27.3549H31.5773C31.5773 27.3549 32.3515 27.7162 32.2483 28.1807C32.2483 28.1807 32.2999 28.8517 31.5773 28.9549C31.5773 28.9549 30.9064 29.1613 30.6483 29.1097C30.6483 29.1097 30.4418 29.4194 30.3902 29.7807L30.3386 34.0646C30.3386 34.0646 30.287 34.5291 30.958 34.4775C30.958 34.4775 31.9902 34.3742 32.2483 34.942C32.2483 34.942 32.5064 35.871 31.9902 36.0259L31.5773 36.2323L30.7515 36.3872C30.7515 36.3872 30.3902 36.4388 30.3386 37.0581V38.1936C30.3386 38.1936 30.3902 38.9678 29.7709 38.9678L28.8418 39.0194C28.8418 39.0194 28.6354 39.2259 28.1709 39.071C28.1709 39.071 22.5967 39.1743 22.4418 39.1226L21.7709 39.2259C21.7709 39.2259 21.0483 39.8968 20.4806 39.3807L20.016 39.0194C20.016 39.0194 19.7064 39.071 19.5515 39.071C19.3967 39.0194 13.4096 39.1226 13.4096 39.1226C13.4096 39.1226 12.1193 39.2775 12.016 38.813C12.016 38.813 11.8612 37.1613 11.9128 36.9549C11.9128 36.9549 11.9128 36.4904 11.6031 36.4388C11.6031 36.4388 10.3128 36.3872 10.3128 36.2323C10.3128 36.2323 9.64184 35.7678 9.84829 35.2517C9.84829 35.2517 10.0547 34.5807 10.7773 34.5291C10.7773 34.5291 11.8096 34.6839 11.8096 34.3743C11.8096 34.3743 11.8612 34.1678 11.8612 33.8581C11.8612 33.8581 11.9128 29.9872 11.9128 29.7291C11.9128 29.7291 12.016 29.213 11.6031 29.213C11.6031 29.213 11.1386 29.3678 10.8289 29.1613C10.8289 29.1613 10.0547 29.213 9.89991 28.5936C9.89991 28.5936 9.74507 28.1807 9.95152 27.871C9.95152 27.871 10.3128 27.1484 11.3451 27.4065C11.3451 27.4065 11.9128 27.5613 12.016 27.1484L11.9644 25.6001C11.9644 25.6001 11.8096 25.1872 12.6354 24.9291C12.6354 24.9291 13.6676 25.2388 14.0289 24.7226C14.0289 24.7226 14.3902 24.0001 14.6999 24.5162C14.6999 24.5162 15.3193 25.0839 17.0225 25.0323C17.0225 25.0323 19.9644 24.8259 20.016 24.9291C20.016 24.9291 20.7386 25.0323 20.9451 25.2388L21.0999 25.2904Z" fill="#1E1E1E"/>
<path d="M21.0999 25.2388C21.0999 25.2388 21.3064 25.1356 21.4096 24.9807C21.4096 24.9807 22.0806 24.9291 22.1838 24.8259L24.3515 24.9807C24.3515 24.9807 26.4676 25.1356 27.3967 24.4646C27.3967 24.4646 27.7064 24.4646 27.9644 24.5678C27.9644 24.5678 28.4289 24.671 28.5322 24.8775L29.7709 24.8259C29.7709 24.8259 30.4935 25.0323 30.4418 25.4969V26.0646C30.4418 26.0646 30.287 27.2517 30.6483 27.3033H31.5773C31.5773 27.3033 32.3515 27.6646 32.2483 28.1291C32.2483 28.1291 32.2999 28.8001 31.5773 28.9033C31.5773 28.9033 30.9064 29.1098 30.6483 29.0581C30.6483 29.0581 30.4418 29.3678 30.3902 29.7291L30.3386 34.0646C30.3386 34.0646 30.287 34.5291 30.958 34.4775C30.958 34.4775 31.9902 34.3743 32.2483 34.942C32.2483 34.942 32.5064 35.8711 31.9902 36.0259L31.5773 36.2323L30.7515 36.3872C30.7515 36.3872 30.3902 36.4388 30.3386 37.0581V38.1936C30.3386 38.1936 30.3902 38.9678 29.7709 38.9678L28.8418 39.0194C28.8418 39.0194 28.6354 39.2259 28.1709 39.071C28.1709 39.071 22.5967 39.1743 22.4418 39.1227L21.7709 39.2775C21.7709 39.2775 21.0483 39.9485 20.4806 39.4323L20.016 39.071C20.016 39.071 19.7064 39.1227 19.5515 39.1227C19.3967 39.0711 13.4096 39.1743 13.4096 39.1743C13.4096 39.1743 12.1193 39.3291 12.016 38.8646C12.016 38.8646 11.8612 37.213 11.9128 37.0065C11.9128 37.0065 11.9128 36.542 11.6031 36.4904C11.6031 36.4904 10.3128 36.4388 10.3128 36.284C10.3128 36.284 9.64184 35.7678 9.84829 35.3033C9.84829 35.3033 10.0547 34.6323 10.7773 34.5807C10.7773 34.5807 11.8096 34.7356 11.8096 34.4259C11.8096 34.4259 11.8612 34.2194 11.8612 33.9098C11.8612 33.9098 11.9128 30.0388 11.9128 29.7807C11.9128 29.7807 12.016 29.2646 11.6031 29.2646C11.6031 29.2646 11.1386 29.4194 10.8289 29.213C10.8289 29.213 10.0547 29.2646 9.89991 28.6452C9.89991 28.6452 9.74507 28.2323 9.95152 27.9227C9.95152 27.9227 10.3128 27.2001 11.3451 27.4581C11.3451 27.4581 11.9128 27.613 12.016 27.2001L11.9644 25.6517C11.9644 25.6517 11.8096 25.2388 12.6354 24.9807C12.6354 24.9807 13.6676 25.2904 14.0289 24.7743C14.0289 24.7743 14.3902 24.0517 14.6999 24.5678C14.6999 24.5678 15.3193 25.1356 17.0225 25.084C17.0225 25.084 19.9644 24.8775 20.016 24.9807C20.016 24.9807 20.7386 25.084 20.9451 25.2904L21.0999 25.2388Z" stroke="#191919" stroke-width="0.112981"/>
<path d="M21.9775 38.0903C21.9775 38.0903 22.3904 37.8839 22.6484 37.9871C22.9065 38.0387 26.7258 37.9355 26.7258 37.9355C26.7258 37.9355 28.3775 38.0903 28.6355 37.8323L29.0484 37.6774C29.0484 37.6774 29.2033 37.471 29.2033 37.2129C29.2033 36.9549 29.2549 36.0774 29.2549 36.0774L29.3581 35.7678C29.3581 35.7678 29.3065 35.4581 29.3581 26.7355C29.3581 26.7355 29.4613 26.0645 29.0484 25.6516C29.0484 25.6516 29.0484 25.3936 29.2033 25.4452C29.3581 25.4968 29.2549 25.4968 29.2549 25.4968C29.2549 25.4968 29.8226 25.342 29.9259 25.5484C29.9259 25.5484 30.1839 26.3226 29.9775 26.7871C29.9775 26.7871 29.9259 27.7161 30.3904 27.7161C30.3904 27.7161 30.5968 27.9226 30.9581 27.8194C30.9581 27.8194 31.7839 27.9226 31.7839 28.1807C31.7839 28.1807 31.7839 28.7484 31.2162 28.6452L30.442 28.6968C30.442 28.6968 29.9259 28.8 29.9775 29.4194C30.0291 30.0387 29.9259 34.4774 29.9259 34.4774C29.9259 34.4774 29.9259 34.9936 30.7517 34.9936C30.7517 34.9936 31.7839 34.942 31.7839 35.2516C31.7839 35.2516 32.042 35.9226 31.3194 35.9226C31.3194 35.9226 29.9259 35.871 30.0291 36.2839C30.0291 36.2839 29.9259 37.2129 29.8742 37.3678C29.8742 37.3678 30.0291 38.142 29.8226 38.2452C29.8226 38.2452 29.7194 38.6581 28.842 38.6065C28.842 38.6065 23.2162 38.5549 22.3388 38.6581C22.3388 38.6065 21.8226 38.5549 21.9775 38.0903Z" fill="white"/>
<path d="M20.9451 37.4711C20.9451 37.4711 21.5129 37.5743 21.5129 38.0904C21.5129 38.6066 21.5645 38.9162 21.2032 38.9678C20.8935 39.0195 20.5322 38.9162 20.429 38.5033C20.3258 38.0904 20.4806 37.5743 20.9451 37.4711Z" fill="white"/>
<path d="M21.6162 37.213C21.6162 37.213 22.184 36.8001 22.4421 36.9034C22.4421 36.9034 25.4356 37.1098 26.313 36.955C27.2421 36.8001 26.6743 36.9034 26.6743 36.9034C26.6743 36.9034 27.4485 36.9034 27.7066 36.5937C27.7066 36.5937 27.913 36.5421 28.0679 36.7485L28.5324 37.2647C28.5324 37.2647 28.584 37.5743 28.0162 37.5743C28.0162 37.5743 22.7001 37.5743 22.5453 37.6259C22.4937 37.6259 21.513 37.7808 21.6162 37.213Z" fill="white"/>
<path d="M21.6162 37.213C21.6162 37.213 22.184 36.8001 22.4421 36.9034C22.4421 36.9034 25.4356 37.1098 26.313 36.955C27.2421 36.8001 26.6743 36.9034 26.6743 36.9034C26.6743 36.9034 27.4485 36.9034 27.7066 36.5937C27.7066 36.5937 27.913 36.5421 28.0679 36.7485L28.5324 37.2647C28.5324 37.2647 28.584 37.5743 28.0162 37.5743C28.0162 37.5743 22.7001 37.5743 22.5453 37.6259C22.4937 37.6259 21.513 37.7808 21.6162 37.213Z" stroke="#191919" stroke-width="0.118968"/>
<path d="M13.8742 25.6517C13.8742 25.6517 14.0807 25.6517 14.0807 26.0646L14.0291 35.9226C14.0291 35.9226 14.1323 36.5936 13.5646 37.0065C13.5646 37.0065 13.2549 37.3678 13.2549 36.8001L13.4097 26.7355C13.3581 26.6839 13.4097 25.9613 13.8742 25.6517Z" fill="white"/>
<path d="M13.8742 25.6517C13.8742 25.6517 14.0807 25.6517 14.0807 26.0646L14.0291 35.9226C14.0291 35.9226 14.1323 36.5936 13.5646 37.0065C13.5646 37.0065 13.2549 37.3678 13.2549 36.8001L13.4097 26.7355C13.3581 26.6839 13.4097 25.9613 13.8742 25.6517Z" stroke="#191919" stroke-width="0.118968"/>
<path d="M13.3581 25.7033C13.3581 25.7033 12.9452 26.4259 12.9968 26.5807L12.9452 28.7484C12.9452 28.7484 12.8936 30.142 12.9452 30.2968C12.9968 30.4517 12.8936 34.5807 12.8936 34.5807C12.8936 34.5807 12.842 35.3549 12.8936 35.6129V37.3678C12.8936 37.3678 12.842 38.142 13.4097 37.9355C13.4097 37.9355 19.1388 37.7807 19.5001 37.8839C19.5001 37.8839 20.0162 37.9871 19.8097 38.2452C19.8097 38.2452 19.8097 38.4517 19.4484 38.4C19.4484 38.4 16.7646 38.6581 14.2872 38.5549C14.2872 38.5549 12.6355 38.6581 12.5323 38.4517C12.5323 38.4517 12.2743 38.4 12.2743 37.471C12.2743 37.471 12.2743 36.5936 12.2226 36.4388C12.2226 36.4388 12.2743 35.9742 11.4484 35.871C11.4484 35.871 10.313 36.0775 10.2614 35.4065C10.2614 35.4065 10.4162 34.942 11.5517 34.9936C11.5517 34.9936 12.3775 35.1484 12.2226 34.4775L12.3259 29.6259C12.3259 29.6259 12.4291 28.8 11.8614 28.7484C11.8614 28.7484 11.3452 28.6968 11.1904 28.8C11.1904 28.8 10.2614 28.8 10.313 28.2323C10.313 28.2323 10.6226 27.6646 11.6033 27.7678C11.6033 27.7678 12.3259 27.9226 12.3775 27.0968C12.3775 27.0968 12.3259 25.4452 12.7388 25.342C12.7388 25.4452 13.5646 25.4452 13.3581 25.7033Z" fill="white"/>
<path d="M14.3387 36.4904C14.3387 36.4904 14.8032 36.9549 15.5258 36.9549L19.9645 37.0065C19.9645 37.0065 20.4806 37.0581 20.429 37.3162C20.429 37.3162 20.3774 37.7291 19.7581 37.5742L14.3903 37.5226L13.8226 37.5742C13.8226 37.5742 13.4097 37.5226 14.029 36.7484L14.3387 36.4904Z" fill="white"/>
<path d="M14.3387 36.4904C14.3387 36.4904 14.8032 36.9549 15.5258 36.9549L19.9645 37.0065C19.9645 37.0065 20.4806 37.0581 20.429 37.3162C20.429 37.3162 20.3774 37.7291 19.7581 37.5742L14.3903 37.5226L13.8226 37.5742C13.8226 37.5742 13.4097 37.5226 14.029 36.7484L14.3387 36.4904Z" stroke="#191919" stroke-width="0.118968"/>
<path d="M28.0161 36.0775C28.0161 36.0775 28.429 36.8517 28.5839 36.9549C28.5839 36.9549 28.9451 37.3678 28.8419 36.6452L28.8935 27.2517C28.8935 27.2517 28.7903 26.942 28.8935 26.4259L28.4806 25.7033C28.4806 25.7033 28.0677 25.3936 28.0677 25.9097L28.0161 35.9226V36.0775Z" fill="white"/>
<path d="M28.0161 36.0775C28.0161 36.0775 28.429 36.8517 28.5839 36.9549C28.5839 36.9549 28.9451 37.3678 28.8419 36.6452L28.8935 27.2517C28.8935 27.2517 28.7903 26.942 28.8935 26.4259L28.4806 25.7033C28.4806 25.7033 28.0677 25.3936 28.0677 25.9097L28.0161 35.9226V36.0775Z" stroke="#191919" stroke-width="0.118968"/>
<path d="M20.7904 31.5871C20.7904 31.5871 20.842 32.3613 20.7388 33.1355C20.6872 33.5484 20.8936 35.4581 20.6872 36.4387C20.6872 36.4387 20.6356 36.7484 19.9646 36.4903C19.9646 36.4903 15.784 36.5936 15.6807 36.4387C15.6807 36.4387 14.5452 36.4903 14.442 35.871C14.442 35.871 14.5969 31.3807 14.4936 31.2258C14.4936 31.2258 14.442 28.8 14.4936 28.542C14.4936 28.542 14.5969 26.271 14.5452 26.0129C14.5452 26.0129 14.5969 25.4968 14.4936 25.2387C14.4936 25.2387 14.4936 24.9291 15.0614 25.0839C15.0614 25.0839 15.2678 25.4452 16.3517 25.2903C16.3517 25.2903 17.1259 25.3936 17.9001 25.342C17.9001 25.342 19.5517 25.1871 19.9646 25.342C19.9646 25.342 20.6356 25.1871 20.7904 25.9097L20.7388 27.9226L20.9452 28.5936L21.1517 28.4387L21.2549 27.9226L21.3065 25.7549C21.3065 25.7549 21.4614 25.342 21.9775 25.2903C21.9775 25.2903 22.8033 25.1871 22.9065 25.2387C23.0098 25.2903 24.8162 25.3936 25.2807 25.2903C25.7452 25.1871 25.8485 25.6 27.3452 24.8774C27.3452 24.8774 27.7581 24.9291 27.7581 25.1871C27.7581 25.1871 27.6033 27.9742 27.7581 28.4903C27.7581 28.4903 27.7581 33.6 27.6549 33.9613L27.7065 35.6129C27.7065 35.6129 27.7581 36.3355 26.6227 36.3871C26.6227 36.3871 27.3452 36.4903 22.8549 36.3355C22.8549 36.3355 22.1323 36.2839 21.3581 36.6452C21.3581 36.6452 21.2033 36.5936 21.2033 36.1807C21.2033 36.1807 21.3581 34.6323 21.2033 33.1355L21.1517 31.4839L20.7904 31.5871Z" fill="white"/>
<path d="M17.8484 29.2645C17.8484 29.2645 17.9516 31.6903 17.8484 32L17.7968 32.5161C17.7968 32.5161 17.9516 32.8774 18.1065 32.9806C18.1065 32.9806 18.2613 33.4451 17.9 33.3935C17.9 33.3935 17.0742 33.3419 16.8678 33.3419C16.8678 33.3419 16.4032 33.3419 16.8678 32.7742C16.8678 32.7742 17.0226 32.5677 16.971 31.9484C16.971 31.9484 16.971 29.2129 17.0226 29.0581C17.0226 29.0581 17.0742 28.6968 16.8678 28.5935L16.4549 28.6451L15.9903 29.1097C15.9903 29.1097 15.8871 29.5742 15.6807 29.0581V28.8L15.9903 28.0258L16.1968 27.9742C16.1968 27.9742 16.5065 28.1806 16.7645 28.2322H18.3129L18.8807 27.9742C18.8807 27.9742 19.0871 28.0258 19.0355 28.2839C19.0355 28.2839 19.1387 29.0581 18.7258 29.1097C18.7258 29.1097 18.4678 29.0064 18.3129 28.6451C18.3129 28.7484 17.9 28.5419 17.8484 29.2645Z" fill="#1E1E1E"/>
<path d="M25.0742 28.3872C25.0742 28.3872 23.8355 28.284 23.7839 29.6259C23.7839 29.6259 23.6291 30.5549 25.0226 31.1227C25.0226 31.1227 26.0549 31.5872 25.9517 32.2066C25.9517 32.2066 25.7968 33.342 24.7646 32.7743C24.7646 32.7743 24.2484 32.5162 24.3001 32.2066C24.3001 32.2066 24.1452 31.8453 23.9388 31.8969C23.9388 31.8969 23.7323 31.9485 23.8355 33.0324C23.8355 33.0324 23.8355 33.4453 24.3001 33.0324L24.5581 33.084C24.5581 33.084 25.4355 33.8066 26.2097 32.9291C26.2097 32.9291 27.0355 32.1549 26.4162 31.2775C26.4162 31.2775 26.0033 30.6066 25.2291 30.2969C25.2291 30.2969 24.5065 29.9872 24.3517 29.4195C24.3517 29.4195 24.5581 28.4388 25.4355 28.9549C25.4355 28.9549 25.7452 29.3678 25.9517 29.4195C25.9517 29.4195 26.2097 29.4195 26.1581 28.8517L26.1065 28.3872C26.1065 28.3872 26.0549 28.0259 25.5904 28.3872C25.5904 28.3872 25.1775 28.542 25.0742 28.3872Z" fill="#1E1E1E"/>
<path d="M21.1002 27.7163C21.3066 27.8711 21.3583 28.2324 21.3583 28.2324C22.0292 29.9872 22.5454 32.4646 22.5454 32.4646C22.7002 32.7743 23.0099 33.0324 23.0099 33.0324C23.5776 33.2388 23.0099 33.3937 23.0099 33.3937C22.8034 33.4969 22.0292 33.3421 22.0292 33.3421C21.6163 33.2904 21.8228 33.1356 21.8228 33.1356C21.9776 32.9808 21.8744 32.3098 21.8744 32.3098C21.8228 32.0517 21.5647 31.6388 21.5647 31.6388C21.4099 31.5872 21.2034 31.8453 21.2034 31.8453C21.2034 31.8453 20.8421 32.0001 20.7905 31.8453C20.7389 31.6904 20.5324 31.5872 20.5324 31.5872C20.1195 31.5872 19.9647 32.5679 19.9647 32.5679C20.1712 33.3937 19.9647 33.2388 19.9647 33.2388C19.7583 33.4969 19.1389 33.2904 19.1389 33.2904C18.8292 33.2388 19.0357 32.9808 19.0357 32.9808C19.397 32.9292 19.5002 32.5163 19.5002 32.5163C19.655 32.3098 20.6873 28.0259 20.6873 28.0259C20.7905 27.9227 20.8421 27.5614 21.1002 27.7163ZM20.5841 29.884C20.5324 30.0388 20.326 30.9679 20.326 30.9679L20.5324 31.2775C20.5324 31.2775 21.0486 31.3292 21.255 31.3292C21.4615 31.3292 21.4615 31.1743 21.4615 31.0195C21.4615 30.8646 21.1002 29.884 21.1002 29.884L20.9454 29.6775L20.5841 29.884Z" fill="#1E1E1E"/>
<path d="M12.2225 19.8195C12.2225 19.8195 11.8612 20.9549 10.2612 19.7678L4.79024 19.6646C4.79024 19.6646 4.06765 19.8711 3.96443 19.1485C3.96443 19.1485 4.11927 17.6517 4.01604 17.4969C4.01604 17.4969 4.06765 17.084 3.34507 17.084C3.34507 17.084 2.2612 17.2388 2.20959 16.2582C2.20959 16.2582 2.00314 15.2259 3.55153 15.2259C3.55153 15.2259 4.01604 15.4324 4.06765 14.813C4.06765 14.813 4.01604 10.5807 4.01604 10.2195C4.01604 10.2195 4.17088 9.80656 3.39669 9.75494C3.39669 9.75494 2.31282 9.9614 2.20959 9.23881C2.20959 9.23881 2.15798 8.15494 2.88056 8.10333C2.88056 8.10333 3.75798 8.15494 3.91282 7.94849C3.91282 7.94849 4.11927 8.05172 4.06765 7.27752L4.11927 5.93559C4.11927 5.93559 4.22249 5.5743 4.79024 5.62591C4.79024 5.62591 5.82249 5.67752 5.92572 5.5743C5.92572 5.5743 6.13217 5.26462 6.2354 5.1614C6.2354 5.1614 6.75153 5.10978 6.85475 5.26462C6.85475 5.26462 7.62894 5.78075 10.6225 5.5743C10.6225 5.5743 11.087 5.5743 11.1902 5.72914C11.1902 5.72914 11.758 6.14204 12.0677 5.67752C12.0677 5.67752 12.5322 5.5743 14.0289 5.62591C14.0289 5.62591 15.6289 6.03881 16.7128 5.1614L17.0741 5.21301C17.0741 5.21301 17.5386 5.9872 17.8483 5.72914C17.8483 5.72914 18.8289 5.62591 18.9838 5.83236C18.9838 5.83236 19.2935 6.29688 19.1386 7.5872C19.1386 7.5872 18.9322 8.15494 19.9128 8.15494C19.9128 8.15494 20.9967 7.94849 20.8419 8.98075C20.8419 8.98075 21.1515 10.1162 19.3451 9.96139C19.3451 9.96139 19.1386 10.2711 19.1386 10.5291C19.1386 10.5291 19.087 14.2453 19.087 14.6582C19.087 14.6582 19.0354 15.2259 19.8612 15.2259C19.8612 15.2259 20.8935 15.1743 20.9451 16.1033C20.9451 16.1033 21.0999 17.342 19.5515 17.1356C19.5515 17.1356 19.087 17.1872 19.0354 17.4969L18.9322 19.1485C18.9322 19.1485 18.9838 19.9743 18.0548 19.7678C17.8999 19.7678 12.9451 19.8711 12.5322 19.7162C12.5322 19.7162 12.3257 19.6646 12.2225 19.8195Z" fill="#1E1E1E"/>
<path d="M12.2225 19.8195C12.2225 19.8195 11.8612 20.9549 10.2612 19.7678L4.79023 19.6646C4.79023 19.6646 4.06765 19.8711 3.96443 19.1485C3.96443 19.1485 4.11927 17.6517 4.01604 17.4969C4.01604 17.4969 4.06765 17.084 3.34507 17.084C3.34507 17.084 2.2612 17.2388 2.20959 16.2582C2.20959 16.2582 2.00314 15.2259 3.55153 15.2259C3.55153 15.2259 4.01604 15.4324 4.06765 14.813C4.06765 14.813 4.01604 10.5807 4.01604 10.2195C4.01604 10.2195 4.17088 9.80656 3.39669 9.75494C3.39669 9.75494 2.31282 9.9614 2.20959 9.23881C2.20959 9.23881 2.15798 8.15494 2.88056 8.10333C2.88056 8.10333 3.75798 8.15494 3.91282 7.94849C3.91282 7.94849 4.11927 8.05172 4.06765 7.27752L4.11927 5.93559C4.11927 5.93559 4.22249 5.5743 4.79023 5.62591C4.79023 5.62591 5.82249 5.67752 5.92572 5.5743C5.92572 5.5743 6.13217 5.26462 6.2354 5.1614C6.2354 5.1614 6.75153 5.10978 6.85475 5.26462C6.85475 5.26462 7.62894 5.78075 10.6225 5.5743C10.6225 5.5743 11.087 5.5743 11.1902 5.72914C11.1902 5.72914 11.758 6.14204 12.0677 5.67752C12.0677 5.67752 12.5322 5.5743 14.0289 5.62591C14.0289 5.62591 15.6289 6.03881 16.7128 5.1614L17.0741 5.21301C17.0741 5.21301 17.5386 5.9872 17.8483 5.72914C17.8483 5.72914 18.8289 5.62591 18.9838 5.83236C18.9838 5.83236 19.2935 6.29688 19.1386 7.5872C19.1386 7.5872 18.9322 8.15494 19.9128 8.15494C19.9128 8.15494 20.9967 7.94849 20.8418 8.98075C20.8418 8.98075 21.1515 10.1162 19.3451 9.96139C19.3451 9.96139 19.1386 10.2711 19.1386 10.5291C19.1386 10.5291 19.087 14.2453 19.087 14.6582C19.087 14.6582 19.0354 15.2259 19.8612 15.2259C19.8612 15.2259 20.8935 15.1743 20.9451 16.1033C20.9451 16.1033 21.0999 17.342 19.5515 17.1356C19.5515 17.1356 19.087 17.1872 19.0354 17.4969L18.9322 19.1485C18.9322 19.1485 18.9838 19.9743 18.0548 19.7678C17.8999 19.7678 12.9451 19.8711 12.5322 19.7162C12.5322 19.7162 12.3257 19.6646 12.2225 19.8195Z" stroke="#191919" stroke-width="0.112981"/>
<path d="M6.08071 6.3485C6.08071 6.3485 6.13232 7.01947 6.13232 7.1743C6.13232 7.32914 6.0291 16.6195 6.0291 16.6195C6.0291 16.6195 6.13232 17.342 5.51297 17.7033C5.51297 17.7033 5.35813 17.7549 5.30652 17.2904L5.35813 7.48398C5.40974 7.48398 5.46136 6.29689 6.08071 6.3485Z" fill="white"/>
<path d="M6.08071 6.3485C6.08071 6.3485 6.13232 7.01947 6.13232 7.1743C6.13232 7.32914 6.0291 16.6195 6.0291 16.6195C6.0291 16.6195 6.13232 17.342 5.51297 17.7033C5.51297 17.7033 5.35813 17.7549 5.30652 17.2904L5.35813 7.48398C5.40974 7.48398 5.46136 6.29689 6.08071 6.3485Z" stroke="#191919" stroke-width="0.118968"/>
<path d="M4.99685 17.8065C4.99685 17.8065 5.04846 8.61945 5.04846 8.41299C4.99685 8.25816 5.04846 8.56783 5.04846 8.56783C5.04846 8.56783 4.94524 6.96783 5.35814 6.29687C5.35814 6.29687 5.2033 5.72912 4.48072 6.4517V7.79364C4.48072 7.79364 4.48072 8.56783 3.80975 8.51622C3.80975 8.51622 3.03556 8.46461 2.67427 8.8259C2.67427 8.8259 2.46782 9.54848 3.24201 9.39364C3.24201 9.39364 4.42911 9.39364 4.48072 9.85816L4.42911 14.813C4.42911 14.813 4.68717 15.6388 3.75814 15.6388C3.75814 15.6388 2.67427 15.5872 2.67427 16.2582C2.67427 16.2582 2.88072 16.8259 3.86137 16.6711C3.86137 16.6711 4.53233 16.8259 4.53233 17.4453V18.684C4.53233 18.684 4.48072 19.2001 5.10008 19.2001H10.1581C10.1581 19.2001 10.4162 19.2517 10.4162 18.8904C10.4162 18.8904 10.3646 18.6323 10.0033 18.6323L5.77104 18.5807C5.77104 18.5807 5.04846 18.7872 4.99685 17.8065Z" fill="white"/>
<path d="M5.87431 17.8581C5.87431 17.8581 5.71947 18.3226 6.2356 18.2194H9.59044L10.5195 18.4259C10.5195 18.4259 11.4485 18.2194 10.5195 17.6517C10.5195 17.6517 7.52593 17.7033 7.26786 17.6001C7.26786 17.6001 6.64851 17.4452 6.49367 17.3936C6.49367 17.4452 6.18399 17.2904 5.87431 17.8581Z" fill="white"/>
<path d="M5.87431 17.8581C5.87431 17.8581 5.71947 18.3226 6.2356 18.2194H9.59044L10.5195 18.4259C10.5195 18.4259 11.4485 18.2194 10.5195 17.6517C10.5195 17.6517 7.52593 17.7033 7.26786 17.6001C7.26786 17.6001 6.64851 17.4452 6.49367 17.3936C6.49367 17.4452 6.18399 17.2904 5.87431 17.8581Z" stroke="#191919" stroke-width="0.118968"/>
<path d="M11.4485 18.3226C11.4485 18.3226 10.8291 18.3226 10.8807 19.1484C10.8807 19.1484 10.9324 19.7678 11.6033 19.7678C11.6033 19.7678 12.1711 19.6646 12.1195 18.9936C12.1195 18.9936 11.7582 18.1678 11.4485 18.3226Z" fill="white"/>
<path d="M11.9129 17.9613C11.9129 17.9613 12.2226 17.6517 12.3774 17.6517C12.3774 17.6517 15.629 17.9613 16.1968 17.5484C16.1968 17.5484 16.6613 17.4452 16.8161 17.5484C16.8161 17.5484 17.2806 17.9613 17.2806 18.1678C17.2806 18.1678 17.229 18.4775 16.6613 18.3226C16.6613 18.3226 12.9452 18.3742 12.7903 18.3742C12.8419 18.3226 11.8097 18.5807 11.9129 17.9613Z" fill="white"/>
<path d="M11.9129 17.9613C11.9129 17.9613 12.2226 17.6517 12.3774 17.6517C12.3774 17.6517 15.629 17.9613 16.1968 17.5484C16.1968 17.5484 16.6613 17.4452 16.8161 17.5484C16.8161 17.5484 17.2806 17.9613 17.2806 18.1678C17.2806 18.1678 17.229 18.4775 16.6613 18.3226C16.6613 18.3226 12.9452 18.3742 12.7903 18.3742C12.8419 18.3226 11.8097 18.5807 11.9129 17.9613Z" stroke="#191919" stroke-width="0.118968"/>
<path d="M12.4292 18.942C12.4292 18.942 12.4292 18.6839 12.8937 18.6839L17.4873 18.6323C17.4873 18.6323 17.9002 18.8387 17.9002 18.0645C17.9002 18.0645 18.055 14.5033 18.1066 10.5807C18.1066 9.39358 18.1582 8.20649 18.1066 7.071C18.1066 7.071 18.0034 6.60649 17.9002 6.50326C17.9002 6.50326 17.9002 5.98713 18.4679 6.19358C18.4679 6.19358 18.9324 6.24519 18.8292 6.96778L18.8808 8.10326C18.8808 8.10326 18.7776 8.56778 19.655 8.46455C19.655 8.46455 20.5324 8.56778 20.584 8.92907C20.584 8.92907 20.8421 9.60003 19.8098 9.49681H19.0357C19.0357 9.49681 18.726 9.70326 18.8292 10.0645L18.726 14.8129C18.726 14.8129 18.6744 15.6387 19.4486 15.5871C19.4486 15.5871 20.2744 15.5355 20.4292 15.7936C20.4292 15.7936 20.9969 16.6194 19.7582 16.5678C19.7582 16.5678 18.984 16.5162 18.8292 16.671C18.8292 16.671 18.726 16.8258 18.6227 18.3742C18.6227 18.3742 18.6744 19.3033 18.0034 19.2C18.0034 19.2 13.4615 19.2516 13.0486 19.1484C12.9453 19.2 12.4808 19.3033 12.4292 18.942Z" fill="white"/>
<path d="M6.54527 6.09038L6.44204 16.5678C6.44204 16.5678 6.39043 17.0323 7.21624 17.1355C7.21624 17.1355 8.14527 17.2388 8.40333 17.1355C8.40333 17.1355 9.02269 17.0839 10.6227 17.1872C10.6227 17.1872 11.0356 17.6001 11.0356 17.0839C11.0356 17.0839 11.2937 8.61941 11.1904 6.81296C11.1904 6.81296 11.1388 6.03877 10.6227 6.03877C10.6227 6.03877 8.14527 6.24522 7.93882 6.03877L6.95817 5.7807C6.90656 5.7807 6.54527 5.83231 6.54527 6.09038Z" fill="white"/>
<path d="M16.9194 6.45171L16.8678 16.7743C16.8678 16.7743 17.1259 17.7033 17.5388 17.6001C17.5388 17.6001 17.5904 17.3937 17.642 17.084L17.7968 7.27752C17.7968 7.22591 17.4872 5.67752 16.9194 6.45171Z" fill="white"/>
<path d="M16.9194 6.45171L16.8678 16.7743C16.8678 16.7743 17.1259 17.7033 17.5388 17.6001C17.5388 17.6001 17.5904 17.3937 17.642 17.084L17.7968 7.27752C17.7968 7.22591 17.4872 5.67752 16.9194 6.45171Z" stroke="#191919" stroke-width="0.118968"/>
<path d="M11.7066 6.55491C11.7066 6.55491 11.6033 11.4581 11.6549 11.6646L11.6033 15.7936L11.4485 17.2388C11.4485 17.2388 11.6549 17.5485 11.8098 17.342C11.8098 17.342 12.842 17.0839 13.513 17.1872C13.513 17.1872 15.6291 17.3936 16.042 17.0323C16.042 17.0323 16.3517 17.1872 16.4549 16.671C16.4549 16.671 16.6098 7.53555 16.5066 7.38071C16.5066 7.38071 16.6614 6.09039 16.5582 5.93555C16.5582 5.93555 16.5066 5.62588 15.9904 5.88394C15.9904 5.88394 16.042 6.142 12.9453 6.03878C12.9453 6.03878 11.7582 6.03878 11.7066 6.55491Z" fill="white"/>
<path d="M10.7257 9.54847L10.416 10.1678C10.416 10.1678 9.69344 13.3162 9.33215 13.9872C9.33215 13.9872 9.28054 14.6581 8.7128 14.142C8.7128 14.142 7.42248 10.1162 7.37086 10.013L6.95796 9.70331C6.95796 9.70331 6.6999 9.34202 7.16441 9.29041L8.35151 9.34202C8.35151 9.34202 8.76441 9.6517 8.19667 10.013C8.19667 10.013 8.24828 10.5291 8.97086 12.542C8.97086 12.542 9.17732 13.3162 9.38377 12.7485L10.0547 10.4259L9.84828 9.75492C9.84828 9.75492 9.64183 9.44524 9.95151 9.39363C9.95151 9.39363 10.6225 9.29041 10.7257 9.54847Z" fill="#1E1E1E"/>
<path d="M12.5839 10.1163L12.5323 13.5743L12.4291 13.8324C12.4291 13.8324 12.1194 14.2453 12.3259 14.2969C12.3259 14.2969 12.0162 14.5034 14.3904 14.5034C14.3904 14.5034 15.3194 14.6582 15.0613 13.4711C15.0613 13.4711 14.9581 13.0582 14.6484 13.6775C14.6484 13.6775 14.5452 14.1937 13.3581 14.0388C13.3581 14.0388 13.1001 13.8324 13.1001 13.5743V12.1292C13.1001 12.1292 13.0484 11.7679 13.6162 11.8195C13.6162 11.8195 14.2355 12.2324 14.3388 12.0259C14.3388 12.0259 14.5452 11.5098 14.3388 11.2001C14.3388 11.2001 14.0291 11.1485 14.0291 11.3034C14.0291 11.3034 13.8226 11.7163 13.2549 11.4582C13.2549 11.4582 12.9968 10.9421 13.1517 10.5292C13.1517 10.5292 13.1001 9.70335 13.6162 9.75497C13.6162 9.75497 14.2872 9.9098 14.3388 10.0646C14.3388 10.0646 14.4936 10.4775 14.6484 10.013L14.4936 9.44529C14.4936 9.44529 14.3904 9.23884 14.2355 9.29045C14.2355 9.29045 13.1517 9.44529 12.9968 9.34206L12.2226 9.39368C12.2226 9.39368 12.1194 9.70335 12.4807 9.85819C12.4807 9.9098 12.5839 9.96142 12.5839 10.1163Z" fill="#1E1E1E"/>
</g>
<defs>
<clipPath id="clip0_1849_5582">
<rect width="192.981" height="48.4645" fill="white" transform="translate(0.86792)"/>
</clipPath>
</defs>
</svg>
