<svg width="99" height="40" viewBox="0 0 99 40" fill="none" xmlns="http://www.w3.org/2000/svg">
<path d="M71.1273 7.29749C71.2501 7.29693 71.2501 7.29693 71.3754 7.29636C71.5503 7.29579 71.7253 7.29553 71.9002 7.29555C72.1607 7.29531 72.4212 7.2933 72.6818 7.29116C73.8437 7.28694 74.9715 7.37774 76.1218 7.53996C76.1218 7.61378 76.1218 7.68759 76.1218 7.76365C76.2021 7.75817 76.2823 7.75269 76.365 7.74704C76.7241 7.76605 76.927 7.85985 77.2425 8.02927C77.3823 8.10323 77.3823 8.10323 77.5249 8.17869C77.6132 8.22626 77.7015 8.27384 77.7924 8.32286C77.875 8.36121 77.9576 8.39956 78.0426 8.43907C78.2379 8.54654 78.2379 8.54654 78.3493 8.77023C78.4734 8.82328 78.5974 8.87634 78.7252 8.931C79.2569 9.16112 79.2569 9.16112 79.4631 9.44128C79.4631 9.5151 79.4631 9.58891 79.4631 9.66496C79.5301 9.67754 79.597 9.69012 79.6661 9.70308C80.0575 9.82208 80.2946 10.13 80.5699 10.4199C80.6269 10.4787 80.684 10.5375 80.7428 10.5981C80.8562 10.7151 80.9692 10.8324 81.0817 10.9501C81.2363 11.1098 81.3955 11.265 81.5548 11.4199C81.802 11.6781 81.802 11.6781 81.976 12.0346C82.1464 12.3694 82.2352 12.4529 82.5816 12.5729C82.5816 12.6836 82.5816 12.7943 82.5816 12.9084C82.6918 12.9084 82.8021 12.9084 82.9157 12.9084C83.087 13.195 83.1437 13.3965 83.1872 13.7332C83.2293 14.1419 83.2293 14.1419 83.4239 14.4882C83.5889 14.8195 83.6159 15.0052 83.584 15.3689C83.6942 15.4058 83.8045 15.4427 83.9181 15.4808C84.5405 17.5989 84.5303 20.4084 83.7841 22.4844C83.6086 23.0105 83.4893 23.5533 83.3612 24.0926C83.2877 24.0926 83.2142 24.0926 83.1385 24.0926C83.1385 24.2772 83.1385 24.4617 83.1385 24.6518C83.065 24.6518 82.9914 24.6518 82.9157 24.6518C82.9157 24.7995 82.9157 24.9471 82.9157 25.0992C82.8054 25.0992 82.6952 25.0992 82.5816 25.0992C82.5816 25.2099 82.5816 25.3206 82.5816 25.4347C82.4713 25.4347 82.3611 25.4347 82.2475 25.4347C82.174 25.6193 82.1004 25.8038 82.0247 25.9939C81.9512 25.9939 81.8777 25.9939 81.802 25.9939C81.802 26.1416 81.802 26.2892 81.802 26.4413C81.6182 26.4413 81.4344 26.4413 81.2451 26.4413C81.2451 26.3675 81.2451 26.2937 81.2451 26.2176C81.1348 26.2176 81.0246 26.2176 80.911 26.2176C80.911 26.1069 80.911 25.9962 80.911 25.8821C80.8469 25.854 80.7828 25.826 80.7168 25.7971C80.4315 25.6397 80.2382 25.4591 80.0078 25.2285C79.9238 25.1445 79.8398 25.0604 79.7533 24.9738C79.6667 24.886 79.5801 24.7982 79.4909 24.7077C79.4026 24.6199 79.3143 24.5321 79.2234 24.4417C79.1399 24.3576 79.0565 24.2736 78.9706 24.187C78.8941 24.1099 78.8176 24.0329 78.7388 23.9535C78.5721 23.7571 78.5721 23.7571 78.5721 23.5334C78.2964 23.6441 78.2964 23.6441 78.0152 23.7571C77.9869 24.082 77.9757 24.2588 78.1633 24.532C78.265 24.632 78.265 24.632 78.3689 24.734C78.4428 24.8073 78.5166 24.8807 78.5927 24.9563C78.6709 25.0312 78.7491 25.106 78.8296 25.1831C78.9065 25.2596 78.9834 25.3362 79.0626 25.4151C79.4869 25.8449 79.4869 25.8449 80.02 26.1058C80.1332 26.2911 80.2442 26.4777 80.3541 26.665C80.5414 26.8735 80.7348 27.0765 80.9323 27.2753C80.9885 27.332 81.0447 27.3886 81.1026 27.447C81.2215 27.5666 81.3407 27.6858 81.4601 27.8048C81.6394 27.9837 81.8174 28.1636 81.9953 28.3437C82.6112 28.9626 83.2286 29.5355 83.935 30.0524C84.1683 30.2695 84.1906 30.3868 84.2522 30.6913C82.5376 30.6939 80.823 30.6959 79.1084 30.6971C78.3123 30.6977 77.5161 30.6985 76.7199 30.6997C76.0258 30.7009 75.3317 30.7016 74.6376 30.7018C74.2702 30.702 73.9029 30.7024 73.5355 30.7031C73.1249 30.7039 72.7143 30.7041 72.3037 30.704C72.122 30.7046 72.122 30.7046 71.9367 30.7052C70.342 30.703 70.342 30.703 70.1076 30.4676C69.9077 30.4503 69.9077 30.4503 69.7038 30.4327C69.3507 30.394 69.1092 30.3175 68.8059 30.1321C68.4741 29.9309 68.2585 29.8426 67.88 29.7966C67.88 29.7228 67.88 29.6489 67.88 29.5729C67.7997 29.5798 67.7193 29.5867 67.6364 29.5939C67.2606 29.5687 67.0663 29.4612 66.7663 29.2374C66.7663 29.1635 66.7663 29.0897 66.7663 29.0137C66.7015 29.0001 66.6368 28.9866 66.5701 28.9726C65.8587 28.7706 65.3157 28.2642 64.822 27.7332C64.6367 27.5347 64.6367 27.5347 64.316 27.336C64.316 27.2253 64.316 27.1146 64.316 27.0005C64.2425 27.0005 64.169 27.0005 64.0933 27.0005C63.9625 26.8769 63.8329 26.7516 63.7096 26.6204C63.585 26.4915 63.4548 26.368 63.3215 26.2482C62.7102 25.6853 62.3627 25.1027 62.0885 24.3163C62.0885 24.2425 62.0885 24.1687 62.0885 24.0926C62.015 24.0926 61.9415 24.0926 61.8658 24.0926C61.7192 23.6878 61.643 23.4109 61.643 22.9742C61.5695 22.9742 61.496 22.9742 61.4203 22.9742C60.8314 20.9081 60.7981 18.9498 60.8634 16.8229C60.9369 16.8229 61.0104 16.8229 61.0862 16.8229C61.1068 16.6049 61.1068 16.6049 61.1279 16.3825C61.1862 15.8478 61.2937 15.3319 61.4203 14.8097C61.4938 14.8097 61.5673 14.8097 61.643 14.8097C61.643 14.5883 61.643 14.3668 61.643 14.1387C61.7533 14.0833 61.7533 14.0833 61.8658 14.0268C62.081 13.7026 62.2494 13.3642 62.4157 13.0132C62.5935 12.6478 62.7929 12.4041 63.0909 12.1255C63.1277 12.0148 63.1644 11.904 63.2023 11.79C63.2758 11.79 63.3493 11.79 63.425 11.79C63.5448 11.4933 63.6583 11.199 63.7592 10.8952C64.1952 10.4871 64.7125 10.1838 65.2279 9.88865C65.5687 9.69 65.8171 9.52365 66.0493 9.20362C66.5648 8.59305 67.3425 8.42262 68.0824 8.18699C68.326 8.099 68.5431 7.99134 68.7711 7.8685C69.1768 7.6537 69.5705 7.55511 70.0201 7.47224C70.8052 7.298 70.8052 7.298 71.1273 7.29749Z" fill="#FAF6F2"/>
<path d="M8.96281 8.21094C14.9904 8.21094 21.0181 8.21094 27.2284 8.21094C27.2284 10.6469 27.2284 13.0828 27.2284 15.5925C25.7214 15.5925 24.2145 15.5925 22.662 15.5925C22.662 15.9247 22.662 16.2569 22.662 16.5991C24.1689 16.5991 25.6758 16.5991 27.2284 16.5991C27.2284 18.9612 27.2284 21.3233 27.2284 23.757C25.6112 23.757 23.994 23.757 22.3278 23.757C22.3278 25.9346 22.3278 28.1121 22.3278 30.3557C19.0201 30.3602 19.0201 30.3602 17.392 30.3613C16.5097 30.3619 15.6274 30.3627 14.7452 30.3641C14.0469 30.3652 13.3486 30.366 12.6503 30.3662C12.2804 30.3664 11.9104 30.3668 11.5405 30.3675C11.1281 30.3683 10.7158 30.3685 10.3035 30.3684C10.1182 30.369 10.1182 30.369 9.92914 30.3696C9.81747 30.3695 9.7058 30.3693 9.59074 30.3692C9.49311 30.3693 9.39547 30.3694 9.29488 30.3695C9.07419 30.3557 9.07419 30.3557 8.96281 30.2439C8.95192 29.9596 8.94834 29.6783 8.94942 29.394C8.94932 29.3039 8.94923 29.2138 8.94913 29.121C8.94895 28.8169 8.94956 28.5127 8.95017 28.2086C8.9502 27.9915 8.95018 27.7744 8.95012 27.5573C8.95009 26.966 8.95074 26.3747 8.95152 25.7834C8.95221 25.1662 8.95228 24.549 8.95241 23.9318C8.95276 22.7621 8.95367 21.5924 8.95479 20.4227C8.95627 18.8428 8.95687 17.2628 8.95752 15.6828C8.95857 13.1922 8.96079 10.7016 8.96281 8.21094Z" fill="#FAF6F2"/>
<path d="M29.1208 8.21094C32.7227 8.21094 36.3246 8.21094 40.0356 8.21094C40.0724 11.8648 40.1091 15.5187 40.147 19.2833C42.1685 19.3202 44.1899 19.3571 46.2726 19.3952C46.2726 23.0121 46.2726 26.6291 46.2726 30.3557C40.6125 30.3557 34.9525 30.3557 29.1208 30.3557C29.1208 23.0479 29.1208 15.7402 29.1208 8.21094Z" fill="#FAF6F2"/>
<path d="M48.0544 8.21094C51.8768 8.21094 55.6992 8.21094 59.6375 8.21094C59.6375 15.5187 59.6375 22.8265 59.6375 30.3557C55.8151 30.3557 51.9927 30.3557 48.0544 30.3557C48.0544 23.0479 48.0544 15.7402 48.0544 8.21094Z" fill="#FAF6F2"/>
<path d="M90.1538 31.4736C91.5505 31.4736 92.9471 31.4736 94.3861 31.4736C94.3861 32.913 94.3861 34.3525 94.3861 35.8355C92.9894 35.8355 91.5928 35.8355 90.1538 35.8355C90.1538 34.3961 90.1538 32.9567 90.1538 31.4736Z" fill="#FAF6F2"/>
<path d="M29.6317 8.08318C29.7902 8.08352 29.7902 8.08352 29.9518 8.08387C30.0625 8.08367 30.1731 8.08348 30.2871 8.08327C30.6548 8.08278 31.0225 8.08311 31.3902 8.08349C31.6444 8.08341 31.8987 8.0833 32.153 8.08316C32.6867 8.083 33.2204 8.08324 33.754 8.08376C34.4398 8.0844 35.1256 8.08403 35.8114 8.08336C36.3367 8.08296 36.862 8.08308 37.3873 8.08337C37.6403 8.08345 37.8932 8.08336 38.1462 8.0831C38.499 8.08281 38.8518 8.08324 39.2047 8.08387C39.3103 8.08364 39.416 8.08342 39.5248 8.08318C40.2457 8.08556 40.2457 8.08556 40.3698 8.21018C40.3804 8.54722 40.3838 8.88169 40.3824 9.21876C40.3824 9.32459 40.3825 9.43042 40.3825 9.53945C40.3824 9.89106 40.3815 10.2427 40.3807 10.5943C40.3805 10.8373 40.3803 11.0804 40.3802 11.3235C40.3798 11.9646 40.3787 12.6058 40.3774 13.2469C40.3761 14.0154 40.3756 14.784 40.3749 15.5525C40.3738 16.7213 40.3717 17.8901 40.3698 19.0589C42.3545 19.0589 44.3392 19.0589 46.384 19.0589C46.3885 21.8735 46.3885 21.8735 46.3895 23.0688C46.3902 23.886 46.3909 24.7031 46.3924 25.5203C46.3937 26.1788 46.3943 26.8372 46.3946 27.4957C46.3948 27.7475 46.3952 27.9993 46.3958 28.2511C46.3966 28.6025 46.3967 28.9539 46.3967 29.3053C46.3971 29.4105 46.3975 29.5158 46.3979 29.6242C46.3967 30.3422 46.3967 30.3422 46.2727 30.4668C46.05 30.4776 45.8269 30.4804 45.6039 30.4802C45.3858 30.4805 45.3858 30.4805 45.1633 30.4807C45.0006 30.4803 44.838 30.4799 44.6753 30.4795C44.5052 30.4795 44.3351 30.4795 44.165 30.4795C43.7018 30.4796 43.2386 30.4789 42.7754 30.4781C42.2919 30.4774 41.8084 30.4774 41.3248 30.4772C40.4085 30.4769 39.4922 30.476 38.5759 30.4748C37.533 30.4736 36.4901 30.473 35.4472 30.4724C33.3013 30.4712 31.1554 30.4693 29.0095 30.4668C28.7355 30.0454 28.7559 29.6238 28.7592 29.1384C28.759 29.049 28.7587 28.9597 28.7584 28.8676C28.7578 28.5679 28.7587 28.2681 28.7597 27.9684C28.7596 27.7536 28.7594 27.5389 28.7591 27.3241C28.7585 26.7407 28.7594 26.1573 28.7605 25.5738C28.7615 24.9641 28.7613 24.3544 28.7612 23.7447C28.7613 22.7211 28.7623 21.6975 28.7638 20.6739C28.7656 19.4888 28.7662 18.3037 28.7661 17.1186C28.766 15.9801 28.7666 14.8417 28.7675 13.7033C28.7679 13.218 28.7681 12.7326 28.7682 12.2473C28.7683 11.6766 28.769 11.1059 28.7701 10.5352C28.7704 10.3251 28.7705 10.1151 28.7705 9.90499C28.7704 9.61952 28.7711 9.33406 28.7719 9.04858C28.7717 8.96436 28.7715 8.88013 28.7713 8.79335C28.775 8.02958 28.8862 8.08564 29.6317 8.08318ZM29.1209 8.21018C29.1209 15.518 29.1209 22.8257 29.1209 30.3549C34.781 30.3549 40.4411 30.3549 46.2727 30.3549C46.2727 26.738 46.2727 23.121 46.2727 19.3944C44.2512 19.3575 42.2297 19.3206 40.147 19.2826C40.1103 15.6287 40.0735 11.9748 40.0357 8.21018C36.4338 8.21018 32.8319 8.21018 29.1209 8.21018Z" fill="#FAF6F2"/>
<path d="M8.96281 8.21094C14.9904 8.21094 21.0181 8.21094 27.2284 8.21094C27.2284 10.6469 27.2284 13.0828 27.2284 15.5925C25.7214 15.5925 24.2145 15.5925 22.662 15.5925C22.662 15.9247 22.662 16.2569 22.662 16.5991C24.1689 16.5991 25.6758 16.5991 27.2284 16.5991C27.2284 18.9612 27.2284 21.3233 27.2284 23.757C25.6112 23.757 23.994 23.757 22.3278 23.757C22.3278 25.9346 22.3278 28.1121 22.3278 30.3557C19.0201 30.3602 19.0201 30.3602 17.392 30.3613C16.5097 30.3619 15.6274 30.3627 14.7452 30.3641C14.0469 30.3652 13.3486 30.366 12.6503 30.3662C12.2804 30.3664 11.9104 30.3668 11.5405 30.3675C11.1281 30.3683 10.7158 30.3685 10.3035 30.3684C10.1182 30.369 10.1182 30.369 9.92914 30.3696C9.81747 30.3695 9.7058 30.3693 9.59074 30.3692C9.49311 30.3693 9.39547 30.3694 9.29488 30.3695C9.07419 30.3557 9.07419 30.3557 8.96281 30.2439C8.95192 29.9596 8.94834 29.6783 8.94942 29.394C8.94932 29.3039 8.94923 29.2138 8.94913 29.121C8.94895 28.8169 8.94956 28.5127 8.95017 28.2086C8.9502 27.9915 8.95018 27.7744 8.95012 27.5573C8.95009 26.966 8.95074 26.3747 8.95152 25.7834C8.95221 25.1662 8.95228 24.549 8.95241 23.9318C8.95276 22.7621 8.95367 21.5924 8.95479 20.4227C8.95627 18.8428 8.95687 17.2628 8.95752 15.6828C8.95857 13.1922 8.96079 10.7016 8.96281 8.21094ZM9.18556 8.32278C9.18556 15.5567 9.18556 22.7907 9.18556 30.2439C13.449 30.2439 17.7125 30.2439 22.1051 30.2439C22.1418 28.177 22.1786 26.1102 22.2165 23.9807C22.4392 23.6452 22.4392 23.6452 22.6436 23.6006C22.7262 23.5993 22.8088 23.5981 22.8939 23.5968C22.9889 23.5946 23.0838 23.5923 23.1816 23.5901C23.3314 23.589 23.3314 23.589 23.4842 23.5879C23.576 23.5861 23.6677 23.5842 23.7622 23.5823C24.1054 23.5758 24.4487 23.5722 24.792 23.5683C25.9429 23.551 25.9429 23.551 27.117 23.5333C27.117 21.3188 27.117 19.1044 27.117 16.8228C25.6101 16.8228 24.1032 16.8228 22.5506 16.8228C22.5506 16.3799 22.5506 15.937 22.5506 15.4807C22.6816 15.4813 22.8126 15.4819 22.9476 15.4825C23.4318 15.4845 23.916 15.4858 24.4003 15.4868C24.6102 15.4874 24.8201 15.4882 25.03 15.4891C25.3311 15.4905 25.6321 15.4911 25.9332 15.4916C26.0748 15.4925 26.0748 15.4925 26.2194 15.4934C26.4443 15.4934 26.6693 15.4876 26.8942 15.4807C27.0911 15.283 27.0198 14.9994 27.02 14.7316C27.0205 14.5273 27.0205 14.5273 27.0211 14.3189C27.0209 14.1691 27.0206 14.0193 27.0204 13.8695C27.0205 13.7169 27.0206 13.5644 27.0207 13.4119C27.0209 13.0918 27.0206 12.7718 27.0201 12.4517C27.0195 12.0406 27.0199 11.6295 27.0205 11.2184C27.0209 10.9034 27.0208 10.5883 27.0205 10.2732C27.0204 10.1216 27.0205 9.96996 27.0208 9.81835C27.0211 9.60678 27.0206 9.39522 27.02 9.18366C27.0199 9.06305 27.0198 8.94243 27.0197 8.81816C27.0362 8.5522 27.0362 8.5522 26.8942 8.43462C26.6659 8.42242 26.4372 8.41819 26.2085 8.41693C26.1363 8.41638 26.0641 8.41582 25.9897 8.41526C25.7451 8.41353 25.5005 8.4126 25.256 8.41166C25.0787 8.41057 24.9013 8.40944 24.724 8.40826C24.2475 8.40522 23.771 8.40286 23.2945 8.40063C22.848 8.39844 22.4015 8.39565 21.955 8.39291C20.6477 8.38524 19.3403 8.37854 18.0329 8.37171C15.1133 8.35556 12.1937 8.33942 9.18556 8.32278Z" fill="#FAF6F2"/>
<path d="M8.7382 8.09863C14.8761 8.09863 21.014 8.09863 27.3379 8.09863C27.3379 10.6084 27.3379 13.1181 27.3379 15.7039C27.2265 15.8157 27.2265 15.8157 26.8253 15.8284C26.6468 15.8284 26.4683 15.8278 26.2898 15.8267C26.196 15.8265 26.1022 15.8264 26.0056 15.8262C25.7049 15.8256 25.4041 15.8242 25.1034 15.8227C24.9 15.8222 24.6966 15.8217 24.4932 15.8212C23.9936 15.82 23.4939 15.818 22.9942 15.8157C22.9942 16.0003 22.9942 16.1848 22.9942 16.375C23.6088 16.3777 24.2233 16.3798 24.8378 16.3811C25.047 16.3817 25.2561 16.3824 25.4653 16.3834C25.7655 16.3847 26.0657 16.3854 26.3659 16.3859C26.4598 16.3865 26.5537 16.387 26.6504 16.3876C27.1204 16.4011 27.1204 16.4011 27.5606 16.2631C27.5487 17.2363 27.5361 18.2094 27.5228 19.1826C27.5167 19.6344 27.5107 20.0863 27.5052 20.5381C27.4999 20.974 27.4941 21.4098 27.4879 21.8456C27.4856 22.0121 27.4835 22.1786 27.4816 22.3451C27.479 22.5779 27.4756 22.8106 27.4721 23.0433C27.4704 23.1759 27.4686 23.3085 27.4669 23.4452C27.4492 23.7565 27.4492 23.7565 27.3379 23.9802C25.7207 23.9802 24.1035 23.9802 22.4374 23.9802C22.4387 24.4391 22.4399 24.898 22.4413 25.3708C22.442 25.7358 22.4426 26.1008 22.4431 26.4658C22.4437 26.8515 22.4445 27.2373 22.4458 27.6231C22.4472 28.0653 22.4477 28.5076 22.4482 28.9498C22.4488 29.0887 22.4494 29.2275 22.45 29.3706C22.45 29.4982 22.45 29.6258 22.45 29.7573C22.4502 29.8703 22.4505 29.9833 22.4508 30.0998C22.4374 30.3552 22.4374 30.3552 22.326 30.4671C22.1515 30.4781 21.9765 30.4812 21.8017 30.4813C21.6316 30.4818 21.6316 30.4818 21.4581 30.4822C21.27 30.4819 21.27 30.4819 21.078 30.4816C20.9467 30.4817 20.8155 30.4819 20.6802 30.4821C20.3192 30.4826 19.9581 30.4825 19.5971 30.4821C19.22 30.4818 18.843 30.4821 18.4659 30.4823C17.8326 30.4825 17.1993 30.4822 16.566 30.4817C15.8328 30.4811 15.0996 30.4813 14.3664 30.4819C13.738 30.4824 13.1096 30.4824 12.4811 30.4822C12.1053 30.482 11.7295 30.482 11.3537 30.4823C10.935 30.4826 10.5163 30.4822 10.0975 30.4816C9.97211 30.4818 9.84667 30.482 9.71743 30.4822C9.60404 30.4819 9.49066 30.4816 9.37384 30.4813C9.27471 30.4812 9.17557 30.4812 9.07344 30.4812C8.84958 30.4671 8.84958 30.4671 8.7382 30.3552C8.72731 30.0681 8.72373 29.784 8.72481 29.4968C8.72471 29.4059 8.72462 29.3149 8.72452 29.2211C8.72434 28.9139 8.72495 28.6067 8.72556 28.2995C8.72559 28.0802 8.72557 27.8609 8.72551 27.6416C8.72548 27.0443 8.72613 26.447 8.72691 25.8496C8.7276 25.2262 8.72767 24.6027 8.7278 23.9792C8.72815 22.7976 8.72907 21.616 8.73018 20.4345C8.73166 18.8385 8.73226 17.2424 8.73291 15.6464C8.73396 13.1305 8.73618 10.6146 8.7382 8.09863ZM8.96095 8.21048C8.95771 12.1238 8.95771 12.1238 8.95551 16.037C8.95485 17.6318 8.95407 19.2267 8.95255 20.8215C8.95144 21.9827 8.95072 23.144 8.95047 24.3053C8.95033 24.9206 8.94998 25.5359 8.94918 26.1512C8.94842 26.7296 8.94819 27.308 8.94836 27.8864C8.94832 28.0994 8.9481 28.3123 8.94768 28.5253C8.94713 28.8147 8.94725 29.1041 8.94756 29.3935C8.94724 29.4789 8.94691 29.5643 8.94658 29.6523C8.91324 30.036 8.91324 30.036 9.07233 30.3552C9.24424 30.366 9.41664 30.3689 9.58888 30.3687C9.70055 30.3688 9.81222 30.369 9.92728 30.3692C10.0508 30.3688 10.1743 30.3683 10.3016 30.3679C10.4955 30.368 10.4955 30.368 10.6934 30.368C11.1231 30.3679 11.5528 30.367 11.9824 30.3662C12.2794 30.366 12.5764 30.3658 12.8734 30.3657C13.5767 30.3653 14.28 30.3644 14.9833 30.3633C15.8623 30.3619 16.7412 30.3613 17.6202 30.3607C19.1888 30.3596 20.7574 30.3574 22.326 30.3552C22.326 28.1777 22.326 26.0001 22.326 23.7565C23.9432 23.7565 25.5603 23.7565 27.2265 23.7565C27.2265 21.3944 27.2265 19.0323 27.2265 16.5986C25.7196 16.5986 24.2127 16.5986 22.6601 16.5986C22.6601 16.2665 22.6601 15.9343 22.6601 15.5921C24.167 15.5921 25.6739 15.5921 27.2265 15.5921C27.2265 13.1561 27.2265 10.7202 27.2265 8.21048C21.1989 8.21048 15.1712 8.21048 8.96095 8.21048Z" fill="#FAF6F2"/>
<path d="M29.1208 8.09888C30.5711 8.09629 32.0213 8.0943 33.4715 8.09308C34.1449 8.0925 34.8182 8.0917 35.4915 8.09044C36.1407 8.08923 36.7899 8.08856 37.4391 8.08827C37.6874 8.08806 37.9357 8.08765 38.184 8.08705C38.5304 8.08625 38.8769 8.08613 39.2233 8.08618C39.3271 8.08578 39.4308 8.08538 39.5377 8.08496C40.2457 8.08612 40.2457 8.08612 40.3697 8.21072C40.3804 8.54776 40.3837 8.88222 40.3824 9.21929C40.3824 9.32512 40.3824 9.43095 40.3824 9.53999C40.3824 9.89159 40.3815 10.2432 40.3806 10.5948C40.3804 10.8379 40.3803 11.0809 40.3801 11.324C40.3797 11.9652 40.3786 12.6063 40.3774 13.2474C40.3761 14.016 40.3755 14.7845 40.3749 15.553C40.3738 16.7218 40.3717 17.8906 40.3697 19.0594C42.3545 19.0594 44.3392 19.0594 46.384 19.0594C46.384 22.7871 46.384 26.5148 46.384 30.3555C46.3473 30.3555 46.3105 30.3555 46.2726 30.3555C46.2726 26.7385 46.2726 23.1215 46.2726 19.3949C44.2617 19.3994 44.2617 19.3994 42.2508 19.405C41.9998 19.4053 41.7488 19.4056 41.4979 19.4059C41.3003 19.4067 41.3003 19.4067 41.0988 19.4076C40.9744 19.4076 40.8501 19.4076 40.722 19.4076C40.6134 19.4079 40.5048 19.4081 40.3929 19.4084C40.147 19.3949 40.147 19.3949 40.0356 19.2831C40.025 18.9392 40.0216 18.5979 40.023 18.254C40.023 18.146 40.0229 18.038 40.0229 17.9267C40.023 17.5678 40.0239 17.209 40.0247 16.8501C40.025 16.602 40.0251 16.3539 40.0252 16.1058C40.0257 15.4515 40.0267 14.7971 40.028 14.1427C40.0293 13.3583 40.0298 12.5739 40.0305 11.7895C40.0316 10.5966 40.0337 9.40365 40.0356 8.21072C36.4337 8.21072 32.8319 8.21072 29.1208 8.21072C29.1208 8.17381 29.1208 8.1369 29.1208 8.09888Z" fill="#FAF6F2"/>
<path d="M66.0961 28.7891C66.3166 28.8629 66.5371 28.9367 66.7643 29.0127C66.7643 29.0866 66.7643 29.1604 66.7643 29.2364C67.1319 29.3472 67.4994 29.4579 67.8781 29.572C67.8781 29.6458 67.8781 29.7196 67.8781 29.7956C67.9918 29.7818 67.9918 29.7818 68.1078 29.7677C68.4805 29.7995 68.6893 29.9405 69.0018 30.1364C69.3577 30.3147 69.7123 30.3208 70.1056 30.3549C70.1607 30.4102 70.1607 30.4102 70.217 30.4667C70.9092 30.6017 71.5985 30.5978 72.3017 30.6015C72.4311 30.6026 72.5605 30.6037 72.6938 30.6049C73.1199 30.6084 73.5459 30.6112 73.972 30.6139C74.268 30.6162 74.564 30.6186 74.8601 30.621C75.5586 30.6265 76.2571 30.6316 76.9557 30.6364C77.7513 30.6419 78.547 30.6481 79.3426 30.6543C80.9785 30.667 82.6144 30.6789 84.2502 30.6904C84.2135 30.5427 84.1767 30.3951 84.1389 30.243C84.2491 30.2799 84.3594 30.3168 84.473 30.3549C84.3755 30.9001 84.3755 30.9001 84.2502 31.0259C84.0811 31.0366 83.9116 31.0395 83.7421 31.0394C83.5774 31.0396 83.5774 31.0396 83.4094 31.0398C83.288 31.0394 83.1665 31.039 83.0414 31.0386C82.8507 31.0386 82.8507 31.0386 82.6562 31.0387C82.2337 31.0386 81.8113 31.0377 81.3888 31.0368C81.0969 31.0366 80.8049 31.0365 80.5129 31.0364C79.8214 31.036 79.1299 31.0351 78.4385 31.034C77.6515 31.0327 76.8644 31.0321 76.0774 31.0315C74.458 31.0304 72.8387 31.0284 71.2193 31.0259C71.2193 30.989 71.2193 30.9521 71.2193 30.9141C71.1402 30.8992 71.0611 30.8844 70.9796 30.8691C70.8772 30.8493 70.7749 30.8296 70.6694 30.8092C70.5673 30.7897 70.4653 30.7703 70.3601 30.7502C70.1056 30.6904 70.1056 30.6904 69.9942 30.5785C69.8069 30.5525 69.6187 30.5324 69.4304 30.5156C69.328 30.5063 69.2256 30.4969 69.1202 30.4872C69.0411 30.4805 68.962 30.4737 68.8805 30.4667C68.8805 30.3929 68.8805 30.3191 68.8805 30.243C68.7633 30.2569 68.7633 30.2569 68.6438 30.271C68.2175 30.2337 68.0092 30.0348 67.6553 29.7956C67.3262 29.6661 66.9921 29.56 66.6529 29.4601C66.6529 29.3494 66.6529 29.2387 66.6529 29.1246C66.5817 29.1107 66.5105 29.0969 66.4372 29.0826C66.3614 29.0596 66.2855 29.0365 66.2074 29.0127C66.1707 28.9389 66.1339 28.8651 66.0961 28.7891Z" fill="#FAF6F2"/>
<path d="M58.5239 8.21094C58.8547 8.21094 59.1855 8.21094 59.5263 8.21094C59.5263 15.4818 59.5263 22.7527 59.5263 30.2439C59.4528 30.2439 59.3793 30.2439 59.3036 30.2439C59.169 29.8384 59.1792 29.4703 59.183 29.0485C59.1834 28.9601 59.1837 28.8716 59.1841 28.7805C59.1854 28.4833 59.1876 28.186 59.1898 27.8888C59.1909 27.676 59.192 27.4633 59.193 27.2506C59.196 26.6723 59.1996 26.0939 59.2034 25.5156C59.2072 24.9115 59.2104 24.3074 59.2136 23.7033C59.2199 22.559 59.2267 21.4147 59.2338 20.2703C59.2417 18.9677 59.2491 17.6651 59.2564 16.3625C59.2714 13.6826 59.2872 11.0027 59.3036 8.32278C59.0463 8.35969 58.789 8.3966 58.5239 8.43462C58.5239 8.36081 58.5239 8.28699 58.5239 8.21094Z" fill="#FAF6F2"/>
<path d="M40.258 8.21094C40.2948 8.21094 40.3315 8.21094 40.3694 8.21094C40.3694 11.791 40.3694 15.3711 40.3694 19.0596C42.3541 19.0596 44.3388 19.0596 46.3837 19.0596C46.3837 22.7873 46.3837 26.515 46.3837 30.3557C46.3469 30.3557 46.3102 30.3557 46.2723 30.3557C46.2172 24.9302 46.2172 24.9302 46.1609 19.3952C44.26 19.3628 44.26 19.3628 42.359 19.3316C42.1217 19.3274 41.8844 19.3231 41.6472 19.3187C41.5227 19.3169 41.3982 19.315 41.27 19.3131C41.1524 19.3109 41.0348 19.3086 40.9137 19.3063C40.8111 19.3045 40.7084 19.3028 40.6027 19.301C40.3694 19.2833 40.3694 19.2833 40.258 19.1715C40.2474 18.831 40.2441 18.4931 40.2454 18.1526C40.2454 18.0457 40.2454 17.9388 40.2453 17.8286C40.2454 17.4734 40.2463 17.1182 40.2472 16.7629C40.2474 16.5174 40.2475 16.2718 40.2476 16.0262C40.2481 15.3784 40.2492 14.7307 40.2504 14.0829C40.2515 13.4225 40.252 12.762 40.2526 12.1016C40.2538 10.8047 40.2557 9.50783 40.258 8.21094Z" fill="#FAF6F2"/>
<path d="M78.125 23.5332C78.5705 23.5332 78.5705 23.5332 78.7375 23.6817C78.7927 23.7527 78.8478 23.8236 78.9046 23.8967C79.2665 24.3377 79.6508 24.7446 80.0532 25.1479C80.1119 25.2074 80.1707 25.2669 80.2313 25.3282C80.5408 25.6442 80.5408 25.6442 80.9094 25.8819C80.9094 25.9926 80.9094 26.1033 80.9094 26.2174C81.0196 26.2174 81.1299 26.2174 81.2435 26.2174C81.2435 26.2912 81.2435 26.365 81.2435 26.4411C81.3905 26.478 81.5375 26.5149 81.689 26.5529C81.4317 26.516 81.1744 26.4791 80.9094 26.4411C80.8726 26.6625 80.8358 26.884 80.798 27.1122C80.6671 27.0085 80.5373 26.9034 80.4082 26.7976C80.3358 26.7392 80.2634 26.6808 80.1889 26.6207C80.0184 26.4411 80.0184 26.4411 80.0184 26.1056C79.9533 26.0945 79.8882 26.0834 79.8212 26.072C79.3532 25.9245 79.049 25.5249 78.7097 25.1829C78.632 25.1081 78.5544 25.0332 78.4743 24.9561C78.401 24.8828 78.3276 24.8094 78.252 24.7338C78.1849 24.6671 78.1177 24.6005 78.0485 24.5318C77.8598 24.2535 77.858 24.0871 77.9022 23.7569C77.9757 23.6831 78.0492 23.6093 78.125 23.5332Z" fill="#FAF6F2"/>
<path d="M90.3737 31.3496C90.571 31.3496 90.7684 31.3503 90.9657 31.3514C91.0694 31.3515 91.1731 31.3517 91.2799 31.3519C91.6124 31.3525 91.9449 31.3539 92.2775 31.3553C92.5023 31.3559 92.7272 31.3564 92.952 31.3568C93.5045 31.3581 94.0569 31.36 94.6094 31.3623C94.6121 31.9974 94.6141 32.6325 94.6155 33.2675C94.6161 33.4838 94.6168 33.7 94.6178 33.9162C94.6191 34.2263 94.6198 34.5364 94.6202 34.8465C94.6208 34.9437 94.6214 35.041 94.622 35.1412C94.622 35.3729 94.6163 35.6045 94.6094 35.836C94.498 35.9478 94.498 35.9478 94.0559 35.9605C93.8586 35.9605 93.6612 35.9599 93.4639 35.9588C93.3602 35.9586 93.2565 35.9584 93.1497 35.9583C92.8172 35.9577 92.4847 35.9562 92.1522 35.9548C91.9273 35.9543 91.7024 35.9538 91.4776 35.9533C90.9251 35.9521 90.3727 35.9501 89.8202 35.9478C89.8175 35.3128 89.8155 34.6777 89.8141 34.0426C89.8136 33.8264 89.8128 33.6102 89.8118 33.394C89.8105 33.0839 89.8099 32.7738 89.8094 32.4637C89.8088 32.3664 89.8082 32.2691 89.8076 32.1689C89.8076 31.9373 89.8133 31.7057 89.8202 31.4741C89.9316 31.3623 89.9316 31.3623 90.3737 31.3496ZM90.1544 31.4741C90.1544 32.9136 90.1544 34.353 90.1544 35.836C91.551 35.836 92.9477 35.836 94.3866 35.836C94.3866 34.3966 94.3866 32.9572 94.3866 31.4741C92.99 31.4741 91.5933 31.4741 90.1544 31.4741Z" fill="#FAF6F2"/>
<path d="M82.2463 12.4609C82.3566 12.4978 82.4669 12.5348 82.5805 12.5728C82.5805 12.6835 82.5805 12.7942 82.5805 12.9083C82.6907 12.9083 82.801 12.9083 82.9146 12.9083C83.0858 13.1949 83.1426 13.3964 83.1861 13.7331C83.2282 14.1418 83.2282 14.1418 83.4227 14.4881C83.5877 14.8194 83.6148 15.0051 83.5828 15.3688C83.6931 15.4057 83.8034 15.4427 83.917 15.4807C84.5394 17.5988 84.5292 20.4083 83.783 22.4844C83.6075 23.0105 83.4882 23.5532 83.3601 24.0925C83.2866 24.0925 83.2131 24.0925 83.1373 24.0925C83.1373 24.2771 83.1373 24.4616 83.1373 24.6517C83.0638 24.6517 82.9903 24.6517 82.9146 24.6517C82.9146 24.7994 82.9146 24.947 82.9146 25.0991C82.8043 25.0991 82.6941 25.0991 82.5805 25.0991C82.5805 25.2098 82.5805 25.3206 82.5805 25.4346C82.507 25.3977 82.4334 25.3608 82.3577 25.3228C82.4105 25.2398 82.4634 25.1567 82.5178 25.0712C82.6672 24.8071 82.7489 24.6108 82.8032 24.3162C82.8767 24.3162 82.9502 24.3162 83.026 24.3162C83.0466 24.1986 83.0466 24.1986 83.0677 24.0786C83.1373 23.757 83.1373 23.757 83.2487 23.4424C83.3562 23.0985 83.4019 22.7736 83.4406 22.4162C83.5029 21.9623 83.6455 21.5332 83.8114 21.1079C83.9372 20.6661 83.947 20.2539 83.9426 19.7988C83.9426 19.7109 83.9425 19.6231 83.9425 19.5325C83.9421 19.3479 83.9413 19.1633 83.9399 18.9787C83.9378 18.6955 83.9376 18.4123 83.9376 18.1291C83.9371 17.9494 83.9364 17.7697 83.9357 17.59C83.9356 17.5051 83.9354 17.4203 83.9353 17.3329C83.9397 16.8957 83.9397 16.8957 83.8056 16.4873C83.8011 16.2636 83.8008 16.0398 83.8056 15.8162C83.6953 15.7793 83.5851 15.7424 83.4715 15.7044C83.4715 15.5198 83.4715 15.3353 83.4715 15.1452C83.398 15.1452 83.3245 15.1452 83.2487 15.1452C83.2418 15.0367 83.2349 14.9283 83.2278 14.8166C83.1523 14.2629 82.8663 13.6427 82.4691 13.2438C82.4646 13.0575 82.4643 12.871 82.4691 12.6846C82.3956 12.6846 82.3221 12.6846 82.2463 12.6846C82.2463 12.6108 82.2463 12.537 82.2463 12.4609Z" fill="#FAF6F2"/>
<path d="M66.0961 28.7891C66.3166 28.8629 66.5371 28.9367 66.7643 29.0127C66.7643 29.0866 66.7643 29.1604 66.7643 29.2364C67.1319 29.3472 67.4994 29.4579 67.8781 29.572C67.8781 29.6458 67.8781 29.7196 67.8781 29.7956C67.9918 29.7818 67.9918 29.7818 68.1078 29.7677C68.4805 29.7995 68.6893 29.9405 69.0018 30.1364C69.3577 30.3147 69.7123 30.3208 70.1056 30.3549C70.1607 30.4102 70.1607 30.4102 70.217 30.4667C70.418 30.5082 70.6201 30.5447 70.8226 30.5785C71.4181 30.6783 71.4181 30.6783 71.6648 30.8022C71.8299 30.8125 71.9955 30.8159 72.161 30.8157C72.2653 30.8158 72.3696 30.816 72.4771 30.8161C72.5919 30.8157 72.7067 30.8153 72.825 30.8149C72.9456 30.8149 73.0662 30.815 73.1905 30.815C73.5906 30.8149 73.9908 30.814 74.3909 30.8131C74.6678 30.8129 74.9446 30.8128 75.2215 30.8127C75.8766 30.8123 76.5318 30.8114 77.187 30.8103C78.0059 30.8089 78.8249 30.8083 79.6438 30.8077C81.105 30.8065 82.5663 30.8046 84.0275 30.8022C84.0642 30.6177 84.101 30.4331 84.1389 30.243C84.2491 30.2799 84.3594 30.3168 84.473 30.3549C84.3755 30.9001 84.3755 30.9001 84.2502 31.0259C84.0811 31.0366 83.9116 31.0395 83.7421 31.0394C83.5774 31.0396 83.5774 31.0396 83.4094 31.0398C83.288 31.0394 83.1665 31.039 83.0414 31.0386C82.8507 31.0386 82.8507 31.0386 82.6562 31.0387C82.2337 31.0386 81.8113 31.0377 81.3888 31.0368C81.0969 31.0366 80.8049 31.0365 80.5129 31.0364C79.8214 31.036 79.1299 31.0351 78.4385 31.034C77.6515 31.0327 76.8644 31.0321 76.0774 31.0315C74.458 31.0304 72.8387 31.0284 71.2193 31.0259C71.2193 30.989 71.2193 30.9521 71.2193 30.9141C71.1402 30.8992 71.0611 30.8844 70.9796 30.8691C70.8772 30.8493 70.7749 30.8296 70.6694 30.8092C70.5673 30.7897 70.4653 30.7703 70.3601 30.7502C70.1056 30.6904 70.1056 30.6904 69.9942 30.5785C69.8069 30.5525 69.6187 30.5324 69.4304 30.5156C69.328 30.5063 69.2256 30.4969 69.1202 30.4872C69.0411 30.4805 68.962 30.4737 68.8805 30.4667C68.8805 30.3929 68.8805 30.3191 68.8805 30.243C68.7633 30.2569 68.7633 30.2569 68.6438 30.271C68.2175 30.2337 68.0092 30.0348 67.6553 29.7956C67.3262 29.6661 66.9921 29.56 66.6529 29.4601C66.6529 29.3494 66.6529 29.2387 66.6529 29.1246C66.5817 29.1107 66.5105 29.0969 66.4372 29.0826C66.3614 29.0596 66.2855 29.0365 66.2074 29.0127C66.1707 28.9389 66.1339 28.8651 66.0961 28.7891Z" fill="#FAF6F2"/>
<path d="M71.1277 7.29749C71.2505 7.29693 71.2505 7.29693 71.3758 7.29636C71.5507 7.29579 71.7256 7.29553 71.9005 7.29555C72.1611 7.29531 72.4216 7.2933 72.6822 7.29116C73.844 7.28694 74.9719 7.37774 76.1222 7.53996C76.1222 7.61378 76.1222 7.68759 76.1222 7.76365C76.2426 7.75543 76.2426 7.75543 76.3654 7.74704C76.7245 7.76605 76.9274 7.85985 77.2429 8.02927C77.3361 8.07858 77.4293 8.12789 77.5253 8.17869C77.6136 8.22626 77.7019 8.27384 77.7928 8.32286C77.8754 8.36121 77.9579 8.39956 78.043 8.43907C78.2383 8.54654 78.2383 8.54654 78.3497 8.77023C78.5427 8.84981 78.5427 8.84981 78.7395 8.931C78.8682 8.98867 78.9968 9.04634 79.1293 9.10575C79.1845 9.27184 79.1845 9.27184 79.2407 9.44128C79.1672 9.44128 79.0937 9.44128 79.018 9.44128C79.018 9.36746 79.018 9.29365 79.018 9.2176C78.9554 9.20275 78.8928 9.1879 78.8283 9.1726C78.562 9.10303 78.304 9.01951 78.0434 8.931C77.9544 8.90087 77.8654 8.87074 77.7737 8.83969C77.7065 8.81677 77.6393 8.79384 77.5701 8.77023C77.5701 8.69641 77.5701 8.62259 77.5701 8.54654C77.3863 8.54654 77.2025 8.54654 77.0132 8.54654C77.0132 8.43582 77.0132 8.32509 77.0132 8.21102C76.7192 8.21102 76.4251 8.21102 76.1222 8.21102C76.1222 8.1372 76.1222 8.06338 76.1222 7.98733C75.8649 7.98733 75.6076 7.98733 75.3426 7.98733C75.2874 7.82125 75.2874 7.82125 75.2312 7.6518C75.1246 7.65375 75.1246 7.65375 75.0158 7.65574C74.9238 7.65675 74.8318 7.65775 74.737 7.65879C74.5994 7.66074 74.5994 7.66074 74.459 7.66273C74.2288 7.6518 74.2288 7.6518 74.1174 7.53996C73.8961 7.5288 73.6743 7.52533 73.4527 7.52511C73.3179 7.52496 73.183 7.52482 73.0441 7.52467C72.9022 7.5251 72.7602 7.52554 72.6139 7.52598C72.4719 7.52555 72.3299 7.52512 72.1836 7.52467C72.0488 7.52482 71.914 7.52496 71.7751 7.52511C71.6504 7.52523 71.5257 7.52536 71.3972 7.52549C71.1179 7.50729 71.1179 7.50729 70.9989 7.6518C70.774 7.65991 70.5488 7.66117 70.3237 7.65879C70.2007 7.65779 70.0776 7.65678 69.9509 7.65574C69.8557 7.65444 69.7605 7.65314 69.6624 7.6518C69.6624 7.76253 69.6624 7.87325 69.6624 7.98733C69.3684 7.98733 69.0744 7.98733 68.7714 7.98733C68.7714 8.06115 68.7714 8.13496 68.7714 8.21102C68.6244 8.17411 68.4774 8.1372 68.3259 8.09917C68.891 7.78967 69.3871 7.58898 70.0205 7.47224C70.8056 7.298 70.8056 7.298 71.1277 7.29749Z" fill="#FAF6F2"/>
<path d="M83.0258 29.4609C83.3502 29.6116 83.6153 29.7824 83.8889 30.0132C83.9573 30.0695 84.0256 30.1259 84.096 30.184C84.2509 30.3557 84.2509 30.3557 84.2509 30.6912C82.5363 30.6938 80.8217 30.6958 79.1071 30.697C78.3109 30.6976 77.5148 30.6984 76.7186 30.6996C76.0245 30.7008 75.3304 30.7015 74.6363 30.7017C74.2689 30.7019 73.9015 30.7023 73.5342 30.703C73.1236 30.7038 72.713 30.704 72.3024 30.7039C72.1813 30.7043 72.0601 30.7047 71.9353 30.7051C70.3407 30.7029 70.3407 30.7029 70.1062 30.4675C69.8926 30.4468 69.8926 30.4468 69.6747 30.4256C69.3637 30.3914 69.2439 30.3781 68.9925 30.1809C68.9557 30.1279 68.919 30.0748 68.8811 30.0201C69.6636 29.9666 70.5149 30.1135 71.22 30.4675C71.3851 30.4778 71.5507 30.4812 71.7161 30.481C71.8204 30.4811 71.9248 30.4813 72.0322 30.4814C72.147 30.481 72.2618 30.4806 72.3801 30.4802C72.5007 30.4802 72.6213 30.4802 72.7456 30.4803C73.1458 30.4802 73.5459 30.4793 73.9461 30.4784C74.2229 30.4782 74.4998 30.4781 74.7766 30.478C75.4318 30.4776 76.087 30.4767 76.7421 30.4756C77.5611 30.4742 78.38 30.4736 79.199 30.473C80.6602 30.4718 82.1214 30.4699 83.5826 30.4675C83.4434 30.0589 83.3965 29.9328 83.0258 29.6846C83.0258 29.6108 83.0258 29.537 83.0258 29.4609Z" fill="#FAF6F2"/>
<path d="M59.3043 8.43457C59.341 8.43457 59.3778 8.43457 59.4156 8.43457C59.4524 15.6316 59.4891 22.8287 59.527 30.2438C59.4535 30.2438 59.38 30.2438 59.3043 30.2438C59.1701 29.8396 59.1799 29.4732 59.1837 29.0527C59.1841 28.9647 59.1844 28.8768 59.1848 28.7861C59.1862 28.4904 59.1883 28.1947 59.1905 27.899C59.1916 27.6874 59.1927 27.4758 59.1937 27.2641C59.1967 26.6888 59.2003 26.1134 59.2041 25.5381C59.2079 24.9371 59.2111 24.3362 59.2143 23.7352C59.2206 22.5969 59.2274 21.4585 59.2345 20.3201C59.2424 19.0243 59.2498 17.7284 59.2571 16.4326C59.2721 13.7666 59.2879 11.1006 59.3043 8.43457Z" fill="#FAF6F2"/>
<path d="M40.0351 8.21094C40.0719 8.21094 40.1086 8.21094 40.1465 8.21094C40.1477 8.3466 40.1488 8.48227 40.15 8.62204C40.1609 9.89758 40.1723 11.1731 40.1843 12.4486C40.1905 13.1045 40.1964 13.7603 40.2019 14.4161C40.2072 15.0485 40.213 15.6808 40.2192 16.3132C40.2215 16.555 40.2236 16.7968 40.2255 17.0387C40.2282 17.3761 40.2315 17.7136 40.235 18.0511C40.2357 18.1521 40.2363 18.2531 40.237 18.3573C40.1985 18.7999 40.1985 18.7999 40.3693 19.1715C40.5503 19.1852 40.732 19.1914 40.9136 19.1944C41.0295 19.1967 41.1454 19.1989 41.2649 19.2012C41.391 19.2031 41.5171 19.2049 41.647 19.2069C41.8396 19.2104 41.8396 19.2104 42.0361 19.2139C42.4481 19.2213 42.86 19.2278 43.272 19.2344C43.5505 19.2392 43.829 19.2441 44.1075 19.249C44.7919 19.261 45.4763 19.2724 46.1608 19.2833C46.1608 19.3202 46.1608 19.3571 46.1608 19.3952C45.3063 19.398 44.4518 19.4 43.5973 19.4013C43.3064 19.4019 43.0154 19.4026 42.7245 19.4036C42.3073 19.405 41.8902 19.4056 41.473 19.4061C41.342 19.4067 41.2111 19.4072 41.0761 19.4078C40.9557 19.4078 40.8353 19.4079 40.7112 19.4079C40.6047 19.4081 40.4981 19.4084 40.3882 19.4086C40.1465 19.3952 40.1465 19.3952 40.0351 19.2833C40.0245 18.9395 40.0212 18.5981 40.0225 18.2542C40.0225 18.1462 40.0225 18.0382 40.0224 17.9269C40.0225 17.568 40.0234 17.2092 40.0243 16.8503C40.0245 16.6022 40.0246 16.3541 40.0247 16.1061C40.0252 15.4517 40.0263 14.7973 40.0275 14.1429C40.0286 13.4757 40.0291 12.8085 40.0297 12.1414C40.0309 10.8312 40.0328 9.52108 40.0351 8.21094Z" fill="#FAF6F2"/>
<path d="M61.0862 16.2627C61.1229 16.2627 61.1597 16.2627 61.1975 16.2627C61.1975 16.558 61.1975 16.8532 61.1975 17.1574C61.124 17.1574 61.0505 17.1574 60.9748 17.1574C60.9748 18.117 60.9748 19.0766 60.9748 20.0653C61.0483 20.0653 61.1218 20.0653 61.1975 20.0653C61.2343 20.582 61.271 21.0988 61.3089 21.6311C61.3824 21.6311 61.4559 21.6311 61.5317 21.6311C61.5384 21.7054 61.5452 21.7796 61.5521 21.8561C61.6206 22.5873 61.6206 22.5873 61.7544 23.3088C61.8279 23.3088 61.9014 23.3088 61.9772 23.3088C62.0139 23.4933 62.0507 23.6778 62.0885 23.868C62.162 23.868 62.2356 23.868 62.3113 23.868C62.3113 24.0156 62.3113 24.1632 62.3113 24.3153C62.3848 24.3153 62.4583 24.3153 62.534 24.3153C62.5639 24.433 62.5938 24.5506 62.6245 24.6718C62.7434 25.055 62.8757 25.3242 63.0909 25.6574C63.1668 25.8058 63.2416 25.9546 63.3137 26.1048C62.6351 25.6452 62.3656 25.0799 62.0885 24.3153C62.0885 24.2415 62.0885 24.1677 62.0885 24.0917C62.015 24.0917 61.9415 24.0917 61.8658 24.0917C61.7192 23.6868 61.643 23.4099 61.643 22.9732C61.5695 22.9732 61.496 22.9732 61.4203 22.9732C60.8314 20.9072 60.7981 18.9488 60.8634 16.8219C60.9369 16.8219 61.0104 16.8219 61.0862 16.8219C61.0862 16.6374 61.0862 16.4528 61.0862 16.2627Z" fill="#FAF6F2"/>
<path d="M64.7604 10.1123C64.8339 10.1492 64.9074 10.1861 64.9832 10.2241C64.9282 10.2661 64.8732 10.3081 64.8165 10.3513C64.3679 10.7112 64.1947 10.8809 64.0922 11.4544C63.9278 11.5943 63.7629 11.7339 63.591 11.8642C63.3351 12.0931 63.2202 12.3718 63.0898 12.6847C62.9795 12.6847 62.8693 12.6847 62.7557 12.6847C62.6821 12.9799 62.6086 13.2752 62.5329 13.5794C62.4594 13.5794 62.3859 13.5794 62.3102 13.5794C62.2964 13.644 62.2826 13.7086 62.2684 13.7751C62.1981 14.0294 62.0998 14.2421 61.976 14.4742C61.9025 14.4742 61.829 14.4742 61.7533 14.4742C61.7418 14.5618 61.7303 14.6495 61.7185 14.7398C61.6201 15.2607 61.4659 15.7583 61.3078 16.2636C61.1883 15.8977 61.2084 15.6564 61.3008 15.285C61.3225 15.1956 61.3442 15.1062 61.3665 15.0141C61.3839 14.9467 61.4013 14.8792 61.4192 14.8097C61.4927 14.8097 61.5662 14.8097 61.6419 14.8097C61.6419 14.5882 61.6419 14.3668 61.6419 14.1386C61.7522 14.0833 61.7522 14.0833 61.8647 14.0268C62.0799 13.7026 62.2483 13.3641 62.4146 13.0132C62.5924 12.6478 62.7918 12.4041 63.0898 12.1255C63.1265 12.0147 63.1633 11.904 63.2012 11.7899C63.2747 11.7899 63.3482 11.7899 63.4239 11.7899C63.5437 11.4933 63.6572 11.199 63.758 10.8952C63.9599 10.7196 63.9599 10.7196 64.2035 10.5457C64.4944 10.3438 64.4944 10.3438 64.7604 10.1123Z" fill="#FAF6F2"/>
<path d="M75.2307 7.65137C75.5316 7.70468 75.8062 7.76999 76.0939 7.87505C76.4021 7.97028 76.6336 8.00617 76.9501 8.02883C77.478 8.07817 77.8022 8.24537 78.2378 8.54611C78.2746 8.61992 78.3114 8.69374 78.3492 8.76979C78.5422 8.84937 78.5422 8.84937 78.739 8.93056C78.8677 8.98823 78.9963 9.0459 79.1288 9.10532C79.184 9.2714 79.184 9.2714 79.2402 9.44084C79.1667 9.44084 79.0932 9.44084 79.0175 9.44084C79.0175 9.36703 79.0175 9.29321 79.0175 9.21716C78.9549 9.20231 78.8923 9.18746 78.8278 9.17216C78.5615 9.10259 78.3035 9.01907 78.0429 8.93056C77.9539 8.90043 77.8649 8.8703 77.7732 8.83925C77.706 8.81633 77.6388 8.79341 77.5696 8.76979C77.5696 8.69597 77.5696 8.62216 77.5696 8.54611C77.3858 8.54611 77.2021 8.54611 77.0127 8.54611C77.0127 8.43538 77.0127 8.32466 77.0127 8.21058C76.7187 8.21058 76.4247 8.21058 76.1217 8.21058C76.1217 8.13676 76.1217 8.06295 76.1217 7.98689C75.8644 7.98689 75.6072 7.98689 75.3421 7.98689C75.3053 7.87617 75.2686 7.76545 75.2307 7.65137Z" fill="#FAF6F2"/>
<path d="M66.0961 28.7891C66.3166 28.8629 66.5371 28.9367 66.7643 29.0127C66.7643 29.0866 66.7643 29.1604 66.7643 29.2364C67.1319 29.3472 67.4994 29.4579 67.8781 29.572C67.8781 29.6458 67.8781 29.7196 67.8781 29.7956C67.9918 29.7818 67.9918 29.7818 68.1078 29.7677C68.4805 29.7995 68.6893 29.9405 69.0018 30.1364C69.3577 30.3147 69.7123 30.3208 70.1056 30.3549C70.1607 30.4102 70.1607 30.4102 70.217 30.4667C70.4763 30.5078 70.7362 30.5453 70.9966 30.5785C70.9966 30.6154 70.9966 30.6524 70.9966 30.6904C70.3114 30.7013 70.3114 30.7013 70.1056 30.6904C70.0688 30.6535 70.0321 30.6166 69.9942 30.5785C69.8069 30.5525 69.6187 30.5324 69.4304 30.5156C69.328 30.5063 69.2256 30.4969 69.1202 30.4872C69.0411 30.4805 68.962 30.4737 68.8805 30.4667C68.8805 30.3929 68.8805 30.3191 68.8805 30.243C68.7633 30.2569 68.7633 30.2569 68.6438 30.271C68.2175 30.2337 68.0092 30.0348 67.6553 29.7956C67.3262 29.6661 66.9921 29.56 66.6529 29.4601C66.6529 29.3494 66.6529 29.2387 66.6529 29.1246C66.5817 29.1107 66.5105 29.0969 66.4372 29.0826C66.3614 29.0596 66.2855 29.0365 66.2074 29.0127C66.1707 28.9389 66.1339 28.8651 66.0961 28.7891Z" fill="#FAF6F2"/>
<path d="M71.1574 7.18196C71.2677 7.18227 71.378 7.18259 71.4916 7.18291C71.8423 7.18416 72.1929 7.18697 72.5435 7.18982C72.7819 7.19094 73.0203 7.19196 73.2587 7.19288C73.8417 7.19534 74.4247 7.19908 75.0077 7.2038C75.0077 7.31452 75.0077 7.42525 75.0077 7.53933C74.8976 7.52126 74.7876 7.50319 74.6742 7.48458C74.2253 7.42049 73.7795 7.40941 73.3266 7.4087C73.243 7.40833 73.1595 7.40795 73.0734 7.40757C72.8978 7.40701 72.7222 7.40674 72.5466 7.40676C72.2797 7.40651 72.0129 7.40448 71.746 7.40236C71.5745 7.40204 71.4029 7.40181 71.2314 7.40171C71.1132 7.4005 71.1132 7.4005 70.9926 7.39927C70.4758 7.40163 70.0407 7.49238 69.5503 7.65117C69.3651 7.69073 69.1797 7.72901 68.9934 7.76301C69.5382 7.09436 70.3746 7.17344 71.1574 7.18196Z" fill="#FAF6F2"/>
<path d="M83.0271 29.4609C83.3515 29.6116 83.6167 29.7824 83.8903 30.0132C83.9928 30.0977 83.9928 30.0977 84.0974 30.184C84.2522 30.3557 84.2522 30.3557 84.2522 30.6912C83.2599 30.6912 82.2675 30.6912 81.2451 30.6912C81.2451 30.6543 81.2451 30.6174 81.2451 30.5794C82.4029 30.524 82.4029 30.524 83.584 30.4675C83.4196 29.9016 83.4196 29.9016 83.0271 29.6846C83.0271 29.6108 83.0271 29.537 83.0271 29.4609Z" fill="#FAF6F2"/>
<path d="M80.7992 27.1123C80.983 27.1123 81.1667 27.1123 81.3561 27.1123C81.4043 27.2207 81.4525 27.3291 81.5023 27.4408C81.6569 27.8144 81.6569 27.8144 82.0243 27.8952C82.2401 28.0758 82.3674 28.2459 82.5116 28.4894C82.7273 28.8477 82.9776 29.1437 83.2494 29.461C82.8651 29.295 82.6159 29.0759 82.3219 28.779C82.2329 28.6894 82.1439 28.5998 82.0522 28.5075C81.9603 28.4139 81.8684 28.3202 81.7737 28.2237C81.6801 28.1297 81.5865 28.0356 81.4901 27.9387C80.7992 27.2398 80.7992 27.2398 80.7992 27.1123Z" fill="#FAF6F2"/>
<path d="M84.1409 17.3818C84.2511 17.4187 84.3614 17.4557 84.475 17.4937C84.475 18.4164 84.475 19.3391 84.475 20.2897C84.4015 20.3266 84.328 20.3636 84.2522 20.4016C84.2155 19.4051 84.1787 18.4085 84.1409 17.3818Z" fill="#FAF6F2"/>
<path d="M61.7543 14.4736C61.9014 14.4736 62.0484 14.4736 62.1998 14.4736C62.1998 14.5844 62.1998 14.6951 62.1998 14.8092C62.2733 14.8092 62.3469 14.8092 62.4226 14.8092C62.3858 14.9937 62.3491 15.1782 62.3112 15.3684C62.1274 15.4053 61.9437 15.4422 61.7543 15.4802C61.6808 15.7386 61.6073 15.9969 61.5316 16.2631C61.4581 16.2631 61.3846 16.2631 61.3088 16.2631C61.422 15.6515 61.5395 15.0592 61.7543 14.4736Z" fill="#FAF6F2"/>
<path d="M64.7617 10.1123C64.8352 10.1492 64.9087 10.1861 64.9844 10.2241C64.9294 10.2661 64.8744 10.3081 64.8178 10.3513C64.3691 10.7112 64.1959 10.8809 64.0934 11.4544C63.9291 11.5943 63.7642 11.7339 63.5922 11.8642C63.3363 12.0931 63.2215 12.3718 63.091 12.6847C63.0175 12.6478 62.944 12.6109 62.8683 12.5728C63.0337 12.1853 63.0337 12.1853 63.2024 11.7899C63.2759 11.7899 63.3494 11.7899 63.4252 11.7899C63.5449 11.4933 63.6584 11.199 63.7593 10.8952C63.9612 10.7196 63.9612 10.7196 64.2048 10.5457C64.4956 10.3438 64.4956 10.3438 64.7617 10.1123Z" fill="#FAF6F2"/>
<path d="M68.8811 30.0203C69.6152 29.97 70.3004 30.1243 70.9972 30.3558C71.0707 30.4296 71.1442 30.5034 71.22 30.5795C71.0553 30.5825 70.8905 30.5846 70.7258 30.5865C70.5881 30.5884 70.5881 30.5884 70.4478 30.5904C70.2176 30.5795 70.2176 30.5795 70.1062 30.4676C69.8926 30.4469 69.8926 30.4469 69.6747 30.4257C69.3637 30.3915 69.2439 30.3782 68.9925 30.181C68.9557 30.128 68.919 30.0749 68.8811 30.0203Z" fill="#FAF6F2"/>
<path d="M83.4707 22.8623C83.5074 22.8623 83.5442 22.8623 83.5821 22.8623C83.6088 23.3194 83.5178 23.665 83.3593 24.0926C83.2858 24.0926 83.2123 24.0926 83.1366 24.0926C83.1366 24.2771 83.1366 24.4616 83.1366 24.6518C83.0631 24.6518 82.9895 24.6518 82.9138 24.6518C82.9138 24.7994 82.9138 24.947 82.9138 25.0991C82.8035 25.0991 82.6933 25.0991 82.5797 25.0991C82.5797 25.2099 82.5797 25.3206 82.5797 25.4347C82.5062 25.3978 82.4327 25.3609 82.3569 25.3228C82.4098 25.2398 82.4626 25.1567 82.517 25.0712C82.6664 24.8072 82.7481 24.6108 82.8024 24.3163C82.8759 24.3163 82.9494 24.3163 83.0252 24.3163C83.0367 24.2424 83.0482 24.1686 83.06 24.0926C83.158 23.6633 83.3114 23.2727 83.4707 22.8623Z" fill="#FAF6F2"/>
<path d="M67.9908 8.21094C67.9908 8.32166 67.9908 8.43239 67.9908 8.54646C67.807 8.54646 67.6232 8.54646 67.4339 8.54646C67.4339 8.62028 67.4339 8.6941 67.4339 8.77015C67.3604 8.77015 67.2869 8.77015 67.2111 8.77015C67.2111 8.84396 67.2111 8.91778 67.2111 8.99383C66.9906 8.99383 66.7701 8.99383 66.5429 8.99383C66.5429 9.06765 66.5429 9.14147 66.5429 9.21752C66.4694 9.21752 66.3959 9.21752 66.3201 9.21752C66.3201 9.32824 66.3201 9.43897 66.3201 9.55304C66.1731 9.51614 66.0261 9.47923 65.8746 9.4412C66.3582 8.68108 67.1674 8.46535 67.9908 8.21094Z" fill="#FAF6F2"/>
<path d="M71.1103 7.42794C71.0736 7.50175 71.0368 7.57557 70.9989 7.65162C70.5579 7.65162 70.1168 7.65162 69.6624 7.65162C69.6624 7.76235 69.6624 7.87307 69.6624 7.98715C69.3684 7.98715 69.0744 7.98715 68.7714 7.98715C68.7714 8.06097 68.7714 8.13478 68.7714 8.21083C68.6244 8.17393 68.4774 8.13702 68.3259 8.09899C69.2015 7.60128 70.0973 7.37295 71.1103 7.42794Z" fill="#FAF6F2"/>
<path d="M61.0855 16.2627C61.1223 16.2627 61.1591 16.2627 61.1969 16.2627C61.1969 16.558 61.1969 16.8532 61.1969 17.1574C61.1234 17.1574 61.0499 17.1574 60.9742 17.1574C60.9742 18.2278 60.9742 19.2981 60.9742 20.4009C60.9374 20.4009 60.9007 20.4009 60.8628 20.4009C60.8628 19.2198 60.8628 18.0388 60.8628 16.8219C60.9363 16.8219 61.0098 16.8219 61.0855 16.8219C61.0855 16.6374 61.0855 16.4528 61.0855 16.2627Z" fill="#FAF6F2"/>
<path d="M78.1257 23.5332C78.2727 23.5332 78.4198 23.5332 78.5712 23.5332C78.6447 23.6808 78.7182 23.8285 78.794 23.9806C78.6102 23.9437 78.4264 23.9068 78.2371 23.8687C78.2003 23.9795 78.1636 24.0902 78.1257 24.2043C78.3095 24.315 78.4933 24.4257 78.6826 24.5398C78.6459 24.6874 78.6091 24.835 78.5712 24.9872C77.9223 24.4228 77.9223 24.4228 77.8473 24.0085C77.903 23.7569 77.903 23.7569 78.1257 23.5332Z" fill="#FAF6F2"/>
<path d="M61.1964 16.2627C61.2331 16.2627 61.2699 16.2627 61.3078 16.2627C61.33 17.9094 61.33 17.9094 61.1964 18.4995C61.1229 18.5364 61.0494 18.5734 60.9736 18.6114C60.9736 18.1316 60.9736 17.6518 60.9736 17.1574C61.0471 17.1574 61.1206 17.1574 61.1964 17.1574C61.1964 16.8622 61.1964 16.5669 61.1964 16.2627Z" fill="#FAF6F2"/>
<path d="M80.5767 25.7695C80.6869 25.8064 80.7972 25.8433 80.9108 25.8814C80.9108 25.9921 80.9108 26.1028 80.9108 26.2169C81.0211 26.2169 81.1313 26.2169 81.2449 26.2169C81.2449 26.2907 81.2449 26.3645 81.2449 26.4406C81.3919 26.4775 81.539 26.5144 81.6904 26.5524C81.4332 26.5155 81.1759 26.4786 80.9108 26.4406C80.8741 26.662 80.8373 26.8835 80.7994 27.1116C80.6157 26.9271 80.4319 26.7426 80.2426 26.5524C80.4263 26.5524 80.6101 26.5524 80.7994 26.5524C80.7994 26.3679 80.7994 26.1833 80.7994 25.9932C80.7259 25.9932 80.6524 25.9932 80.5767 25.9932C80.5767 25.9194 80.5767 25.8456 80.5767 25.7695Z" fill="#FAF6F2"/>
<path d="M68.1014 29.9082C68.2663 29.9426 68.431 29.9777 68.5957 30.0131C68.6874 30.0325 68.7792 30.052 68.8737 30.072C69.1038 30.1319 69.1038 30.1319 69.2152 30.2437C69.3631 30.2668 69.5118 30.2847 69.6607 30.2997C70.0938 30.3431 70.0938 30.3431 70.2176 30.4674C70.4769 30.5085 70.7368 30.546 70.9972 30.5793C70.9972 30.6162 70.9972 30.6531 70.9972 30.6911C70.312 30.702 70.312 30.702 70.1062 30.6911C70.0694 30.6542 70.0327 30.6173 69.9948 30.5793C69.8075 30.5532 69.6193 30.5331 69.431 30.5163C69.3286 30.507 69.2263 30.4976 69.1208 30.4879C69.0021 30.4778 69.0021 30.4778 68.8811 30.4674C68.8811 30.3936 68.8811 30.3198 68.8811 30.2437C68.7501 30.2541 68.7501 30.2541 68.6166 30.2647C68.5201 30.2578 68.4236 30.2509 68.3242 30.2437C68.2507 30.133 68.1772 30.0223 68.1014 29.9082Z" fill="#FAF6F2"/>
<path d="M65.095 27.8945C65.4258 27.9499 65.4258 27.9499 65.7632 28.0064C65.7632 28.1171 65.7632 28.2278 65.7632 28.3419C66.0205 28.3419 66.2778 28.3419 66.5428 28.3419C66.4326 28.3973 66.4326 28.3973 66.3201 28.4537C66.3201 28.5645 66.3201 28.6752 66.3201 28.7893C65.6889 28.6419 65.4665 28.3993 65.095 27.8945Z" fill="#FAF6F2"/>
<path d="M65.8737 9.10547C65.9839 9.14238 66.0942 9.17928 66.2078 9.21731C66.0668 9.34609 65.9251 9.4741 65.7832 9.60177C65.7044 9.67313 65.6255 9.7445 65.5443 9.81803C65.3168 10.0002 65.3168 10.0002 64.9827 10.112C64.9827 9.92751 64.9827 9.74297 64.9827 9.55284C65.1297 9.55284 65.2767 9.55284 65.4282 9.55284C65.4282 9.47902 65.4282 9.40521 65.4282 9.32915C65.5752 9.32915 65.7222 9.32915 65.8737 9.32915C65.8737 9.25534 65.8737 9.18152 65.8737 9.10547Z" fill="#FAF6F2"/>
<path d="M77.1238 8.09863C77.5641 8.1618 77.8719 8.291 78.2375 8.546C78.2743 8.61982 78.311 8.69363 78.3489 8.76969C78.4775 8.82274 78.6062 8.8758 78.7387 8.93046C78.9317 9.01696 78.9317 9.01696 79.1285 9.10521C79.1653 9.21594 79.202 9.32666 79.2399 9.44074C79.1664 9.44074 79.0929 9.44074 79.0172 9.44074C79.0172 9.36692 79.0172 9.29311 79.0172 9.21706C78.9597 9.20783 78.9023 9.1986 78.8431 9.18909C78.2212 8.99693 77.6526 8.58608 77.1238 8.21048C77.1238 8.17357 77.1238 8.13666 77.1238 8.09863Z" fill="#FAF6F2"/>
<path d="M68.9947 7.76331C68.445 8.20911 67.9169 8.46201 67.2126 8.54621C67.2126 8.47239 67.2126 8.39857 67.2126 8.32252C67.3597 8.32252 67.5067 8.32252 67.6581 8.32252C67.6581 8.2118 67.6581 8.10107 67.6581 7.987C68.1234 7.80901 68.497 7.73951 68.9947 7.76331Z" fill="#FAF6F2"/>
<path d="M70.9286 7.19026C71.0515 7.19177 71.0515 7.19177 71.177 7.19332C71.3773 7.19593 71.5775 7.19994 71.7778 7.20424C71.7778 7.24115 71.7778 7.27806 71.7778 7.31608C71.6823 7.32156 71.5868 7.32704 71.4885 7.33268C70.809 7.3773 70.196 7.43545 69.5503 7.65161C69.3651 7.69117 69.1797 7.72945 68.9934 7.76345C69.4891 7.15502 70.2092 7.17328 70.9286 7.19026Z" fill="#FAF6F2"/>
<path d="M83.9166 20.7373C83.9534 20.7373 83.9901 20.7373 84.028 20.7373C83.9722 21.2418 83.9031 21.7408 83.8122 22.2402C83.7951 22.3346 83.778 22.429 83.7604 22.5263C83.7384 22.6003 83.7165 22.6743 83.6938 22.7505C83.6203 22.7874 83.5468 22.8243 83.4711 22.8623C83.434 22.099 83.6738 21.4514 83.9166 20.7373Z" fill="#FAF6F2"/>
<path d="M82.2463 12.4609C82.3566 12.4978 82.4669 12.5348 82.5805 12.5728C82.5805 12.6835 82.5805 12.7942 82.5805 12.9083C82.6907 12.9083 82.801 12.9083 82.9146 12.9083C83.0738 13.1716 83.147 13.2976 83.0956 13.6073C83.0726 13.6719 83.0496 13.7365 83.026 13.803C82.4777 13.3213 82.4777 13.3213 82.4343 12.9293C82.4458 12.8485 82.4573 12.7678 82.4691 12.6846C82.3956 12.6846 82.3221 12.6846 82.2463 12.6846C82.2463 12.6108 82.2463 12.537 82.2463 12.4609Z" fill="#FAF6F2"/>
<path d="M75.1187 7.53906C75.4494 7.53906 75.7802 7.53906 76.121 7.53906C76.121 7.61288 76.121 7.68669 76.121 7.76275C76.2037 7.75583 76.2864 7.74891 76.3716 7.74178C76.7285 7.76621 76.8606 7.86368 77.1234 8.09827C76.5529 8.14019 76.1913 7.99815 75.6755 7.76275C75.366 7.68542 75.366 7.68542 75.1187 7.6509C75.1187 7.614 75.1187 7.57709 75.1187 7.53906Z" fill="#FAF6F2"/>
<path d="M77.6805 23.7568C77.754 23.7568 77.8276 23.7568 77.9033 23.7568C77.9309 23.856 77.9584 23.9552 77.9868 24.0574C78.1304 24.4396 78.3042 24.6829 78.5715 24.9871C78.351 24.9133 78.1305 24.8395 77.9033 24.7634C77.9033 24.6896 77.9033 24.6158 77.9033 24.5397C77.8298 24.5397 77.7563 24.5397 77.6805 24.5397C77.6805 24.2814 77.6805 24.023 77.6805 23.7568Z" fill="#FAF6F2"/>
<path d="M78.2385 23.7568C78.5142 23.8676 78.5142 23.8676 78.7954 23.9805C78.7954 24.0912 78.7954 24.202 78.7954 24.316C78.5935 24.3859 78.5935 24.3859 78.3499 24.4279C78.2396 24.3541 78.1293 24.2803 78.0157 24.2042C78.0893 24.0566 78.1628 23.9089 78.2385 23.7568Z" fill="#FAF6F2"/>
<path d="M83.2485 22.8623C83.322 22.8623 83.3955 22.8623 83.4712 22.8623C83.4179 23.0417 83.3645 23.2211 83.3111 23.4005C83.2814 23.5005 83.2517 23.6004 83.2211 23.7033C83.1589 23.9086 83.0933 24.1127 83.0257 24.3163C82.9522 24.3163 82.8787 24.3163 82.803 24.3163C82.8397 24.021 82.8765 23.7257 82.9144 23.4215C83.0246 23.3846 83.1349 23.3477 83.2485 23.3097C83.2485 23.162 83.2485 23.0144 83.2485 22.8623Z" fill="#FAF6F2"/>
<path d="M83.1382 13.8027C83.2484 13.8027 83.3587 13.8027 83.4723 13.8027C83.5826 14.3194 83.6928 14.8362 83.8064 15.3685C83.7329 15.3685 83.6594 15.3685 83.5837 15.3685C83.5302 15.1915 83.4769 15.0144 83.4236 14.8373C83.3939 14.7387 83.3641 14.64 83.3335 14.5384C83.2624 14.2942 83.1975 14.0501 83.1382 13.8027Z" fill="#FAF6F2"/>
<path d="M83.5826 15.3682C83.6929 15.4051 83.8032 15.442 83.9168 15.48C84.1435 16.0474 84.1651 16.6661 84.1395 17.2695C84.1028 17.2695 84.066 17.2695 84.0281 17.2695C83.8811 16.642 83.7341 16.0146 83.5826 15.3682Z" fill="#FAF6F2"/>
<path d="M81.0217 10.3359C81.1702 10.6342 81.3187 10.9324 81.4672 11.2307C81.0445 11.0639 80.8423 10.8105 80.5762 10.4478C80.7232 10.4109 80.8702 10.374 81.0217 10.3359Z" fill="#FAF6F2"/>
<path d="M65.0947 10C65.1314 10.0738 65.1682 10.1476 65.206 10.2237C65.0251 10.5522 65.0251 10.5522 64.7605 10.8947C64.3986 10.9926 64.3986 10.9926 64.0923 11.0066C64.4264 10.6711 64.7605 10.3355 65.0947 10Z" fill="#FAF6F2"/>
<path d="M83.026 29.4609C83.5037 29.6386 83.7303 29.9565 84.0284 30.3557C84.0284 30.4295 84.0284 30.5033 84.0284 30.5794C83.8195 30.5584 83.8195 30.5584 83.5829 30.4675C83.503 30.2835 83.4288 30.0968 83.3601 29.9083C83.2499 29.8345 83.1396 29.7607 83.026 29.6846C83.026 29.6108 83.026 29.537 83.026 29.4609Z" fill="#FAF6F2"/>
<path d="M62.3111 12.6846C62.4214 12.7215 62.5316 12.7584 62.6452 12.7964C62.4312 13.2585 62.195 13.6389 61.8656 14.0267C61.8656 13.8421 61.8656 13.6576 61.8656 13.4675C61.9391 13.4675 62.0126 13.4675 62.0884 13.4675C62.0884 13.3567 62.0884 13.246 62.0884 13.1319C62.1619 13.1319 62.2354 13.1319 62.3111 13.1319C62.3111 12.9843 62.3111 12.8367 62.3111 12.6846Z" fill="#FAF6F2"/>
<path d="M65.7632 9.55273C65.8735 9.58964 65.9837 9.62655 66.0973 9.66458C65.9512 9.83234 65.9512 9.83234 65.7632 10.0001C65.653 10.0001 65.5427 10.0001 65.4291 10.0001C65.3556 10.1477 65.2821 10.2954 65.2063 10.4475C65.1696 10.3737 65.1328 10.2998 65.095 10.2238C65.5126 9.67856 65.5126 9.67856 65.7632 9.55273Z" fill="#FAF6F2"/>
<path d="M73.6698 7.42773C73.741 7.44388 73.8122 7.46003 73.8856 7.47667C74.3312 7.55885 74.7785 7.6051 75.2291 7.65142C75.2291 7.68833 75.2291 7.72523 75.2291 7.76326C74.7145 7.76326 74.1999 7.76326 73.6698 7.76326C73.6698 7.65254 73.6698 7.54181 73.6698 7.42773Z" fill="#FAF6F2"/>
<path d="M66.988 29.2373C67.3642 29.2974 67.7339 29.3615 68.1018 29.461C68.1018 29.5348 68.1018 29.6086 68.1018 29.6847C68.1753 29.7216 68.2488 29.7585 68.3245 29.7965C68.1775 29.7965 68.0305 29.7965 67.879 29.7965C67.879 29.7227 67.879 29.6489 67.879 29.5728C67.794 29.5798 67.7091 29.5867 67.6215 29.5938C67.3222 29.5728 67.3222 29.5728 67.1203 29.4051C67.0548 29.322 67.0548 29.322 66.988 29.2373Z" fill="#FAF6F2"/>
<path d="M79.5736 25.9932C79.7755 26.0071 79.7755 26.0071 80.0191 26.105C80.214 26.4475 80.214 26.4475 80.3532 26.7761C80.1327 26.8868 80.1327 26.8868 79.9077 26.9997C79.871 26.7414 79.8342 26.483 79.7964 26.2168C79.7229 26.2168 79.6493 26.2168 79.5736 26.2168C79.5736 26.143 79.5736 26.0692 79.5736 25.9932Z" fill="#FAF6F2"/>
<path d="M76.6779 8.09863C77.2074 8.16309 77.5656 8.38391 78.0144 8.65784C77.8673 8.69475 77.7203 8.73166 77.5689 8.76969C77.5689 8.69587 77.5689 8.62205 77.5689 8.546C77.3851 8.546 77.2013 8.546 77.012 8.546C77.012 8.43528 77.012 8.32455 77.012 8.21048C76.9017 8.17357 76.7915 8.13666 76.6779 8.09863Z" fill="#FAF6F2"/>
<path d="M64.4276 27.4473C64.9037 27.6243 65.1254 27.9512 65.43 28.342C65.283 28.342 65.136 28.342 64.9845 28.342C64.8035 28.0834 64.8035 28.0834 64.6504 27.7828C64.5769 27.6721 64.5033 27.5613 64.4276 27.4473Z" fill="#FAF6F2"/>
<path d="M61.0855 16.2627C61.1223 16.2627 61.1591 16.2627 61.1969 16.2627C61.1969 16.558 61.1969 16.8532 61.1969 17.1574C61.1234 17.1574 61.0499 17.1574 60.9742 17.1574C60.9742 17.342 60.9742 17.5265 60.9742 17.7166C60.9374 17.7166 60.9007 17.7166 60.8628 17.7166C60.8628 17.4214 60.8628 17.1261 60.8628 16.8219C60.9363 16.8219 61.0098 16.8219 61.0855 16.8219C61.0855 16.6374 61.0855 16.4528 61.0855 16.2627Z" fill="#FAF6F2"/>
<path d="M82.2463 28.6777C82.5036 28.8992 82.7609 29.1206 83.026 29.3488C82.8032 29.3488 82.5805 29.3488 82.3577 29.3488C82.321 29.1273 82.2842 28.9059 82.2463 28.6777Z" fill="#FAF6F2"/>
<path d="M78.5708 24.9873C78.7958 25.1709 79.0186 25.3574 79.2391 25.5465C79.2391 25.5834 79.2391 25.6203 79.2391 25.6584C79.0553 25.6584 78.8715 25.6584 78.6822 25.6584C78.6454 25.4369 78.6087 25.2155 78.5708 24.9873Z" fill="#FAF6F2"/>
<path d="M83.6949 15.8154C83.7317 15.8154 83.7685 15.8154 83.8063 15.8154C84.0599 16.7142 84.0599 16.7142 83.9177 17.1575C83.9177 17.0837 83.9177 17.0099 83.9177 16.9339C83.8442 16.9339 83.7707 16.9339 83.6949 16.9339C83.6949 16.5648 83.6949 16.1957 83.6949 15.8154Z" fill="#FAF6F2"/>
<path d="M80.3533 26.7764C80.6105 26.9978 80.8678 27.2193 81.1329 27.4474C81.0226 27.5028 81.0226 27.5028 80.9101 27.5593C80.8366 27.5224 80.7631 27.4854 80.6874 27.4474C80.6874 27.3736 80.6874 27.2998 80.6874 27.2237C80.5771 27.2237 80.4669 27.2237 80.3533 27.2237C80.3533 27.0761 80.3533 26.9285 80.3533 26.7764Z" fill="#FAF6F2"/>
<path d="M63.0897 25.6582C63.2986 25.7281 63.2986 25.7281 63.5352 25.8819C63.6744 26.2314 63.6744 26.2314 63.758 26.5529C63.3695 26.3059 63.2311 26.096 63.0897 25.6582Z" fill="#FAF6F2"/>
<path d="M81.5787 11.4541C81.689 11.491 81.7993 11.5279 81.9129 11.5659C81.9129 11.6398 81.9129 11.7136 81.9129 11.7896C81.9864 11.7896 82.0599 11.7896 82.1356 11.7896C82.1724 12.0111 82.2091 12.2325 82.247 12.4607C81.9039 12.1506 81.7249 11.8944 81.5787 11.4541Z" fill="#FAF6F2"/>
<path d="M77.1238 8.09863C77.614 8.15489 77.8713 8.33213 78.2375 8.65784C77.7978 8.59476 77.4903 8.46288 77.1238 8.21048C77.1238 8.17357 77.1238 8.13666 77.1238 8.09863Z" fill="#FAF6F2"/>
</svg>
